<mxfile>
    <diagram id="i9pah4JnJiuqHY8HDGM4" name="ページ1">
        <mxGraphModel dx="1770" dy="680" grid="1" gridSize="10" guides="1" tooltips="1" connect="1" arrows="1" fold="1" page="1" pageScale="1" pageWidth="827" pageHeight="1169" background="#ffffff" math="0" shadow="0">
            <root>
                <mxCell id="0"/>
                <mxCell id="1" parent="0"/>
                <mxCell id="20" value="Availability Zone" style="fillColor=none;strokeColor=#147EBA;dashed=1;verticalAlign=top;fontStyle=0;fontColor=#147EBA;" parent="1" vertex="1">
                    <mxGeometry x="-130" y="204" width="510" height="470" as="geometry"/>
                </mxCell>
                <mxCell id="5" value="VPC" style="points=[[0,0],[0.25,0],[0.5,0],[0.75,0],[1,0],[1,0.25],[1,0.5],[1,0.75],[1,1],[0.75,1],[0.5,1],[0.25,1],[0,1],[0,0.75],[0,0.5],[0,0.25]];outlineConnect=0;gradientColor=none;html=1;whiteSpace=wrap;fontSize=12;fontStyle=0;shape=mxgraph.aws4.group;grIcon=mxgraph.aws4.group_vpc;strokeColor=#248814;fillColor=none;verticalAlign=top;align=left;spacingLeft=30;fontColor=#AAB7B8;dashed=0;" parent="1" vertex="1">
                    <mxGeometry x="-150" y="240" width="830" height="420" as="geometry"/>
                </mxCell>
                <mxCell id="14" value="Region" style="points=[[0,0],[0.25,0],[0.5,0],[0.75,0],[1,0],[1,0.25],[1,0.5],[1,0.75],[1,1],[0.75,1],[0.5,1],[0.25,1],[0,1],[0,0.75],[0,0.5],[0,0.25]];outlineConnect=0;gradientColor=none;html=1;whiteSpace=wrap;fontSize=12;fontStyle=0;shape=mxgraph.aws4.group;grIcon=mxgraph.aws4.group_region;strokeColor=#147EBA;fillColor=none;verticalAlign=top;align=left;spacingLeft=30;fontColor=#147EBA;dashed=1;" parent="1" vertex="1">
                    <mxGeometry x="-170" y="159" width="960" height="531" as="geometry"/>
                </mxCell>
                <mxCell id="4" value="AWS Cloud" style="outlineConnect=0;gradientColor=none;html=1;whiteSpace=wrap;fontSize=12;fontStyle=0;shape=mxgraph.aws4.group;grIcon=mxgraph.aws4.group_aws_cloud;strokeColor=#858B94;fillColor=none;verticalAlign=top;align=left;spacingLeft=30;fontColor=#858B94;dashed=0;" parent="1" vertex="1">
                    <mxGeometry x="-180" y="70" width="990" height="650" as="geometry"/>
                </mxCell>
                <mxCell id="dTFYr-RZnlFyaBtzo14d-167" value="&lt;h3&gt;&lt;font color=&quot;#cc0000&quot;&gt;設置予定&lt;/font&gt;&lt;/h3&gt;" style="rounded=1;whiteSpace=wrap;html=1;labelBackgroundColor=none;fontSize=13;strokeWidth=1;fillColor=#ffe6cc;align=center;verticalAlign=bottom;opacity=60;strokeColor=#d79b00;" vertex="1" parent="1">
                    <mxGeometry x="-120" y="275" width="250" height="345" as="geometry"/>
                </mxCell>
                <mxCell id="124" value="Jobs" style="swimlane;fontStyle=0;childLayout=stackLayout;horizontal=1;startSize=26;horizontalStack=0;resizeParent=1;resizeParentMax=0;resizeLast=0;collapsible=1;marginBottom=0;labelBackgroundColor=none;" vertex="1" parent="1">
                    <mxGeometry x="-105" y="429" width="110" height="104" as="geometry"/>
                </mxCell>
                <mxCell id="125" value="Terraform" style="text;fillColor=none;align=center;verticalAlign=top;spacingLeft=4;spacingRight=4;overflow=hidden;rotatable=0;points=[[0,0.5],[1,0.5]];portConstraint=eastwest;fontColor=#000000;perimeterSpacing=1;strokeColor=#000000;strokeWidth=1;labelBackgroundColor=none;" vertex="1" parent="124">
                    <mxGeometry y="26" width="110" height="26" as="geometry"/>
                </mxCell>
                <mxCell id="126" value="Ansible" style="text;fillColor=none;align=center;verticalAlign=top;spacingLeft=4;spacingRight=4;overflow=hidden;rotatable=0;points=[[0,0.5],[1,0.5]];portConstraint=eastwest;fontColor=#000000;strokeColor=#000000;labelBackgroundColor=none;" vertex="1" parent="124">
                    <mxGeometry y="52" width="110" height="26" as="geometry"/>
                </mxCell>
                <mxCell id="139" value="Serverspec" style="text;fillColor=none;align=center;verticalAlign=top;spacingLeft=4;spacingRight=4;overflow=hidden;rotatable=0;points=[[0,0.5],[1,0.5]];portConstraint=eastwest;fontColor=#000000;strokeColor=#000000;labelBackgroundColor=none;" vertex="1" parent="124">
                    <mxGeometry y="78" width="110" height="26" as="geometry"/>
                </mxCell>
                <mxCell id="33" value="Availability Zone" style="fillColor=none;strokeColor=#147EBA;dashed=1;verticalAlign=top;fontStyle=0;fontColor=#147EBA;" parent="1" vertex="1">
                    <mxGeometry x="410" y="200" width="280" height="470" as="geometry"/>
                </mxCell>
                <mxCell id="15" value="Public subnet" style="points=[[0,0],[0.25,0],[0.5,0],[0.75,0],[1,0],[1,0.25],[1,0.5],[1,0.75],[1,1],[0.75,1],[0.5,1],[0.25,1],[0,1],[0,0.75],[0,0.5],[0,0.25]];outlineConnect=0;gradientColor=none;html=1;whiteSpace=wrap;fontSize=12;fontStyle=0;shape=mxgraph.aws4.group;grIcon=mxgraph.aws4.group_security_group;grStroke=0;strokeColor=#248814;fillColor=#E9F3E6;verticalAlign=top;align=left;spacingLeft=30;fontColor=#248814;dashed=0;" parent="1" vertex="1">
                    <mxGeometry x="140" y="338" width="210" height="145" as="geometry"/>
                </mxCell>
                <mxCell id="34" value="Public subnet" style="points=[[0,0],[0.25,0],[0.5,0],[0.75,0],[1,0],[1,0.25],[1,0.5],[1,0.75],[1,1],[0.75,1],[0.5,1],[0.25,1],[0,1],[0,0.75],[0,0.5],[0,0.25]];outlineConnect=0;gradientColor=none;html=1;whiteSpace=wrap;fontSize=12;fontStyle=0;shape=mxgraph.aws4.group;grIcon=mxgraph.aws4.group_security_group;grStroke=0;strokeColor=#248814;fillColor=#E9F3E6;verticalAlign=top;align=left;spacingLeft=30;fontColor=#248814;dashed=0;" parent="1" vertex="1">
                    <mxGeometry x="440" y="335.5" width="210" height="145" as="geometry"/>
                </mxCell>
                <mxCell id="97" value="Auto Scaling group" style="points=[[0,0],[0.25,0],[0.5,0],[0.75,0],[1,0],[1,0.25],[1,0.5],[1,0.75],[1,1],[0.75,1],[0.5,1],[0.25,1],[0,1],[0,0.75],[0,0.5],[0,0.25]];outlineConnect=0;gradientColor=none;html=1;whiteSpace=wrap;fontSize=12;fontStyle=0;shape=mxgraph.aws4.groupCenter;grIcon=mxgraph.aws4.group_auto_scaling_group;grStroke=1;strokeColor=#D86613;fillColor=none;verticalAlign=top;align=center;fontColor=#D86613;dashed=1;spacingTop=25;rotation=0;" parent="1" vertex="1">
                    <mxGeometry x="194.5" y="378" width="407" height="85" as="geometry"/>
                </mxCell>
                <mxCell id="6" value="" style="outlineConnect=0;dashed=0;verticalLabelPosition=bottom;verticalAlign=top;align=center;html=1;shape=mxgraph.aws3.user;fillColor=#D2D3D3;gradientColor=none;" parent="1" vertex="1">
                    <mxGeometry x="-261" y="225" width="38" height="50" as="geometry"/>
                </mxCell>
                <mxCell id="8" value="" style="pointerEvents=1;shadow=0;dashed=0;html=1;strokeColor=none;fillColor=#DF8C42;labelPosition=center;verticalLabelPosition=bottom;verticalAlign=top;align=center;outlineConnect=0;shape=mxgraph.veeam2.aws_s3;" parent="1" vertex="1">
                    <mxGeometry x="710" y="350" width="60" height="60" as="geometry"/>
                </mxCell>
                <mxCell id="71" value="" style="edgeStyle=orthogonalEdgeStyle;rounded=0;orthogonalLoop=1;jettySize=auto;html=1;" parent="1" source="11" target="13" edge="1">
                    <mxGeometry relative="1" as="geometry"/>
                </mxCell>
                <mxCell id="82" value="" style="edgeStyle=orthogonalEdgeStyle;rounded=0;orthogonalLoop=1;jettySize=auto;html=1;" parent="1" source="11" edge="1">
                    <mxGeometry relative="1" as="geometry">
                        <mxPoint x="380" y="300" as="targetPoint"/>
                    </mxGeometry>
                </mxCell>
                <mxCell id="11" value="" style="outlineConnect=0;fontColor=#232F3E;gradientColor=none;fillColor=#5A30B5;strokeColor=none;dashed=0;verticalLabelPosition=bottom;verticalAlign=top;align=center;html=1;fontSize=12;fontStyle=0;aspect=fixed;pointerEvents=1;shape=mxgraph.aws4.internet_gateway;" parent="1" vertex="1">
                    <mxGeometry x="368" y="210" width="60" height="60" as="geometry"/>
                </mxCell>
                <mxCell id="12" value="" style="points=[[0,0,0],[0.25,0,0],[0.5,0,0],[0.75,0,0],[1,0,0],[0,1,0],[0.25,1,0],[0.5,1,0],[0.75,1,0],[1,1,0],[0,0.25,0],[0,0.5,0],[0,0.75,0],[1,0.25,0],[1,0.5,0],[1,0.75,0]];outlineConnect=0;fontColor=#232F3E;gradientColor=#945DF2;gradientDirection=north;fillColor=#5A30B5;strokeColor=#ffffff;dashed=0;verticalLabelPosition=bottom;verticalAlign=top;align=center;html=1;fontSize=12;fontStyle=0;aspect=fixed;shape=mxgraph.aws4.resourceIcon;resIcon=mxgraph.aws4.route_53;labelBackgroundColor=none;" parent="1" vertex="1">
                    <mxGeometry x="60" y="85" width="60" height="60" as="geometry"/>
                </mxCell>
                <mxCell id="13" value="" style="points=[[0,0,0],[0.25,0,0],[0.5,0,0],[0.75,0,0],[1,0,0],[0,1,0],[0.25,1,0],[0.5,1,0],[0.75,1,0],[1,1,0],[0,0.25,0],[0,0.5,0],[0,0.75,0],[1,0.25,0],[1,0.5,0],[1,0.75,0]];outlineConnect=0;fontColor=#232F3E;gradientColor=#945DF2;gradientDirection=north;fillColor=#5A30B5;strokeColor=#ffffff;dashed=0;verticalLabelPosition=bottom;verticalAlign=top;align=center;html=1;fontSize=12;fontStyle=0;aspect=fixed;shape=mxgraph.aws4.resourceIcon;resIcon=mxgraph.aws4.cloudfront;" parent="1" vertex="1">
                    <mxGeometry x="368" y="80" width="60" height="60" as="geometry"/>
                </mxCell>
                <mxCell id="17" value="Private subnet" style="points=[[0,0],[0.25,0],[0.5,0],[0.75,0],[1,0],[1,0.25],[1,0.5],[1,0.75],[1,1],[0.75,1],[0.5,1],[0.25,1],[0,1],[0,0.75],[0,0.5],[0,0.25]];outlineConnect=0;gradientColor=none;html=1;whiteSpace=wrap;fontSize=12;fontStyle=0;shape=mxgraph.aws4.group;grIcon=mxgraph.aws4.group_security_group;grStroke=0;strokeColor=#147EBA;fillColor=#E6F2F8;verticalAlign=top;align=left;spacingLeft=30;fontColor=#147EBA;dashed=0;" parent="1" vertex="1">
                    <mxGeometry x="140" y="503" width="210" height="132" as="geometry"/>
                </mxCell>
                <mxCell id="22" value="" style="points=[[0,0,0],[0.25,0,0],[0.5,0,0],[0.75,0,0],[1,0,0],[0,1,0],[0.25,1,0],[0.5,1,0],[0.75,1,0],[1,1,0],[0,0.25,0],[0,0.5,0],[0,0.75,0],[1,0.25,0],[1,0.5,0],[1,0.75,0]];outlineConnect=0;fontColor=#232F3E;gradientColor=#4D72F3;gradientDirection=north;fillColor=#3334B9;strokeColor=#ffffff;dashed=0;verticalLabelPosition=bottom;verticalAlign=top;align=center;html=1;fontSize=12;fontStyle=0;aspect=fixed;shape=mxgraph.aws4.resourceIcon;resIcon=mxgraph.aws4.rds;" parent="1" vertex="1">
                    <mxGeometry x="220" y="538" width="60" height="62" as="geometry"/>
                </mxCell>
                <mxCell id="24" value="" style="points=[[0,0,0],[0.25,0,0],[0.5,0,0],[0.75,0,0],[1,0,0],[0,1,0],[0.25,1,0],[0.5,1,0],[0.75,1,0],[1,1,0],[0,0.25,0],[0,0.5,0],[0,0.75,0],[1,0.25,0],[1,0.5,0],[1,0.75,0]];outlineConnect=0;fontColor=#232F3E;gradientColor=#F78E04;gradientDirection=north;fillColor=#D05C17;strokeColor=#ffffff;dashed=0;verticalLabelPosition=bottom;verticalAlign=top;align=center;html=1;fontSize=12;fontStyle=0;aspect=fixed;shape=mxgraph.aws4.resourceIcon;resIcon=mxgraph.aws4.ec2;" parent="1" vertex="1">
                    <mxGeometry x="220" y="391" width="60" height="60" as="geometry"/>
                </mxCell>
                <mxCell id="32" value="" style="pointerEvents=1;shadow=0;dashed=0;html=1;strokeColor=none;fillColor=#DF8C42;labelPosition=center;verticalLabelPosition=bottom;verticalAlign=top;align=center;outlineConnect=0;shape=mxgraph.veeam2.aws_s3;" parent="1" vertex="1">
                    <mxGeometry x="710" y="170" width="60" height="60" as="geometry"/>
                </mxCell>
                <mxCell id="35" value="Private subnet" style="points=[[0,0],[0.25,0],[0.5,0],[0.75,0],[1,0],[1,0.25],[1,0.5],[1,0.75],[1,1],[0.75,1],[0.5,1],[0.25,1],[0,1],[0,0.75],[0,0.5],[0,0.25]];outlineConnect=0;gradientColor=none;html=1;whiteSpace=wrap;fontSize=12;fontStyle=0;shape=mxgraph.aws4.group;grIcon=mxgraph.aws4.group_security_group;grStroke=0;strokeColor=#147EBA;fillColor=#E6F2F8;verticalAlign=top;align=left;spacingLeft=30;fontColor=#147EBA;dashed=0;" parent="1" vertex="1">
                    <mxGeometry x="440" y="503" width="210" height="132" as="geometry"/>
                </mxCell>
                <mxCell id="36" value="" style="points=[[0,0,0],[0.25,0,0],[0.5,0,0],[0.75,0,0],[1,0,0],[0,1,0],[0.25,1,0],[0.5,1,0],[0.75,1,0],[1,1,0],[0,0.25,0],[0,0.5,0],[0,0.75,0],[1,0.25,0],[1,0.5,0],[1,0.75,0]];outlineConnect=0;fontColor=#232F3E;gradientColor=#4D72F3;gradientDirection=north;fillColor=#3334B9;strokeColor=#ffffff;dashed=0;verticalLabelPosition=bottom;verticalAlign=top;align=center;html=1;fontSize=12;fontStyle=0;aspect=fixed;shape=mxgraph.aws4.resourceIcon;resIcon=mxgraph.aws4.rds;" parent="1" vertex="1">
                    <mxGeometry x="520" y="538" width="60" height="62" as="geometry"/>
                </mxCell>
                <mxCell id="37" value="" style="points=[[0,0,0],[0.25,0,0],[0.5,0,0],[0.75,0,0],[1,0,0],[0,1,0],[0.25,1,0],[0.5,1,0],[0.75,1,0],[1,1,0],[0,0.25,0],[0,0.5,0],[0,0.75,0],[1,0.25,0],[1,0.5,0],[1,0.75,0]];outlineConnect=0;fontColor=#232F3E;gradientColor=#F78E04;gradientDirection=north;fillColor=#D05C17;strokeColor=#ffffff;dashed=0;verticalLabelPosition=bottom;verticalAlign=top;align=center;html=1;fontSize=12;fontStyle=0;aspect=fixed;shape=mxgraph.aws4.resourceIcon;resIcon=mxgraph.aws4.ec2;" parent="1" vertex="1">
                    <mxGeometry x="520" y="391" width="60" height="60" as="geometry"/>
                </mxCell>
                <mxCell id="42" value="" style="edgeStyle=orthogonalEdgeStyle;html=1;endArrow=none;elbow=vertical;startArrow=block;startFill=1;strokeColor=#545B64;rounded=0;exitX=0;exitY=0.5;exitDx=0;exitDy=0;exitPerimeter=0;" parent="1" source="13" target="12" edge="1">
                    <mxGeometry width="100" relative="1" as="geometry">
                        <mxPoint x="390" y="50" as="sourcePoint"/>
                        <mxPoint x="520" y="50" as="targetPoint"/>
                        <Array as="points">
                            <mxPoint x="320" y="110"/>
                            <mxPoint x="320" y="110"/>
                        </Array>
                    </mxGeometry>
                </mxCell>
                <mxCell id="48" value="" style="edgeStyle=orthogonalEdgeStyle;html=1;endArrow=none;elbow=vertical;startArrow=block;startFill=1;strokeColor=#545B64;rounded=0;entryX=0.5;entryY=1;entryDx=0;entryDy=0;entryPerimeter=0;" parent="1" source="11" target="13" edge="1">
                    <mxGeometry width="100" relative="1" as="geometry">
                        <mxPoint x="314" y="180" as="sourcePoint"/>
                        <mxPoint x="414" y="180" as="targetPoint"/>
                    </mxGeometry>
                </mxCell>
                <mxCell id="52" value="" style="edgeStyle=orthogonalEdgeStyle;html=1;endArrow=none;elbow=vertical;startArrow=block;startFill=1;strokeColor=#545B64;rounded=0;exitX=0.5;exitY=0;exitDx=0;exitDy=0;exitPerimeter=0;" parent="1" source="24" edge="1">
                    <mxGeometry width="100" relative="1" as="geometry">
                        <mxPoint x="220" y="320" as="sourcePoint"/>
                        <mxPoint x="368" y="310" as="targetPoint"/>
                        <Array as="points">
                            <mxPoint x="250" y="310"/>
                            <mxPoint x="368" y="310"/>
                        </Array>
                    </mxGeometry>
                </mxCell>
                <mxCell id="54" value="" style="edgeStyle=orthogonalEdgeStyle;html=1;endArrow=none;elbow=vertical;startArrow=block;startFill=1;strokeColor=#545B64;rounded=0;entryX=0.5;entryY=1;entryDx=0;entryDy=0;entryPerimeter=0;exitX=0.5;exitY=0;exitDx=0;exitDy=0;exitPerimeter=0;" parent="1" source="22" target="24" edge="1">
                    <mxGeometry width="100" relative="1" as="geometry">
                        <mxPoint x="150" y="409.5" as="sourcePoint"/>
                        <mxPoint x="250" y="409.5" as="targetPoint"/>
                    </mxGeometry>
                </mxCell>
                <mxCell id="59" value="" style="edgeStyle=orthogonalEdgeStyle;html=1;endArrow=block;elbow=vertical;startArrow=none;endFill=1;strokeColor=#545B64;rounded=0;entryX=0.5;entryY=0;entryDx=0;entryDy=0;entryPerimeter=0;" parent="1" target="37" edge="1">
                    <mxGeometry width="100" relative="1" as="geometry">
                        <mxPoint x="430" y="310" as="sourcePoint"/>
                        <mxPoint x="527" y="320" as="targetPoint"/>
                    </mxGeometry>
                </mxCell>
                <mxCell id="63" value="" style="edgeStyle=orthogonalEdgeStyle;html=1;endArrow=block;elbow=vertical;startArrow=none;endFill=1;strokeColor=#545B64;rounded=0;exitX=1;exitY=0.5;exitDx=0;exitDy=0;exitPerimeter=0;entryX=0;entryY=0.5;entryDx=0;entryDy=0;entryPerimeter=0;" parent="1" source="22" target="36" edge="1">
                    <mxGeometry width="100" relative="1" as="geometry">
                        <mxPoint x="420" y="525.5" as="sourcePoint"/>
                        <mxPoint x="520" y="525.5" as="targetPoint"/>
                        <Array as="points">
                            <mxPoint x="490" y="569"/>
                            <mxPoint x="490" y="569"/>
                        </Array>
                    </mxGeometry>
                </mxCell>
                <mxCell id="69" value="" style="edgeStyle=orthogonalEdgeStyle;html=1;endArrow=block;elbow=vertical;startArrow=block;startFill=1;endFill=1;strokeColor=#545B64;rounded=0;exitX=0.5;exitY=0;exitDx=0;exitDy=0;exitPerimeter=0;" parent="1" source="12" edge="1">
                    <mxGeometry width="100" relative="1" as="geometry">
                        <mxPoint x="300" y="40" as="sourcePoint"/>
                        <mxPoint x="520" y="40" as="targetPoint"/>
                        <Array as="points">
                            <mxPoint x="90" y="40"/>
                        </Array>
                    </mxGeometry>
                </mxCell>
                <mxCell id="75" value="" style="edgeStyle=orthogonalEdgeStyle;html=1;endArrow=none;elbow=vertical;startArrow=block;startFill=1;strokeColor=#545B64;rounded=0;entryX=0.5;entryY=1;entryDx=0;entryDy=0;entryPerimeter=0;" parent="1" edge="1">
                    <mxGeometry width="100" relative="1" as="geometry">
                        <mxPoint x="398" y="290" as="sourcePoint"/>
                        <mxPoint x="398" y="271" as="targetPoint"/>
                    </mxGeometry>
                </mxCell>
                <mxCell id="78" value="&lt;p style=&quot;line-height: 40%&quot;&gt;&lt;/p&gt;&lt;pre style=&quot;font-size: 11px&quot;&gt;&lt;b&gt;&lt;font style=&quot;font-size: 11px&quot;&gt;Private Bucekt&lt;/font&gt;&lt;/b&gt;&lt;/pre&gt;&lt;pre style=&quot;font-size: 11px&quot;&gt;&lt;b&gt;&lt;font style=&quot;font-size: 11px&quot;&gt;Souce Cord&lt;/font&gt;&lt;/b&gt;&lt;/pre&gt;&lt;p&gt;&lt;/p&gt;" style="text;html=1;resizable=0;autosize=1;align=left;verticalAlign=middle;points=[];fillColor=none;strokeColor=none;rounded=0;fontColor=#000000;" parent="1" vertex="1">
                    <mxGeometry x="700" y="404" width="100" height="70" as="geometry"/>
                </mxCell>
                <mxCell id="83" value="&lt;p style=&quot;line-height: 40%&quot;&gt;&lt;/p&gt;&lt;pre style=&quot;font-size: 11px&quot;&gt;&lt;b&gt;&lt;font style=&quot;font-size: 11px&quot;&gt;Public Bucekt&lt;/font&gt;&lt;/b&gt;&lt;/pre&gt;&lt;pre style=&quot;font-size: 11px&quot;&gt;&lt;b&gt;Static page, images&lt;/b&gt;&lt;/pre&gt;&lt;p&gt;&lt;/p&gt;" style="text;html=1;resizable=0;autosize=1;align=left;verticalAlign=middle;points=[];fillColor=none;strokeColor=none;rounded=0;fontColor=#000000;" parent="1" vertex="1">
                    <mxGeometry x="690" y="230" width="130" height="70" as="geometry"/>
                </mxCell>
                <mxCell id="87" value="" style="edgeStyle=orthogonalEdgeStyle;html=1;endArrow=none;elbow=vertical;startArrow=block;startFill=1;strokeColor=#545B64;rounded=0;fontColor=#000000;verticalAlign=bottom;" parent="1" source="112" target="13" edge="1">
                    <mxGeometry width="100" relative="1" as="geometry">
                        <mxPoint x="430" y="110" as="sourcePoint"/>
                        <mxPoint x="660" y="40" as="targetPoint"/>
                        <Array as="points">
                            <mxPoint x="398" y="50"/>
                        </Array>
                    </mxGeometry>
                </mxCell>
                <mxCell id="88" value="" style="edgeStyle=orthogonalEdgeStyle;html=1;endArrow=none;elbow=vertical;startArrow=block;startFill=1;strokeColor=#545B64;rounded=0;fontColor=#000000;verticalAlign=bottom;" parent="1" target="8" edge="1">
                    <mxGeometry width="100" relative="1" as="geometry">
                        <mxPoint x="399" y="460" as="sourcePoint"/>
                        <mxPoint x="630" y="438.5" as="targetPoint"/>
                        <Array as="points">
                            <mxPoint x="399" y="500"/>
                            <mxPoint x="660" y="500"/>
                            <mxPoint x="660" y="380"/>
                        </Array>
                    </mxGeometry>
                </mxCell>
                <mxCell id="30" value="&lt;div style=&quot;text-align: justify&quot;&gt;&lt;br&gt;&lt;/div&gt;" style="points=[[0,0,0],[0.25,0,0],[0.5,0,0],[0.75,0,0],[1,0,0],[0,1,0],[0.25,1,0],[0.5,1,0],[0.75,1,0],[1,1,0],[0,0.25,0],[0,0.5,0],[0,0.75,0],[1,0.25,0],[1,0.5,0],[1,0.75,0]];outlineConnect=0;fontColor=#232F3E;gradientColor=#F78E04;gradientDirection=north;fillColor=#D05C17;strokeColor=#ffffff;dashed=0;verticalLabelPosition=bottom;verticalAlign=top;align=right;html=1;fontSize=12;fontStyle=0;aspect=fixed;shape=mxgraph.aws4.resourceIcon;resIcon=mxgraph.aws4.elastic_load_balancing;rotation=-180;direction=north;" parent="1" vertex="1">
                    <mxGeometry x="368" y="290" width="60" height="60" as="geometry"/>
                </mxCell>
                <mxCell id="102" value="" style="points=[[0,0,0],[0.25,0,0],[0.5,0,0],[0.75,0,0],[1,0,0],[0,1,0],[0.25,1,0],[0.5,1,0],[0.75,1,0],[1,1,0],[0,0.25,0],[0,0.5,0],[0,0.75,0],[1,0.25,0],[1,0.5,0],[1,0.75,0]];outlineConnect=0;fontColor=#232F3E;gradientColor=#F54749;gradientDirection=north;fillColor=#C7131F;strokeColor=#ffffff;dashed=0;verticalLabelPosition=bottom;verticalAlign=top;align=center;html=1;fontSize=12;fontStyle=0;aspect=fixed;shape=mxgraph.aws4.resourceIcon;resIcon=mxgraph.aws4.certificate_manager_3;labelBackgroundColor=none;" parent="1" vertex="1">
                    <mxGeometry x="-54.25" y="90" width="50" height="50" as="geometry"/>
                </mxCell>
                <mxCell id="107" value="" style="edgeStyle=orthogonalEdgeStyle;html=1;endArrow=block;elbow=vertical;startArrow=block;startFill=1;endFill=1;strokeColor=#545B64;rounded=0;" parent="1" edge="1">
                    <mxGeometry width="100" relative="1" as="geometry">
                        <mxPoint x="428" y="109.5" as="sourcePoint"/>
                        <mxPoint x="740" y="170" as="targetPoint"/>
                    </mxGeometry>
                </mxCell>
                <mxCell id="111" value="" style="dashed=0;outlineConnect=0;html=1;align=center;labelPosition=center;verticalLabelPosition=bottom;verticalAlign=top;shape=mxgraph.weblogos.github" vertex="1" parent="1">
                    <mxGeometry x="-267.12" y="338" width="50.25" height="47.5" as="geometry"/>
                </mxCell>
                <mxCell id="112" value="User" style="outlineConnect=0;fontColor=#232F3E;gradientColor=none;strokeColor=#232F3E;fillColor=#ffffff;dashed=0;verticalLabelPosition=bottom;verticalAlign=top;align=center;html=1;fontSize=12;fontStyle=0;aspect=fixed;shape=mxgraph.aws4.resourceIcon;resIcon=mxgraph.aws4.user;" vertex="1" parent="1">
                    <mxGeometry x="520" y="10" width="60" height="60" as="geometry"/>
                </mxCell>
                <mxCell id="115" value="Jenkins Server" style="points=[[0,0],[0.25,0],[0.5,0],[0.75,0],[1,0],[1,0.25],[1,0.5],[1,0.75],[1,1],[0.75,1],[0.5,1],[0.25,1],[0,1],[0,0.75],[0,0.5],[0,0.25]];outlineConnect=0;gradientColor=none;html=1;fontSize=12;fontStyle=0;shape=mxgraph.aws4.group;grIcon=mxgraph.aws4.group_ec2_instance_contents;strokeColor=#D86613;fillColor=none;verticalAlign=top;align=left;spacingLeft=30;fontColor=#D86613;dashed=0;labelBackgroundColor=none;" vertex="1" parent="1">
                    <mxGeometry x="-115" y="315" width="130" height="225" as="geometry"/>
                </mxCell>
                <mxCell id="117" value="" style="shape=image;verticalLabelPosition=bottom;labelBackgroundColor=none;verticalAlign=top;aspect=fixed;imageAspect=0;image=data:image/png,iVBORw0KGgoAAAANSUhEUgAAAXkAAAIICAYAAACLlZ7EAAAgAElEQVR4XuxdB3hT1Rf/vSTdlJaWMkuTDlmifxEEFdnDgaIiQwRElggCskGRvRVEQDayBQFRpuy9N8iGjqTs0tI9M97/OymFpk3yRpI2Le/48aHm3HPPPffl5L5zz/kdBhJJFngxLcAEBQX5ymSysgqgLAxMGYOMLc2wTAmGYT1ZlvViwJRgGXgxLOPFgvUCCwYMDABjYGBgWYYxgKX/BssA6QASwSCJZdlksLIkyNhkGStLNkAfL2eY+waF4n54eHjSi2luadWFZQGmsCaW5pUs4GgLhIWFBej1+mAZy4YwLBvCAlUBJhRABQDlAbg5Wgcz8snJ3wEQDRbRjAwaGJhwvRy3vNPSwv979Ci1EHSSpizGFpCcfDHe3BdlaYGBgR7ucnk1sLLqLNjaYFAHQHUAPkXMBiyAKAAXWRaXZHLmBmMwXL6t0dygt4UithZJXSexgOTknWQjJDX4WyAkJKQyYzC8zhpQl2HYBgDzGgAZfwlFi5MFmwaG2ccYsJcx4JKCdb9y496NuKK1CknbwrKA5OQLy/LSvHwtwISGhgYyWsNrYPAuC7YNKIYu0XWAWQNWf0Avk51Tq9UZkkkkC5izgOTkpefCGS0gf0mleoUF3mdZthvAhDmjkk6jE8vqGAabDMCfBoYhh6+RwjtOszuFrojk5At9CyQFyAK1atVySYqLe9nAMh8BbD8AAZJlxFqAvQqZ7CcmK2t/+L17d8VKkcYVDwtITr547GNRXYUsJCQkjNHr2wHMYAC+RXUhTqz3IYCdpmXZk9HR0fFOrKekmoMsIDl5BxlWEmvZAsbUxqyshgwjm8AY0xolKgALsCyYP2Ssfkp4dDRl61B+v0QvgAUkJ/8CbLIzLJHSHN1ksuqAbBQYfOwMOr3AOvwHVt6HcWXOhoeHZ77Adnghli45+RdimwttkbLQ0NCKrF7flWExAoBHoWkiTWzOAnEGlvnG1cN1182bN5MlExVPC0hOvnjua6GuSqVS+cqBRjBgNhhUKlRlRE4ul8vh6uoCuUwGuVwG2dO/6b9ZFmBZloANjH/TH71eD61WB61OB51OL3LWQhuWARnTS8+y66VUzELbA4dNLDl5h5n2hRPMKJXKcgqWWQAGrYrC6slxe7i7wcvLA5VDlKheLRQ1qobi5aphKBvgJ3oJmZlZuPvgESLV93Dh8g2cv3QNj2KeIDMrC5lZWmRlaY0/DE5IiWDlLSOiI04CKHK/VE5oT6dQSXLyTrENRVeJ56mP7DaAqejMK6FTuKenB96o+TJavd8IDevVgotCUeAqp6Sk4cDRM9i1/zguXrmZ7fgzs6A3OMddKAPcYxXytyIiIghjR6IibgHJyRfxDSws9atXr+6anpraWcZiARim4D0lz4VT2MXbyxNdO36MTu0+hJurC8+RBctmMBhw6Ng5rFq/DZev3UaWVmcMARUqsTjiVsKz2bVr17IKVQ9pcpssIDl5m8z3Qg6WhQSp+jEMZgJw2ueHnHuPzp+iT/f2xrh6UaRb4Rr8umA1jp2+VIgOn9VpWfa16Ojoq0XRhpLOTvwllTbH+SwQqlJ9DhZrnNm5e5fwxPzpP+J/NSqDYZz2N0jQ5lL4Xq/X4bfFf+L3PzYVTjyfwYEItbqpBJcgaOucgrl4fAucwpTFV4mQkJBmjN6wrZDw13kZNqB0KaxZOAXlypYuNs7d3MLpwpayePYeOoVps5ch7kkCL/vYiSlLxrpUux19O9JO8iQxBWAByckXgJGL6hQvKV+qpof2GAOUctY1eJfwwtpFU6AMqlCsnbsl+2dkZiFCfQc/zVqOc5euFcQ2sWAxIiJa/VNBTCbNYbsFJCdvuw2LnYTKFSqU1itc94NBDWcNzbi5uWL1/Emo8pLKmMMuEZCalm484U+Z+TtSUtMcaxIWRyqFqJocPHhQ59iJJOm2WkBy8rZasBiNJ+gBV7l8JQOGYAecMg2FHPqy38bjtRqVQZerEuW3gE6vx8OYOEyfs9zo9B1IjzL1uup379594sA5JNE2WkBy8jYasJgMl4Uqg8cC7AAA3vZaU0BAADp17gilUonFi5fg6hXxCRrk3McM74WP3m0IVxen/P2xl9nsKicpORXHT13ElFlLHRS/Z1IYGBqGazTn7aq4JMxuFpCcvN1MWTQFhVZSfQ6ZMR2ynD1WEBgYiM5fdsIrr7wCPz+/Z3FyyvlesXwF1q1bL2gaSpBp+3EL9P/6C/j62O33R5AOxYGZTvd37j3EnEVrsfvACXsvScuC7RCp0Wy0t2BJnu0WkJy87TYskhJCKoW8wcgMKwBUs3UBoaGh+KLjF6hatQr8/f0tXoBeuHARI4YTThk/ojTIqaO/Q6WKdvn94TfpC8B19/4jzJy/2lhxa0diGbA/hms0k+0oUxJlBwtITt4ORixKIsLCwgJZrXYZwDQGIDqoTfHw7j26oUGDBqCwDB+aOmUaDhw4wMlaprQfZkwcjJqvFF+oedagJ5Qz4x+WoN2Nfz/9byOuDf1hjP9kl5xl/5393wwYRgbI5Nl/iyTNnQeYvWiNXZ09CyyL1Kh7SHj1IjfFAcMkJ+8AozqjyAoVKnh6urjOYYEOtkD+0mm9W/duqF69Olx4xsYzMzMxaeJknDpl/RKQcGSG9O2Cdp+0gIuL0yIlWN5ectQGPQwGLVi9zvjvuZ23yb/b8yEhp//U+YORGd+kGJkCMrnC+DdjvKC2/FWP1Nw1FlrZK4zDsNijk6GVhGhpz00WL0ty8uJtV2RGhiqVIwEMBBh/MUorFAp82vpTtGjRHEFBQbxFHDt6DFu3bsP169eRkZFhdVydWq9g/IjeCKxQlrf8QmEkiGE9OXEtDAYdYDCAZbP/GE/mTkrM01M/I3eBjP4oXI1vBLkpPPIO5i1dZy9nf9wtLfXda48fpzipSV4YtSQnX4y3OkSp/IBhmV/B4CUxy/T19cU3vXuhbt268PT05C0iOjoa34/4AbGxsZxjSnp7Ycywb9Ci8VtOV8xEp3Fy6PQHBr3xZG505sWEjI5froBM4Qa5ws3o9Ol36vx/1zF09C+IibU1M5I9q2eY5mq1ukDLcovJ9thtGZKTt5spnUdQSEhIEKM3zAfwHgDBQVvKiunZswcaNGwAOsULIY1Gg8GDhiA5mbvRUOuPmmJAr47wK+UjZAqH8BrDLLpMGHRasIanoRaHzOS8Qo0hHoUL5C4e0OpZLFn1N+YtFZYNlW91DC5DLm8WERER47wrL96aSU6+eO2vPFQZPA1gvwXgLnRp/v5+6Nq1Kxo1biw4Jh4fn4DDh49g6e+/c4ZmggLLY9yI3kZc98IicuQGbebT0IuuWJ3Q7WFTOuXTCf+25gFGjP8NEeq7toi9ybgomoWHh9skxBYFXuSxkpMvJrsfolR2ZMAQnkgFoUsqXbo0OnXuhGbNmvK+TKU5CCzrxs1buHr1Gs6cPoPL/3FD4tKl6uBvv4SXZ0G3e2Vh0GbBoM85rRcyVrvQTSpEfpaRY8Kvq7B55xHRWjBAlI5BE7VarRYtRBooygKSkxdlNucZFBwcXFZmMKwGmGZCtfLx8UGXr75EixaUzcK/ilSn0+H0mbO4fPkKMjIyceXyZdyJ1liFwPUpWQLjRvRBs4Z1happE79BlwW9NsMYinHmi1GbFllAg9duPoAZCzfYAnUcwbgoGkkn+gLasKfTSE6+YO1t19nClMruLJjfhIZmCCKgZcsP0OWrLvD25l9FmpmRibPnzuPCxewTe2ZGBk6fPoXkpCSr63qz9quY9GNflA0Qldwj2GYUitFnZcCgzZDCMIKtZ33AmYs3MWDsPBD6pShicMuVZRtd12geiBovDRJsAcnJCzZZ4Q+oWrGiv1bhugJgWwrVpmrVqvi277eoXJl/wk1qahrOn7+Ai5f+A7WpI3r08CEunD8PA+WCWyCFXI5+X3dA1y8+LhCkSDqt67PSQad3iRxngdgnifii72TExVv/cbeiwbWnJ/rHjtNSkpxjAcnJF61ngQlVqdqDBcERuApR3Ria6fIlPmj5Ae9URSpiOnPmHM6dv2Ay1Y3r1xAZEWF1+mBlRfw0diCqVQ4WoqZwXpaFXptudO7G4iOJCsQCSSlpRkf/4FGcuPkYXHbX6RpdlRAsxdlPwCjJyQswVmGyqlQqXxnLLGbAthGiB4VmmjZril69vuYdmqFQzNVr13HkyDFQ/D2H6KL17JkzeBzzyKoKTRvUxdQx38HD3U2IqsJ4yblnpUOXmSp1pBNmObtxp2dkolO/KVDftf48WJqQBS66uLs1uHnzJne+rd20fvEESU6+COx5aFBQLTCyfQAEJZQHBlbE8OHDUblKZV6rJCeuVmtw6PARJCaavopTmObkieNIiI+3KqtH59ZGxEiZzFGPFjn3DOgyqJDSeStMeRm8GDBlaXXoMmAabkWKzY5kjvqW9mty7tw5bTEwh1MuwVHfRKdcbBFUShYWFNyRZdiVQnVv1KghBg0eBDc3fqdpcur79u/HnTv38k1Fp/njR48gJcVyhTphzUwZ/R3ea/K2UFV58xt0GdCmJ0tZMrwtVjCM9ObXvs8kREWLvkv9J0Kj/kz61XbMfklO3jF2tVlq9erVXbNS0qaxDKiRB2/y8PBA/+/6o0kTApnkJmNo5uo1HDx0xGxqHGsw4MTx40hIsHyCp4pV6tYUqgrknlAEB+HEaDOSjaBfEjmnBdLSM9H2m/F4GCMOCoEFMzdSE9XXOVdXtLWSnLwT7l82YqTbShYsnW54kypYhalTpqCUH7++21SlunPXbsTEWE5yCL99C7du3rSoQ2hwJaxZOAVeXg4obmJZo3OnVEiJnN8ClHXzeZ+JiE8Ui0nGDo3QaKY7/0qLloaSk3ey/aILVjmLHQDe5KsaQct+8MH76NuvL69URYqvUzokXaxao6TERBw9ctgiy9t1X8P8n39wSK9VSoPUpidKoRm+D4GT8FHIpsvAn5CaJuqH2SAD2+621GHKrrspOXm7mtM2YUYHD5wGyx810svLCxMmTsDLL1fnNTlB/u7YsRvRd+5Y5acwzoF9e5GVZT7nvEXjtzFjwiDe6Zi8lDNCJRigS0/OrlCVqEha4NSF6/hu9Dxoc2VmCVhIFgzyWhF3Iq4IGCOxWrGA5OSd5PGoHhBQItPL6xhYvMpXJWq19/vSJaA4PB+KiYnBP5u2cgKIkazI8HDcuHHdrNimDeti1uRhfKYUxEOQvtq0BOn0Lshqzsm8YsNuzFm2SSwEQiLjoggKDw8XXW3lnFYpHK0kJ184djeZNTAw0MNdrtjPCgjRVKpUCYsWL+QVnqHUyAsXLuHIUevhmRyl0tLScHA/ZWzmpyYN6mL2FHs7eBb6zLSnOe9OsCGSCnaxwKifl+Pf/da7gVmaiAU0kRp1KACpws3G3ZCcvI0GtMNweahS9ReAT/jKeuON2pg4aSIvdr3egN279+LW7du8+OkH4cypk2YbfjSpXwezpw7nJYc3E8siKzXeiOEuUfGzQKf+U3D9drSohTFgt4VrNB+JGiwNemYByckX8sMQplKNZVmM4atGkyZNMHwEv5M05bev3/A3Hj/mDxESFxeHUyeO51OnSYM6mD3Fvg6eYAi0qU/EvtLzNZnEV4gWSElNR6uuo5CYTJXJwskAtmeURrNE+EhpRI4FJCdfiM/CS8qQzwww0CmeFxFyJOXA8yG6YF21eg3S0tL5sBt5KOtm357d0GpNiw8JpmCWnUM0xvh7qvXqWd6KS4xObQE6yXcZOA30VimCDNBmqSLu37eeKSBC8IsyRHLyhbTTwcHBSpmBjeTbnq9N2zbGlnx8KD09HcuWr8rnrLnGRkVG4vq1qyZstV6rjhVzJ3ANFfR5NiyBdKcmyGhFnHnL7uMYN3OV2FVoIzRqKt2WcCxEWFBy8iKMZo8hoUoVxUTe4iOLmnoMHjKIDytSU1OxfMVqE2AxPgPT09JwIM9la8XyZbDrL2oVaz/SZaYYL1klerEsQO0Ef1n8F1b/tVvswk9GaNS8vi9iJyiu4yQnXwg7G6pUDkV2qz5Oql27NiZN5nfJmpSUhJWr1hgbegilE8ePIf7J85J06uR0eNsyyOWC+4BbnFqblijlvwvdmCLKT05d4e4NmeI5IjZd6nfvPxanz4tLgZfJmIa3o6IsV+cVUVs5Wm3JyTvawnnkV1Eqg3VgKNVFzjV11WpV8euvM3kVHFHR0uIlywSf4EmHe3fv4NLFi8/UUSjk2LlhPsqVsV8npyy6YJWwZ7i2vMh/7uJeEjJXiqyYdy2paelo9mkvJKeIuog1pGuzvO/fvy+9Cgp4UiQnL8BY9mANDVJtBoNWXLLKli2LZcuX8oYMWLjod15FTnnnpZz4Qwf2m2S4UKNt6uZkL6ILVrpolaj4WkDh5gW5m6dF55575Zev3UaHniPEGYNhoiPUUdSJRtQtrrhJi/YoyckX4P6FKpVvAwy1vLcaAyF44JWrVsDX15eXdkuXrURysvC+C5RNc/jgAZCjz6Har1XHsrkTLJzDeKljwkQVrFI7PuF2KyojGJkCLl6+YBhhYb11/+zChOmLRC3TwBpaRUVHbxU1+AUcJDn5Atz0UKXyCMC8wzXl2LFj8Nbb/O6Y1qxdh8ePY7lEmv38wvlzeHD//rPPSvv5YueGeXC3U0cnKQYvaluKzCA6uSvcSojSlw4YI8bNwr97j4oZn+WWlup/7fFjsXCXYuYssmMkJ19AWxeiDGnJwECnD6s2b9K0CYYP51fstHXbv4iMjBK1grwOnoT8MnEIWjTm9+PCNak2PUmCCOYyUhH+XO7qCYW7OAefs+y0tAy07NAXj2OF10uwLH6KjFbbtzqvCO+HNdUlJ19AGxuiUu1mWDS3Nl2ZMmWMgGOurtw9uk+fPoMTJ08L1p6qYM+dPYO4WNPTf53Xa2DpnHGC5ZkbQCiS1FxbouJpAUaugKuXn10WFx51B590EtQXJ2deVs+gglqtfmgXRYqxEMnJF8DmVg4MrKiXK+jI7WJtuqnTpqBmzZqcGlEMnTJpEhMSEPM4BsmJScZLV8KVp8wY75I+8PHxgaeXFzw9PY0ZN6kpKbh75w4ePXoEfZ4sFzdXV+xYPxdlAmz/4lLvVX1WYSc/MJApXCCTuwAMPeIMCEKB4Ivpb4lss4CrdwCvjC++s+zYexRDx8zky56b72CERt1EKpKybjrJyYt5tASOCQ1SLQCDXtaGNWjQACN//MGqZCp02rjxb+zcsRMJCQmi8uHNTdDl848wtN9XAleVn52cKMXhC4Po4o/CB4zcBYyMLgHNP9qEV096GhuBs1IBpdC9cvHwgcyFX9/gHNmZWVm4fC3c2JtAoVAY/7i5uuClkCC4uroY4TQmzliM9ZuEF0rJWEPo7ehoqhyXyIIFJCdfAI9GqFJFHY7LWZqKwjOUTVOqVP62fYmJidiwYQPOnD4LjUZjdzAv7xJe2PvPQnh58sOkt7QGcp5ZKXEF7jip2Ebu5pV9ahdCLAtj9W2WFFYSYja3kmU42akY7/fVm3Dk5Hk8fBSLmNh4swcSuVyOsgF+KF8uAMFBFbFp+37ohBfyrY3QqL/gVOoFZpCcvIM3PyQo5B2GMVDapEXKCzxG4ZitW7biyJGjCA8Pt7tjz60I5cNTXrytRA6+IEMhVFHp4lHSeHK3hejugO4QJOK2QHYuvJdFxviEJMxetAa7D5xAYlLBJb7owFbQaDR0kJLIjAUkJ+/gxyJUpVoOFl0sTUMx8+kzfsaNGzdx8cJFaDRq3L17z26hGGvL8y7hid0bF4BO87aQNi0eBl3BFTuRc5e5uNuisslYOs3rMiRHz2VQN++Ap3cc+TmPnLyA4WNnIkkkpDDX3NY+Z8CODNdoJtsioziPlZy8g3c3NEh1C4zlnq10WUqYHoVBFA89sHkJCKdGLBUk4Jhc4QaFhzcgsPAmZ21ZWi2ePEmEVq+HfykfeHo8/6FwjgtjsbtQMOMshWoWr/wb835fJ7anqz2Uz2DlsnKRkZGFcyFkjxU4UIbk5B1o3JCQkCBGb6CsGmHlgA7UKa9oWyAMqJLV2JO1AIjAruSuwu4N7tx7iCMnzuP0+au4fP02HsXEmWhKP27VKoegwdu10LZVM8j1KWANUrW8ue2kylbXEvmzr7btPozvx88utINKjq4sgy8i1eq1BfAoFrkpJCfvgC2rBbgkqlSDwWIIC9gP5UugrjKZDAEBpZGRkQm6wDVHL1cNxbrfeQFi5hnOIjOJcu0d/BbCyODq6QvKzeZD1Jhiw+bdWL1hO9TRz6t5ucbSxfMXrVugR/vmxjRUiUwtQD+w9EObm9LTM9D4455ISS3slFljLtV9n9L+qnPnzhVc3LCIPCSSk7fzRoUFBbdjGfZXAOXtLNqiOA8PD1SpUhlVq1aFKjgYZcoEICAgAP7+/kaAswP7D2Dq1Glmx1O4iKAMCDteCBVEHJ4uV129SvEKz9AP2Zq/dmDluq2IfSL+7aJCWX/MmdgPqsCyQsxR7HldPLwhczF9k+radzTOXDBtMlOYhpAxqHlbrX4Op1qYyjjR3JKTt9NmVK9evURWaupCFkwHLugCW6ckALM6dd5ArVq1QHDEKpXKanEKtfNr26YdqGOUOaIcecqV50sFEabJrqqklFLuR3T77iOYOGMRklPsc6L08nTHkp8Ho3JIIF+TFHs+qnDN/Tal1epQt3kn0D2H8xD7c4RGww8TxHmUdrgm3N8gh6tQ9Cd4KSgoxMDIqNOTw45/lENPjr1evXp4o84boFCMEBr142icPm0eBqH+W69j/vSRPMVRmIZ/Y3CeQk3YjCd4Y/zX+uNJmOSjp87HngMnxExjdUyAvw+2r5wMuUA7210RJxHo4ukDmeJ5EdQ/2/dj1OS5TqJdthos2NQsvT7g7t27UvFDrp2RnLyNj2mYUvkWC2YfAGG3gjzmZWQMXq7+Mj78sCUaN2nMY4Rllm3btmHO7N/MMpT298XBLb/zkq9NTYBBn8WLVwwTVa4aHTxHBs3+I6cxYtyvSEvPFDMNrzG9OrXE1x0/5MVb3JnyApL1HjzJWOyUl1xdFAgOKodK5cugTIAvXBUKY8gwPjEFTxKScO9hLKLuPIRO5xh4CYZBo3C1+lBx3w8h65OcvBBr5eENDg7+n8xgOAsw/G4Fec5F4Zj69eujbbu2UKmUPEdZZ4uOjkbPHl9bZDqyfRlK+Za0KsTxsAWMMUTDdcm6aMVGzFm81uEZHeXK+GH7ikl2sX9RF2L88fUu/WwZH3Xoh6hcF9s1Xw7D+03q4P3GdeDpYR32IDNTizOXbmDnwbM4c+kmYp/YM/ORXRWh0dhe3VfUN0w6ydu+g0/TIwkzw26pGITp8c479fBN72/MQhwI1Zpi8YmJSUhJSUF8QgJGjRwFrdb8KXzBjB/xzptWwNFYFpnJjg3TEPYMnRgtEWGcUHiGyt8Lgvx8vbFnrZjMo4LQruDnyMmT16Un4cPOw3D3wWNUCa2EAT1ao85rVUUpRHu6efcJrPxrN6LvxYiSkWeQXs+gtFqtFn/7bg8tnEiGdJIXsRkqlcpdziKJC1WSr2iKr7/22mvo3ecbBAUF8R2Wj4/SJOMTEvHgwQNoNNGIiXlscto9cewo4uPNY3f369kBvb5qY3Fuqgh1JM6LpTzsHIXSMzLR47txuHTlpmj7CB0Y4O+LnaunCB1WbPkVHiXB6rKg12Zg0Pj58PMtiRHffg6F3PZzjsHAYuue41i+wXZnzzD4JFyt3lxsN0LgwiQnL9BgVNgUqlQRFs3bwofmH+Hn54f+3/XHW2+9KVgcndTj4p4YgcuuXL2GFI7myBfPn8f9+/fMzvNBs3fw07iBZj8jTBoj+JgDiVrIyeTmcfQzs7Ro9UU/3Hvg2DeJvMtr0aA2pnzf3YGrLrqi4+KT4F/KenhPzOqo+nvjv0fwy+KNyMwUd/fDgl0dqdF0FjN/cRwjOXmBuxqiUnVlWCwVOCwfO53e3377bQwbPhQUg+dL9HobGxuLy1eu4urV64Li0tevXkVUlHlUVqr6nPezeajjrNR4sA5sxE1Iki6e5vvZ0gVdt/5jcP7Sdb4mMuGTy2UoX8YPlSqUMYYWqr+khDKwLDzcXeHu6goDy+Lh4yd48CgOdx48xqWrEXj4OB4JSSn45/fx8OKIL4tSShrEaQG6pP162EzjJa0ISnPz8ix17do1cb8SIiZ05iGSkxewO0FBQaVcGNkTAUPMsnp7e2PIkMF4U8DpPSU1FTeu38TJU6dFg5dFRUbi+jXzxSvUwHv53An59DXotdCmCm/Pxt9GjDGbhtIm85LeYMC4aQvw9zZKXuJPVOBVqUIAPn2vHj77oAEo712iomcBCuFM+HU1tuyh7GRhZJAxdaOiooS3ThM2TZHglpw8/21iQpXBWwG2Jf8h+TnLVyiP6dOno3RpbrQDenWli9NTp88YUSptJWraTb1dzVH1yiFYv+znPB+xyEqOFfS2IFRHS6d4Wjthkv+6YDVvkeTc6bQ+aXg3qWKVt9Wcn/HClXD0HPaLwOeQGRKhiZrh/KtzvIaSk+dp49DAwDDIFbd5sptlo9Z+EydNMHbG4aLk5GTs23/QeIFqL4p59Ahnz5g/3NSoFoY/l5hCH9AFG2VSOJIswQZfvRGO9t3592mmS9Jfx/ZB1bBKjlRXkl1IFjh/+Ta+Hj6Tv6NnmDMR6qg6haSuU00rOXl+28GEBilPg2Fq82PPz9WmbRv07NmDczi1Sjt+7AT+u3yFk1coQ+zjxzh96qTZYa//rxpWzpv4/DNjyqSDAcgYBm7G3GvTxzA1LR0NWnYFXbhyEZ3eP2r2JkYN6CS4CphLtvS5c1ng2NmrGDB6rvEehQ8ZZEy5qKioR3x4izOP5OR57O5T2IIIHqxmWb7s8iU6drTeoYzCE9F37mDz5m38TysCFYqLi8OpE+bjm2/WfgVLZo19JlFPfVAd3K+VyuSpXI4faFwAACAASURBVD43kR1GTvwNW3Ye5FwdXV7PHt8Xb9WqxskrMRQPC+w/dgHDJi3m9R1hwX4WqdH8XTxWLn4VkpPnYbsQVfAWhmX5I3jlktnlqy744gvCLLNMlAq5ddu/uHPnLg9txLM8iYvDSQtO3hS/pmBghM1hxJ+7dA1d+oziXCSVyv85dyRClAUG9smpk8RQMBboP+o30Kmei1gw8yI1Ud9y8RX3zyUnz7HDlStUKK13cRWVoN21a1d83qG91RmePInH2j/XQ6fTOfxZe/jgAc6fO2t2nmYN6+LXydkAfnptJnTp9iw1N7+0vLnxdIpv1fE7RGnM5/LnSKHim51/TEUpH/EdrRxubGkCh1qgcdvBSOJGHb0eoVFXd6giRUC45OQ5NilEqWzNgNkodC/fe+9dDBxkvrgoR9a1a9exZ2/BlOjTnNFUNHX5P7NLeb/ZO/jZWAxVMKd4UsK1RGkwuVAeL125hY69vrdqahnD4MSWOVJjD6EPZDHjv3QtEt0G580Gy7/ITL3O/+7duzanPRdl80lOnmP3QpUq6gJfTsgmU9OO5SuWG9H3LNGp06dx8uQZIWJt5g2/fQu3bppPxWz/6bsYNeRrOB6ELGcZDNxKBpisqdM3P+DiZcupogwDbFk2EdTYQyLJAl0H/YT/rlN3TcvEsoZmkdHRwgotiplpJSdvZUNVKlU5OQty8oJo5aoVKFvWMrT8oUNHcPGS+RO1oIkEMl+7ehVqCxWvo4f2QrtPWiArJbZg+pwysqeZNdmLoFZ9H3boZ3VFfb/6GF3bvydw1RJ7cbXA4yeJeL/TCFhLtpGxGH47Wv1Co8xJTt7KNyA0KKgeGNlRIV+Sb77phU9bf2pxyNGjx3Hu/AUhIu3G+9+li7h7545ZeWsWT0GNKsEOrm7NPbXpSX7j1r0YM3W+xbVWDQvCH3Osh3LsZihJUJGxwMfdRhvRMC0RA3ZbuEYjKmmiyBiBQ1HJyVt18qplYPAV382mnO3NWzZZxKIh537s2Ale6V985xTCd+7sGTx6aB4L5NyBPyHTp8GgdVwTjry6Zodrsh/Bdt2G4tpN87g63l4e2LduOgiHRiLJArktQJAH435ZZc0oiREatXlgpBfElJKTt7DRtWrVckmIjUsVAidMYGNNmzY1K5HSI//ZtKXQHDwpderECcTFUYGTKZX288WBzYscjjSZd17XEv5GzJr4xGTU/8D8bynF4VfN/h7VwsRDML8g3+UXcpmUkdX086FITKKvqnmSga1+W6MRh3BXDKwqOXkLmxgcHFxFZmBvCNnjTZv/gYdH/i6AhBy5dNlKpKZafhCFzCOW9/DBA8YGInnp5aqhWDNvDHSZBatfTpOQW+FqtO4y2OyyXqkajOUzpd7MYvf8RRjXZeA0XLmhtrhUlsEXkWr12hfBFubWKDl5CzsfFhTcmWXYlXwfjBYtmmPwEPOOavu/OxEeLrpglq8KnHy7dvxrFsGySf06+Hlkd4A1cMqwJ0NOxeuRkxfQe3AuSIWnk3i4u2H3mmmc7eTsqZMkq+hZ4O8dRzFp9h9WFGcnRGg0o4veyuyjseTkLdgxNEi1GQxa8TXzypUrULZc/oya6zduYs+efYUapqE1ZGSkY//evWaX06PjR+jd6QO+S7UrH/V0Xb9lPyZMX5RPbp8urdD98/ftOp8krPhZICtLiwafDYTWcnPwfyI06tbFb+X8ViQ5eUtOXqmi4DXvhOyt27bA1dW0s1FWVpYxTJOZWXCXmZa2/fHjGJw5dcrsxwt/GoLar4Tye2LszEUx+e2HLmHU5Lkmkkv7+Rhb79FltkSSBbgs8NnX46C21GCEwe0Itboyl4zi+rn0DTKzsyEhIT6M3sC7EXCVKlUwe86sfJJ27d5rFxx4ezx8lhqGEETAkX9+hasLN/yxPfQwJ+PE+ZvoO/JXk4+G9W6P9q0aOWpKSW4xs8Dg8Qtw8MQlS6vSZ+p13nfv3k0vZsvmtRzJyZt38pUZvYF3l45hw4ehadMmJpIIdGzxkmWgv52BLv93CXei82PThyorYP0CbkAwR64hLT0TTdoPgVabjd9D2PA7Vk2WTvGONHoxk71h22FMnWv5bpUB+3q4RlM4BSqFbGvJyZvZgOBKwfVlMvYw371Zv2EdfHxMIXP37ttv7MHqLHTm1Ek8fpy/aKRFg1qY8j03zr2j13H8/E30e3qaH/R1W3T81PRH09HzS/KLtgXuPYpFq68sH1YYlvkyPDrKakJ90baAZe0lJ2/GNmFKZXcWzBK+m543Hq/X67Fo8VJQTN5Z6PChg0hJTs6nzqCv26Djp+Zz+wtSd0auQOT9JGzfdQjfdn5POsUXpPGLyVwN2wxCSqr5iAzDYmp4tPqFLJmWnLyZBzxUqVwMMLyOt94lvfHXXxtMpBQWNo217+runTvMwhmvnuM8hUauXn7GXH0CSSsqRM2mZTLpa2SP/dp16CyavlMTdE8khtr2Go/IaItQUy9sho30dJp5mkKUqgsM8BqfB632G7UxaZJpjvey5auQlOTY3qh8dMvhSU9Px4F9+dMnKQ/90MZfIM8F9ytErsQLzF76D77u2BLubqaZVZJthFvg/c4/oEWD1zGwZxvhgwFjs2/qBWue2LMRGs0bogQX8UGSkzd/kn8MMNR8lJM6de6Ezp07PeNLS0vDkt+XF3pefG7FCa+GcGvyklRNyrm9nAyf9RyLAT1ao37dVzl5JQbrFmjxxXDo9HrsXzddlKl+/HkZduw336gewKMIjVoQZLgoJZxwkOTk82+KLFSpojQPXraZOGkC3njj+QHBGUM1hCFPWPJ56bMP6uOHftZ7zzrhM+tUKjX7PBtygbKBXAoxDdWpjCJSmWafD0V8YgoGf90GX4i4J1qxYbfxzcrSUZ5xUXiEh4cXnVigSDvmHcbLkdlpriIhpkqVKt66jEzesZY/161FqVKlnq3N2UI1pBi1/KPWf3lp7KAu+Kj5m0ViX5xVyUZtByE5JR2Lpg1ErVdf2Hobu2zPB51/wKPYePj5emPPWuEQ8MfPXkW/Ub9Z1IWVyypHRkZaiufYZQ3OKERy8nl2RWijkNygZJRVM2/+IhAgmTPR8aNHkJCQv7Zr0+/jUamCaXcmZ9LbqXVhZJDJ5WjcZgASElNQqUIZbFw02mo3MKdeTyEqJ5O7QObihh6DpuLMhewG3TNGfYNGb/9PkFYPH8ej5Zc/WBwjY2XNb0dHmsf2EDRT0WKWnHye/QqrVCmUlcnD+W4j4ce7u7sb2aOi1NiydTvfoQXGt2/vHmRmZJjM51uyBPat4+6RWWBKOvtEDAOjM5K7QubqBobJzgBp1Ko7YuOyf0BXzRqB6pWVzr4Sp9FPpnCF3K0EZPLsautx0xZgw5Y9xn8P8PPFzj+mCNJVrzeg7kd9Ld6HMWB6hmuieKdGC5rciZklJ59nc4KDg1+VGViL9dF593LL1s3PmoTs3bsfV685TwEU6UpvFYQ+SbjbuenN16th7qT+TvxoOodqlL9PaJlyV0+zufvNWvfCw0fZGP1v166OOROstzB0jlUVrhaEV6TwKGn80cxNK9dtxU+zlxv/F2EWrZo9QnAfgXqffoeMDEv1KcykCE3Uj4W7+oKfXXLyeZ28wGrX3IVQK1auRkJCYsHvopUZk5OTceTQwXwcnVo3w8CenzmVrs6kjNER0SnTxc2qWgNH/ow9B08+49m2YhLKl/FzpqXgYcwTrNy4B3fvP0avTh/i5SqqQtOP7Oni7mM2reHS1Vvo+PXzeqWK5Upjy7IJgnRt3mEYniTkL/ozCmGxPCJa3VWQwGLALDn5XJsYVrFiICt32Q8GL/Hd223bt8LFJftEQlWulJPuTEQXrnTxmpfGDe6CD5tJl67594qBws0TcjcvXtt47NRF9Br03BH16/opvmrXgtfYgmL6bflmLFu30zidl6cHtq2YiJIlPAtq+mfz0NsQNYqxRPcexODdNr2ffUxFZttXTEaZ0vy797XqOgr3HubvfpYtlNkeoYn6sMAXXsgTSk7+6QaEBQW9DEZ2mAUEHcNyO/nf5i4w25SjMPc4PPw2bt3I3+Dqz3kj8VJwYGGq5nxzMwxcKIygsH56z604hcFeb/z5M3A1N1cX7F8/3amKoxau3oZFfzy/KyKMfsLqL0iSu7gbQzTWKD0jE3WadTQJLVYJrYQ1v1m+TM0rr33viQhX37M0zfEIjbpeQa7bGeaSnDyAMJWqIQvsBgvBZYvb/90GhUIBA8tizpx5zrCnJjr8d/Ei7t69Y/L/XBRyHN00S3T5uNMt0h4KMTJQAxMK0wilJh/3REzsk2fDZo3/Fu+8UUOoGIfxL123E3OXb34m/3/VQ7F0xhCHzZdXMCN3MdqWD9FbEb0d5RBVYx/86xfe3cG+GvgTLt+IsjTV9QiNujofPYoTzwvv5EMrqdpDhj/FbmqOk49PSMDKldZakImdwbZxp0+dRGwe9MnKIYFYO3ekbYKL2WgXz1KQKUwvAvkucczU+di49XlmXnBQOaybNwpyuYyvCIfyrd28H9MXPMdXUijkOPTXLwX2tmH88cxzyWppwXnDX8Qn5EK7zw+zcOqCxdbMDyM06vIONbYTCn+RnbwsVKkcDDDCqy5ybWROuCYySo2tTpg+eezIYSQmml4Gt2xaF+OHfOWEj2PhqJTTa1bs7PEJSWj4UXeT+ojfJvbDW7Wc49B48PglDJ6wwGR5P//YC03q8YJnEmsW4zg+YZrcE8TGxaNRK1NsQJlMhpNbZvOqQeBoHpIVoVHzj8XZtHLnGfxCOvlGjRop7kRFzQSYvrZuxdZtW+Hq6oLz5y/gyNHjtoqz+3gCJst7Gdy/2yfo0vZdu89VVAW6lvAXFabJvV66MKSLwxwKrlQO6xaMcgrwt5sRd/BF38km29P6/foY2d/xkBYuXqXypUpyPSetvxyIWxGmDW4+av4Wxg76kmsoJsxajU07j1nkU6S6lbwZe9NC+g2n+CLJ8MI5+Vq1arkkxsauZcHYJX8wJ4Xy+IlTOHMmfxZLYT8V5iCGxw/pgpZNpcwa2huKwZOTt5Vmzl+N31eb4qbMGvct3qlT+LH55JQ0NGo72GSJAf4+xswVR4aUGLrn8OaF82ei24VL19G5T/509mObZnGGmOav2oola/61uJ2MQR8WfudOhK37XZTGv1BOnhx8QmzcJgAf2GuTcoqhnNXJ79i+LV8hlDOFEuy1D2LlUNWliyf/FD1L81CWTd3mnZCW/ryyWFWpHDYsGO0UePPvd/4eMbGm0BbfdW+NL9s0F2s6znHGnHgP045pnIMApKam4c13v8z33LZoWAtTRlhv87B20wFMX7jeyjRs0wiNZj8fPYoLzwvj5BsBijtK1S4Adu0rlwNr4IxOnqpdd/6bH2aBUtIoNU0iGNMlXTyFOyJztus7fAoOHjV9mxs3pAs+dIK3pu/GzMPR05dN1C5Xxg/blk90WBcuhZsX73qD3IqxrAE/jPsFW/ecyGfmwxtnwsszG0bEHG3bewpjZmRXzZojFngAuaxaZGSkc1UtOvDL+KI4eXmoUnUEwFv2tmUOQJkzOnnCqyHcmry0c/VU0Ou6RDBmffBN7+OyV0JSMhq07GZyAUvl+eRIyaEWJs1bsQW//7kjnwpDe7fD560aO0Q1qhiWu4koumJZ3FXfxnud8nfra/Dmq5g55nnBVF7FD5/8DwPHzedaz2NWLnvpRXH0L4KTZ0KVqnMAanLtvJjP//5nI7y8vHDm7FkcP35KjAiHjUlNTcGhAwfyyT+9fa5TXAg6bOFCBDMyuImIG1uaolOvH3Dxyk2Tj6uFBYHaLBYmnTx/Hd+OnJ1PBTHQAXzXkV05bLnC1ZwcvTYDuvQk4w/lWx/3h06nz8d2YP0MlPQ2/+Nx4Uo4egydwUfFeCZZoQp/Es4bVpyPUGfkKfZOPlSpugLgZUcZf/mKZShfvjxu3LyFXbvyn5odNS8fudSl6uD+fSasEvpkfstRJSal+tmDKMPmvba9kQcPDs3qv45pP/S0xxSiZFAv2nqf9EeWlvrhmFLvL1uhR4f3Rcm1NoiRKeBags8bDAtdRgr0WaaQIDsPnsHIaUvzTVG3ZlXMm/yd2amp2pWqXnlSorteF3L17t3nlWw8BxYltmLt5EOVKqqKqOLIDZkydTJef/113H/wABs2/O3IqQTLTk9Lw4E8Tj5UVQHr548SLKtYD7Dzab5rvzE4c57OFqbU4ePGGPJNu0Iz5YCx83DklGlcnpShGDdBMYhtoG1tQQp3b8hdPcyyGHRZ0GUkgzXkP63TgLT0TNRvPcDs2M1LxyOwfP5eCNR0hJqPCKAkxkURFh4e/ljAmCLFWmydfKhSRXDBDm+82f+7fmjZsiVSUlLw+9IVTrX5Genp2J+ngTdlfGxcNMap9HQGZQgf3njqZGz/Stx/+NgItJUX3pnW2ar5WxjDI9/bETb5e8dRTJptviq74Vv/wy+jv3HEtEabUhYTAxkMei3AGp7axhT+2tzkFGKiUFNeIqC1fet+gosiG4s+h6z9MFhZXFxKRrry0aNHqY4xQOFKtf2JLlz9zc4eqlQeBxhRl6xkkE4lS2BVUgqvlbVt1xY9enQ38s75bb5TdYXSarXYsysbfTCHHBmD5WUwp2ZijBeFlBUilli9Ftr0RAwZNx/7jz/HYMktj3BtCN+moCkzUwtqV2guZENVpfSGR5AMzkRx8UmgBt/maHif9mj3UaN8H73Rsg8oPCWQ7lcKVikPHjyYP54lUJCzsRc7Jx8SpNrFMBCF9UpII7PK+EOpUKDV/Ue89uqdd+ph1Ojs8MfChUuQkWm+T3BmZiaSk5KQmpoKuhDV6/SQK+SQK1zg4eGO0qVLw9NTvHOxpCylUOZuRxjg74udq4V13OFliOLExDDGrBuFixtkCnfrp3uWhUGXCV1WWnbY4Wkwnk6U73UagdQ0045cOWZ6r9EbmDS8W4FbbercP7Fh2yGz84apKmCdE4XydHo9Js1egy27zVeS0w/TjlVTUNrPFN2y3iffISPTUuMQqyaPjNCow4zI88WIipWTDw1SrQODtlTIKHSPCHtwThl/1HF3QxbL4u07+Rtfm5MZGhqKefPnGj9aumwlqEkHUVZmJm7duom42FhkZWWBTtVcRA8tYdN7enkhODgE5crbjqW0d/cu4/w5RPFXyjWWSIAFyOnnPFLGJ4sxOnP6J98Nay6xv6/dgXkrt5idiMR81e5d9O36iQBFbGe9fjsanfqb/5GnSBXh4XdpK+qMZJNyFNp6EPMEkdEPcOzMFZw4dx0xcfGgtw9rVPvVylg4baAJS5N2Q5CYLDryci1Co3ZYooZNRhI5WLAzFDmPw4eFBqkWgMHXYhy8ggHmBvijlvtz7KJ2D2IQaSYTIe9CPD098c+m7AvXdes34sTx44jWqEGZLeZiskIMIZfL4eNbCjVeeQUlSghLRcuZ5+D+/UhLM33g9/75E0r5eAtRReIVYQHqOdqu9wSo7zw0O5p+1Kf90ANN6jkku9fsnPSi8eWAqbh2S2P2c3c3V+ObnredmoqQDa7cVOP0xRuI0NzHo8cJINz4LK3WGDbKzMwynrrpj4gQi3ENBJtM8Mk59H6n7xHztO+uiG0jF3I2QhP1hrixzjeqWDj5UKVyIsBQIrJgbFcXhsH8Mv54zc0USn5KfAI2Jqfx2rGdu3bgr782Yu2atcZwjL2JCmpKeHujZs3XjX8LoePHjiIhPt5kyPKZw/BK1WAhYiRekRY4fvYq+o36zeLowgiRbN17EmNnWE4SsAcU9b/7Txu7Ud158PhZQxWRJuQclre476OvfsT9R3Gc4zgYDkZo1I6pErNVM4Hji7yTD1GpujIsqAO7YAfv9tTBv5rHwZMNN6WkYeITU6wPS7YtU6YMYmKeIxAK3APe7OTs/UuXxht16vIuRb944Tzu3zPtlDNxWFe837gO73klRtss0H/0XGMIwhJtWDgGIQV44Un4Os07DLcYtzaGbbp9ii5txIdtFq7ejkV/bLPNcDxGjxrQCZ+8a9rs6eNuo3H3gV0yIv+O0KjtAmTIYykOYynSTj40NLQGdHpKlRTs4F0ZBovK+qOGq/lmUPvSMjA8V7cfh+2ACMEUt6/9Rh2U8uMuNFGro3DtiqmDIVAqAqeS6LkFKIRA4TFXF9OUPFttlJmlxcCx83HqQv40wBzZ33T+ED2/aGnrVILGr9m0HzMWPm8kkncwtTHc9cc0eJcwn+PONdnf/x7FpDmObaLT8dOmGNCjNSjslZta9xgLzT1+iRMc66CI67jIaPU4rvU68+dF1smHhIT4MHoD7aTgJgB0yTq3jD9q54rB592kralpGGdTXM/x2x4cEoJq1a3fESUlJuLokcMmyhR0+zfHW8L2GagU/uLVCFBFsJ+vN/xKeaOMv6+xD26NqirUqKLKl5PNNeuJc9cw4dfVoAIda9SmZQN837cDlzi7fp6ekYWPu40CpShaopCg8tiwcLSoeSM0D9Dum/GixvIZ1Kvzh+je/n2zUMltvh6HKAv3IHxk5+ExMAw+CFerCdywSFKRdPJPIYOpcWlZoVanBU8P8ENDD+tl7L/EJ2FNMr9ceaE62JM/KEiJl195xWr4Jm+GjYuLAof/+sXY7EQiGHuCUm9Qa0ShsjKlfVG+jB/Kl/FH9cpKVCznDz+fkijl6w2dTme87Hscl2DMDLlwNRwPY/hVy1OuN+V8FzTtOngGP5iBDcitR4dPmmBIL0pYE06f9RwL9V27nKifTU6n9snDuxlhImhPzBH9uNCPjB3JwMplwZGRkaadTOw4gSNFFTknnw0ZHHwCYGuLMcw4f1+09LKOjJfGsnj37kOk5wUgETNhAYypVKkSarz6P4sP/ZlTp/D4semdweKfBuH1V14qAO2cf4r5K7diyVrLjSYcvYLRAzvj4xZvO3qafPK1Oj06fDsJUdGWHSI51WW/DDW+yQglysenvHx7UdN3Xsfwb9vD39c0Lz6v/M/7TMTtKNN7KJt1YNmUlMyMckWxKraoOXlZqEq1DCy4+4CZ2dWhpXzQ3pu74EjIpavND4+dBLxcowaUKvMZMxq1GlevmGKWOAqUyk7LKVAxXw36GZevRxbonDmTyRgGe9f9DB8ez6UjFKTUxt7fz7Iq2t3dFYf/mimqixTdRxw+9Z9o1em0/mGzN9H5s2YIVVbgJYdaHVLLQ3NU2UWBKJ0OWlHlTky4m5fHy9euXRNVacVLeQcwFSkn/7Tx9nQxdvjGxxs9eOSGR+t0aE9pX3Y+xZcvWxrVKoegSpjK+HpP2BtyhQLp6RlIS0vH1ZsROHXuMuKeiO9lUO+d+vDxzd/liIqh9u3ZbZK3T23pqD2dRMA33/+KMxdN4YELyi7VXlJi9ewRBTVdvnkMLIs+38/CmUvW1096rpo9QnCVoVarw8wlf2PdlvyQ19YW7VvSC+82fANffNoUgeWFtRCkYi8q+jJH73m6o667KyY8SYJBnNX/raRRf3wQKDLwB0XGyYcFqhqychwUsy8dS5bAAN+SnA8oVbp2exSLG1nc1al89Hil+kto2bw+6r9VE8pK3KcQusqP1NzDnoMnsHjFRlBmhhBSKBRo0qw56O+8RJevdAmbQ3TBSCfIIvMACDGEQN6l63Zi7vLNAkfZzu7m5oJVs0bwPqHaPqN5CZRT/mn3MSAYAWvUr+snxipdMXQj/A7+2n4Ix89dw6PH+S+iqQiLqlcJRrj2/6qAcvXF0pcDpuHqTbXZ4S093dHTxwvHMzLxU7zYOzdmYoQmqshAuRaJ77hKpSonZ0G7JjiTpomHO6aULgU5D3TBxYnJWJhoeyP3pg3qolvHj/G/GuJRjulEP3P+Kmz6V9gJqHKVqgh7KX+s/frVq4iKMg1JrF8wqtAdjNgvsj3HUfYLXRJSxklBEaUoTh7RHY3e+l9BTWl1nn92HMVECwiVuQcu+XkwatYgeBfxFJ+YgtgnCcjI1BrhjelC268U9yGM74xdB/2M/yyE31p7eeDLktl3cltSM7A0SWzxItskQqMR9uXkuwA78zm9kw8MDPRwUyhOgcUrQtde2cUFS8qVhicPB381KwtfPYy1CZmocpgSIwf2QK3XqgtV1SL/jr1HMXSMMKwZOs27u5tmD8U/eYITx4+ZzDOwZxt0at3UbroWZUEUruj34xzQZaSjifCDqCF1vTecByKFOjB1GzwdV2+ZPwHn2EQmY56Cgjlv+8juQ6Yb02HN0Rfenmj3NPefwvLzE1OwO808qCDHc5ClA6vSaOybxuOIZ8/ZnTwTqlTOAph+QhdfSi7Dn+UC4C+nrHhuGhEbj71ppp1puEc95/ig+TuY+ENfh6Ql7j9yGt99P80aFpaJqmGVK6Ny5fxvEQQ7nBsorfHbr2H6qF5Cllmseamr0Igpv1vNNrHVAC+FBGLqiO4gXH9nIwrbULVobtRSczoS6uOWZRNBbyPOSD2H/YLzl2+bVa17SS985PX8AER3b+OeJOOKwNBotnD2SqZeX+fu3bviHUcBGNCpnfxLSuVnBjB/CbWDgmGwplwAQnhWL8YbDMaUSTEXMXT7P7RfF3Ru9yFvqAGh6yH+A0fOoN+IqbyGUtpb8xbvGi92c9PJE8fxJO45pkdpPx/s+oOfTF4TFwMmcnDb95/Chq2HcNUCiJeYZRLg1yfvvo2+X30ChYLfwUPMPLaOobj5lN+40x7r1X4ZM8f2EZVxY6uOXON7DZ+Js//dMsv2rU8JNPc0jfqmGFgMik1AjF6UB/gtQhNFvQjFDOZail0+d1onHxwcXEVmYK+JgSwgyOC3rFSz5rXcltQ0jBdR3Sqnt4UlP6FaZceDfdGlbN9hU3Ho+FleG1/nzbeMGPW56eqVK9Coo0z+H3WJcsZTJa9FOpiJCpt2HjyLyzciEX0vBnfuP+aNU07PRoUy/qhUMQA1qgSjU+tmxjZ7zk4Uk+bhgwAAIABJREFUtuk6+GeLKJW59e/TpRW6tX/PoYcbMfb6ZsSvFrOFBpcqgfpmfMNjvQH9CSFTRFYdwxrahkdHCz6MilmbmDFO6eTDwsJKQqu7yAKCveeAUiXRyVsYLG/fmDiczBAel1uzaApefbmyGLuLGpOZlYX6H3QFAUxxkVKpMlbC5iZz+fIDe35mdEAS8bMAFdkQFEBCUgoSElOMfxNkLmUrGf/4eBlhnKuEVrI7Dg4/DW3nojV92OVHIyQwF82e8C3q1a7BxVagn1P1MlUxm6ORft54wwwgIfGGa3UYFpso5khuUMiY6jejogonD5fDus7o5GWhSuVygOks9Mlo7umByaVLCUoLpF/uRnceQMh1G93jjh76Ddp+3Fyoijbzn714DV99y5295ebujqbNTPW7e+cO/rtk2pKu4Zv/wy9jHNTb0+bVSgIKywKEAd9lwDRe0/+9eCyUgYIRRnjJFsNkreJ1gn9JvGLlLuFweiZ+SRCVWhntlub58rXH10QNFrNOvmOczsmHBQW3ZRl2Pd8F5PCVlcvxT4UyIHRJIXQ6IxN9YoRhT5NzHzOMv2O89+ARTp+/ihu3o6CJvm98va3yUjCqVw42FkgFVizL+5WXYsZ1m3fidcpq2rwF3Nyexx/vREfj8n8E2vmcypYuhX9XTRZiMon3BbHAb8s3GzHhuYjeYDb9Ps5ujUa45uP6/JPuo42hNXP0c2kfvMRxVzcjPhlHxKTTMpgdoVYPcLb2gcI8Ipd1bfy8cmBgRb1cQcnc5vF/Lcini9ZdFcvCJw/kKB91KC+e8uP5UpnSfti/eTEv9jv3HmD4mJn477r5dK4cIeXL+qNfj3Zo0fht0AmcYawjJx87dRG9Bk3g1KFBo0YoUeJ5k5Hz587i4YP8OCWH/voFJbzEQcpyKiExFFkLUFcnOhVTSz4uokKm3yb1E4zUySVXzOfvdfreCBRnjuYF+KICx8U3Zdz0fpyAWBEXsQyD95wNsdJpnHw28JhyJ8AITtxeXLY0alqIs3E9JP1i4nCCR+yR5FCO8JY/ZkMVxF29unn7PoyetgD0ReFLlO3y0w89UfPValC4e4GRKcw2kaZL2JoN23NWKNar3wA+Ptn5zOnp6Th88CD0+vzV2PMm90fdmtX4qinxvUAWoAKxZp8P5XXhTJewdBlrCR2yoMzWqO1gJKeY7+r2Rzk/ePF426eMm69inkAnHOMmOVOvU929e5cfBGkBGMVpnHyYMvhbFqzlPmkWjNHG2xMjSuXHa+FjO9q/5ncfIsHAzxHXqBaGP5dwxynXbvwXk375nY8KZnnaftjQCO9KqXZyVw/IXT3ByEzT7sb9tBAbNu+2Ogd1kPIuWRJPnsTh8qVL0FsoW6cvZvfP3xetrzSweFvg/sM4tOo2ilfP4h+/64RP3zPt1FTQ1nmzVT+zLQfpjf+vctyNdnL0vaHVYUSsCCwpFusjotXUIICfY3GwgZzCyatUqqpyFpQuKUifcgo5tlYoK2xQLoPG6PX4gGcHGcJgP73nD9Df1uhmuBrtug0VdII3J4+aVSyfORSE6UFEp3oXT59nzp5S3Wo2as/ri8f1DL3bsLaxxF4iyQKWLLD78Dl8P4W6bHLTr+P6oH4dwQXq3IJ5cBCuf92PzNdO+spkWF62FA8pz1kWJaXi31TubLa8QlmwnSI1Gse2xuK5EkFOladMQWxPG4BQ8verQgbSBeuxSuVFO3ia63xmFr5+FMtr2v/VqIw/Fk7h5G3ycU/E2KltYHClcvhz/o9GfI9nxDBw8SoFmUxhvIBNtaFKN0fmm69Xw9xJ/TnXJjG82Bb48edl2LH/NC8jrPx1OF4WgUHPS7gVptgniXi3o3lUz0CFHL8FCHvrp7f9r2PiQXn0gohldYzeJTj8XvhdQeMcwFzoTv4lZfBEA9iRQtZGSm+qUAYVzaAtCpGzJSUN43k2696wbDpn0RPBD/QfwR3OEaLjK1WDjU0b8sY56XJ2yvwN2LB5rxBxZnnpy0hfSokkC3BZoHXPsdDw6PZExWD/LBmHiuWEwQRzzc/1eYTmPtp9Yz4poaqrAlP9hWPukKNv8yBOUJo16cmwOBwerW5c2GGbQnXyYUrl6yyYc1wbl/fz97w8MNFf2GtXXhmJeh1WJ6dgWZL5C5rc/KV8S+LI9mWcajb7tBcexmS/GfiXKon+3T41YmFv33cKW3af4LwotTRBz44t8U2nD/N9fOd+DD7pPoZTLy6GoIpljF9IiSQL8LFAo7aDkJzCDddCUA5bl00o0NTKc5dv4+thv5hdRm03V/zo9zzbjM9ac3huZ+kwNE54fJ4B0zdcEzVXyFz25i1MJ8+EKVXnWeA1IYvylslwINA2cKcEvQ4pBj2WJaViM494W9OGdTFr8jCrahoMLF5r2M4I7vRj/4749P13TPgJ+OnuA/O5u1zrp3uAo//8ahq2eTrorVb9jBWXtlBg+QBsXuq4psu26CaNdT4LUCOQBp8N5PXc0QHir4VjCgzj5sCxixgycaFZozX2cMN3vsKq4XMLGhWXhMtCgcxYVifXuZW/df8Wv7iwA7a70Jx8qDJ4CMD+LGRNFJneH1geXjLxaicb9KBTPNGSpFRs4+Hkt/85h7Ppx797jmLY2JmY/mMvNK5n+rt1+sIN9P7Beos1LjsEVQzAP0vyO+LGbQcjyUK6GJdM+tzVRYFtKyYZ3zwkkizA1wK3Iu+C2uxROi8XUQ79wmkDudjs8vnfO45ikgVcfEKfJBRKW+jzh0+QwWPNeeb4O0Kj/syWeW0ZK95b2jBrWFhYAKvV0YWEoKKnXj7e6MmjhZ8l1TIMBsTqn3dbWpyYiu1p1m/O6RR94eA6ztV27TsavTq2RM2X88Pt9B89F8fOXOGUYY2BYvJH/p4JjzzgSmNmrMC2vSdFya5UPgArZ49AyRLWG5uLEi4NKvYWWLZuF35bvonXOqlP67jBXXjx2sK0fP0uzFlmXqfO3p747CmWvNg56AKWLmK5f9ryzsC2jtBo/hE7ry3jCsXJhyqDtwFsSyGKByoUxstWsaRjWTzSZZlszsLEVOzgcPJ84/FP4pNQwkUL1pAfBef9Tt8jxkwFXvXKSsyb/B083LN/6xKTUo39RiMt9CGo81oVzJ9CVdPPiU5UHb6dJMgsVHQ1aXg31Hw5rMBeowUpKDEXGQv0H/Ubjp29ykvfru3fNUItO5LGzVxpvP8yR4N8S6CBh+DmcvlEzUtMxW4Ov2Fm/keVglWBBw8etC22KsJ4Be7kQ1Wqz8FijZCceHeGwe7Acrw6PJmzAf3qPtBmwZDn93dBYip2cmxWpYrlsGM9v3uTzOTHyNvZ40lCMlp0GJbvl//VaiFY/POgfHF2iq/3+f5XXDDT2YZCKye2zMm3xLc/7m+1Hyyd/mtUUaF9q0Z4/ZWX4O3lAcKcl0iygK0WoDuoNr3G88q4obfRdh81xLDe7W2d1uL4b0fOxsnz181+PsXfB9Vcrde58FGM/En3R/F4wrOIMkcmC2ZepCbqWz5z2JOnQJ18o0aNFHei1BSmEQRZ96OfDz4pIT6WRid4wqPIS/MTU7GLw8lTM+61i3k01mANyEzOf7eyde8JjJ2xMt/cy2cOA6VHmiOCem32+TCz8c7Vc0agWpjSZFhsfBJYQ66fMBbGallXVwXcXFw4C7js+UBJsl48C2RkZqF1j7GgXrl8qFn91zHth558WAXz0D3BzYg7ZsctKVMKpeX2OdxQlXyPR/EQdixndGD1b0ZERwvOKBRsiFwDCtTJhylVS1mgqxCFQ1xcsL58gJAhpg5Qp0UGa76Qgc9rV/03a2L+jB8559dnpUOXkR/obNLsNfh7xxGT8XSqXsGRl37k1GUMGDsv37ytmr+FMYO+5NRHYpAsUJAWSExONTp6OqDwIbqMXTB1gN1xbj7o/IPZHxty7RvL+9tUPJl3XXwiAXnHMMDFcI26Jh8b2YunwJz8U+iC/wDwbgzpwjDYUqEMAnj2ac1rlJxUSUvGmpuYgj0cTXzr1X0NC3/hxm/PSn0C1gz418Bx83H4JC37OY36rhM+4cD3INgCQtOLz4OQSWiRhBopkWQBZ7MApQh/3mcSLxhs0p0aq6ycNdxsarDYtb31cX9kmUlzpBM8neTtSXT7RpewcYKrYfFdRLR6tj11sSarwJx8qFJ1AEAjIQvr4O2FwaWEV6jRHJQHT07eGq1OTsNfHEUdb9Z+FUtmcRccZSXHgjXzxkCFGVSgkZvW/PaD8QHnotMXb6D396apl5Ttc9JMXJ5LlvS5ZIGCsMB/1yNBjbTpkMKHVIFl8cdvPzzDaOIzxhIPwQvTwcgcVXFVYJqIalcufa5l6TAyLlFotk2Mb2n/wHPnzj1P9eOayIbPC8TJhyiVHzBgtgrp10qYz/+ULwu5CA0p/h6TJ5PGnI0os4YybKxRlTAVNq6YwWnizCQqdMof9+/YdzJu5IoR0oXn8c2zeOFua3U6tOgwAkkpz3WkWPuprYLBOjn1lxgkC9jLAv/uP4VRPy/nLS5EWR4bFozmzW+J8fi5q+j3o/nvxtvurhhWSly1K5diE54k41xmFhdbns/ZOREaTYEARolwoQLXAiBEqbrOAFX5jiSlFtmAEU+ZNHoev62nM7IwOd56wxBlYHlsX2fdqbIGHbJSzMNHf/HtZNyMfH4RVCUkEGvm8ofqyfvgEibI6W38sn342lvikyxgbwvM+v1vrPxrD2+xX7Zpju+6t+bNb46R5qN5zZE9CqEsKZfGsugVE49kg6Ds+TSDjAmJiop6ZNOieQx2uJMPU6kGsiwEBZGbeLrjp9L8cZ9zr5OKnajoiQ9FaHUYzIEXXSbAD/s3We8Epc9MhS7T/BtBp/5TcP129DN1CIKVoFj5EsUXm7QfAmreQERvAme2S06er/2KO5/M1R0MGOizqKhPkJNxqGkotbLLgJ9w7baG1zzVXlJi9Wzz6JG8BAAYPX25ESfKHPUo6YUPvdz5ihLMR1l6lK0niFhsiYhWfyxojAhmRzt5RahSdR8A7/QYwnymoqcSIvK4Uw16xHPE4XPbiNKgvnpkPe3LzdUV5w6stWrarJQ4s0VQNIge9Cs3n3eO//jdtzF6gLAe5QdPXMLg8QuMOshlMpyWnLyIR734DXH18gMjf5r3zbLQ6zKzM7yEl907xDjh6nvo2HcKL2A+ZcWy+HvJWJv0MHf/lSNwtF9JvO7GO+dDlB5DYhMRLgRHimV1AOvwlEqHOvlQlWoBWPQSYrH+viXxZUnhIEJ6lsVDHnH43LrQuafdwzhoOQ5AqxdMxmuvVLG4DHNFUDnMPYbOwIUr4c/Gdm33Lvp2FVb1RwVSrbqOMvatdFEocHJr/oIoITaWeIu+BVw8fCBzyV+9SaFDbWqC2SSAwlj1oPELcOiEafN4c3qEqSpg3XzuLDZra2jfeyLoh8UcLSjji3Iis/T42k2j1WNQbIJASGL2XIRGU5vvHGL4HObkw8qFBbBuOjUA3sAoSoUCGyqUgZhyhQe6LJCjF0p9HifgPkcmQLtPWmD0UMu/VZYuXUmXYZMWYd/RC8/UIvjhLm1bCFXTiGBJSJZuri44vrnAsq8E6ykNKAALMAzcvC2/HLN6LbJSqZG18O+DvbU/dPISBo3Lfgu1RlQBTn0TbCFLDbwVDLC+nL8ovyJUn5/iU3CcZ8/op7JZMOgQoVZzA2QJVeYpv+OcvFK5lQWTHwTdiqI/B/ihsYfwuNkTvRZpPOPweaefkZCCI+mZVs0XFFge/1q4fCUUviyCM7BAC1dvw6I/tj/7dNDXbdDxU8G9yo3jCeRs9PQV2LdOEHinyEdDGuasFlC4ext7/1ojbXoSDFrhbevsvWZKpaSeq1xolb2/bIUeHWzrM2wJ3kNMRyixdqAQcO+YBKQLOHCyQFSkRh0idk6ucQ5x8qGhoWWg09ONC2+P/bqbqzGjRiilGwyIy4UsKXQ89W+kPo7WqKR3CRzfucIsS/apyXJcf/+xCxg6cdGzsdSgu8MnTYSq+Yz/8ZNEBPiJqx0QPak00Kks4FaSTvHWv7pUmEcFes5A9VsPRFq65R8cmYzBrj+mwc9XfIpj1J2HaPO1+cY3ddxd8YOD0ifN2XdFUhr+SeVuqpJ7LMMaOodHR692xH45xskrVXR0/YCvwoQTv6JcAKq6CrsYoZfRe1rrp3AuHW5m6TCco+MLPYQndq2Cl2f+05MlOIOceancm3BoKNuAaFif9mj/kaCaMK4lSJ+/QBZgGDlcvf15rTgrJdaIaVTY1LzDMBBQnyWyR9OalRv3YNYS8+mTn3p5oEtJ3lFjm82VxbLo/ThBaCVsdIRGbQpKZbMm2QLs7uSfxuIpMZw3pucHXh4YL6KdHxU8kUFtoUyWxRePnkDPIaZrx48xuE9+zBhdehL0HK/FdMKgk4bRyfdub0SDlEiygBgLKDy8IXexHqrJkatNjYfBhrdcMfrlHZOQmIKmn1uPtb/b8A1MHtHNpumsoU/29imBdz15uyOb9MgZLCalkgHbKVyj+cMuCuQSYncnHxqk2gkG7/JV1JNhsFEEPg2BjsXq7FMVTCd5OtFbIz/fkjhsps+rJcya3LIojr59X3Zjj8G92uILG8I1fO0q8RVPC/AJ1VAKJdVt6LO4+xc72kr7jp7HsEnW60xWzRoB6q1gC1lrMD7evyReFRglsEWXnLEDYhOg1vKDd3g65l6ERh1oj7lzy7Crk69YsaK/u8KFcph4/2x2KVkC/XyFtZ6zR5gmtxH4YNgQFvbODfNQsbxp4xJrOfI5c5y/fNuI50E0oMdn6PxZM3vvoyTvBbGAW0nrjXMoFq9NT7RYt1HQZqJWfNSSzxJVKFfa2OzbVqrfegDSLCRQLC9bClR/U9B0NjMLE59Yr6jPqxPL4ItItdp6YY7AhdjVyYcqlXsAhrcH8yKUyYpl4SNwA+iilS5c7UV84A1ornp1XsPCmaa5vHTpSpevXJRT+dqv6yf4qh3vFx0usdLnL5IFOFIns++HCOrXthCmvUyakpqOll+OREqa5UvI1u+/g5H9O9o0ZWT0A7TtZb4RfSmZDMvK2hd9Uoiyw+IScYsjSpBH3qMIjbqckDm4eO3m5F8JCiqVxsgo8My7b2vXkiXwrcBTPIGPURMQexJhTnxFcXkOodRh6cw+amr1nLRpCTDw0GfnwTMYOW0pen/5EXp04H0nbc9lSrKKsAX2HjmHFo3fhotn/swqQj+luyE+z2FBmoB6rVLPVWu0YeFohASVt0mtpX/uxNwVm83KqO3mih/9xGft2KQYADGneTD43J5583Zz8iEq1S6GBe8qH4rF0yleyGsUnU/uazMdck6ZEp+MU0/xYaxt7PwZI1H/zdefsfC5eM1hpn6YL1dWoVdnQeUDtj5n0vgibgHqvFTvk+8wqPcX6NbpM5PVGFN40xKcBsogRzmqzu7w7eR8/RByK1/K1xt71/5k8+70GDIDF64+ryrPLfDzEp743JvfRbXNilgQIPw0z8ZGaDS8oWC49LaLk69Vq5ZLQmwcBZ94x+K7lSyBPgJP8YkGHZL1XOdtriWb//xkRhamciBS0si8gGX0esz3gou+rLsOncXHLd4Wp6Q06oW0wKQ5f+Dvf48aIS3OH/zzWTclKnaioidnIs3dR1izeb9R35y0YUv6hQVXxLp53F3XuNZHkB/3HuZvvUnjCF6YYIYLkwiGmOCIhRBr0L8ReefOWSFjLPHaxcmHKpU/AQzvmmRqzL1N4Cle9xSbxh6LNieDQjZdHj0BV6SfLmC3rpkNVVAFoxi9NhO69ERHqSXJfcEtQLhFb7Xq98wKFw+vN3ZSEnK4cLQJqZr1VuRdzPr9H5y6YL6Jdl4dCDL7g8Z1MHZwF5vVq/fpd8iw8BY+O8AXQQqqxClcGhabiFtCwMsAdYRGbb4JtMCl2MnJq+hmhXd1a08fb/TyERYnE4tNI8QefEM2pXxL4khOOiXLwghQJpFkAQdYIAezKEf0zvXzUK6UuxFxsrCJfoCoE9T4mStx72Ecb3UqlPPH+MFfoWaNMN5jLDGGR91D+/+zdx3gTZVd+L1JkzRpm+490sUeDgRERHFPHAzHL7j3AsWBIooTFRAVleFCBRFUcONClgqIiIgiCKVJWd1NmzZp5v2fc0tLR5L73Yw2QM7/8MBvvnnuved+94z3vfMZtz+TaV+SlgjCrulq8eE073RySNLr9QRC5Jf4vf3C7NxLeRk+Y12FkuPwjcRTvJV3oSJAOfHe1smaZUNjfPr+TPQoyBWG84ZCyaqXcLuwBtxpYO7CL/Hmom9afrrqsrPw4G2ju1RZlC1DRPPPvLII5IJkFXWkEv+77Czced0lrF1E27XHhmrdoUARgZlJoQMB8mBlLXZJO82vKjLofcdAOaQMv418gS6XQCmYffFSM2qCGWxtfwc18E0uGwdDBhq5bbauXSqQeHjidxW9Q8MNwhoQ0QBx/BLXb7MQCukvn70Kzu8nV7rqjXX1+PTrdaAXj0sCCxI9K/165mHWE3cgLlY6jLi3lY6793mPxCREEkJkIaEiUg6Rh9ZsLzLoCY/Be6WmyAb9ulUKCwuzeLvjMLcdw2TLM1KQFXGI6IBB+1KJQBiG9NpkscmMJSLk3s0D3HbdaNxz69VwWs1wWCk/OSxhDQRWA6dePr6FFax55PVfzIZSwf4M+buiqpo6gVbPE+uSt/G10Ro88/CNGHpSH3+X4bb/eddMQmW1+5jYxLgYDFN3bdC19aLp7HhzeY1ETBt+epHB8JA/yvPLyBfk5JaAQzbrAs7RqDEtib0wwQUeB+zsn4Os6/DWrsLpwq3lNcxpmmu/egcJ8bGw1pUHYvrwGGENtNEABV3J991a3po+MSD+bG+qpmBqWUUNHnx2Prb/x0bh13o8IpynLLJJd10NAvgLhhAlJlW6eoIxnp0ch+wQCLq23vv35ka8IY0m0Flk0BNyI4N/wb2WfdZ+ampqVHSkWtLx9d20JPRTsr9ZjU4H6l3BSZn0dtO9YqzHKhGM+eb+SqUCv/2wEK7G0CklD8YDFR6zazRw4bhHUVbZFsqaXB4/LH4RsiD4bIhTePuuEjzw9DyvOe7etJGZloS3Z0xEcmJcUJX2wac/4GUPyJMU+1uSlhB4BEY/d9TI8xhbWi3J/+JycZcW7y3+wtepfTbyUqn9uisV+DCNPb8/2CmT3hRW4nDi3gr2oPboS87B4xNvgt3snS/W14sU7nfsauD6+6Zj2449HRTwwuRbcPaph4vy/NEQ+derjXVCIHXdb9t8HooCq288ey/69y7weQwpHUfdMhX6fWVuu5wUqcRjnYghL2Xdi00WLKmXBB5HvnmKe/p0mvfJyPfu3VtpbTBLyuF6JTkBQyWwPhHCJCFNdpU8XFmHnXZxTJrm9c2d+RgG9ckOGW7NrtJbeN7AauDjr9bi+dfd41XNfPw2DB9yvE8TkoujtLwacxd+JfjaxZibvE1CgdVZU+/AsEH9fFqLr53OGDMRdR6MJQVcKfAailLmdOK2cvZDJO3B6nRo9u3bJ42J5NDmfTLyBQUFfeFwMr/yCcJgVXY6WEsSCCOesOK7UvQOJyZIOM3TWpe/Nx05KYHNHuhKHYTn7noNUNDz3P897HEhGamJeGz8WAw+oafXxZIR1+8tww8/b8biz35CfUOjaEUqy+6nTBiLS849JSiuI6vNLsQFcjI7Im9WVtfhvGs86+WZRC36dgG8MIvOqM1MownrLOw2jgf/zh6D4SbW8Vu3883I6/J2ATxzJcOUhDhcGs3OzEIAZARE1tUyy1iPNYy+eVorVfF9/s7TSE9J6NSlE5Txth3FSEhIwCXnDA4ZmNlOVcJROhkZOuIuFROqgpXJZZDLZC3plfQIEbSA0+mC0+Xy67Teen66z2dMuQ2nDOgDCrAGWiyNVtw26WUcKKvyiG3z4pwlWPLFao9Tv58aD61EdNtA78PbeLvtDjxQKalSnldFaSK3b9/O/mbw9SSfm5sbJ+chyfn8fWYaEuRseM6dVfjEckFrXS5cVyZpqwK+yMLZk1CYm8kyhc9tKmvqMO7eaagxmmB3NAWn6eH7/afFUMhksBK/Zxe6u3zeWLhjBw08N/tDfPrNui7XjC4zBa89ey/SkuOF+pBAS4O5EROeeANb/y0SXk6fzJ+K3KxUt9N4S53sTOJuX3VAR9i7K4zYf+jZZRmHAz9gt8HwB0tbv07yhbm5E3ges1gnOlejxnMS0ibLHXbYQsg4rbRYMdsoKYlION28/uy9OKl/d1Y1Mbejz+67H5uNjVt2uD2Zff3RbOiyMwRUQoHQJIR0ybzJcMM2GjDVmzF8zMQu0QqlP468YBhuHzcC8QEuZGreEOHOP/zcW/j9r51wHDJ6eTnp+GTe4273TM/AySPugcMDWOGV0WpcHcPuOegSxQJYa7HiJQm2hQOKdxv0+VLXK8ldcwhtkiwecx7ku6lJ6Kdia07GnYx8KAlVv1IVLFXDSpHmh2PSXVe1oAZK6e+uLZWTj7x5KshP60kWv/k8+vXuJvzssllgb5SGfufvGsP9g6OB515bjE+/XhucwduNSoeUKy4+Hf+7/CwkxmuDVnhFJ/cp09/F+s3b29QCkOvp+8UvIDbGfbXqR1+swvQ5Sz3q4ulELfqFsD++eeG+eAqcHOKl4tlIMvLdcnLyXZysiPVOI+anlVlpiGDM5+3qjBpP+5KaUtl6HF1WKmY/dTcy05NY1ea23Y/r/sDjMxaAfLTeZNn7L6F7wWG+zDDkgl9qD5nOdMI9+ZJ7AuZXb78xMqgjLxyGy847BSlJ8UEz7DQv3cPPv/4Rvl/7u1v0yBHnnIyp93tGp7zw2keFgKwn+SA1ATFBKsAK9A0hNe5HaL9FhuIZUtYhycgX6HKXAbicdYKJ8bG42sPbuP0YoZBR421f35obMVdapVrLcHQyGjKgN56aeB20jPpo7kxZDM9GAAAgAElEQVQP90PPzseaDX8xqX3lZ/ORmpzY0tbeYITLKTlWwzRXuFHnaoC+4M4f+4jfWTHEcDZsUF+ceeoJ6JaXhYTYGGg7wb1BAeDZ7y7H8m9/Ablo3Al9Oaz44DnI5Z4DukMuvRdUtOVOChURmBFCoGRidwjBDxMMsQSxqqI0WikBWGYj3zu5d7RVYyY/AXOfLzNSkc4Yfa9y2GEJYf8xZexPrqrFv9L4Gttcu0iVEkSUMPbys3D2sBO9unEo8ETZAx8s+9HrqaX1BOcMPxmznm0L6y+FuUrCjRZu2kUaIOjhVb9uRXlVDcora1FRbYTFYhVO+PTHxfOC0aaqU/p6pL9Tk+OhiVQhMlKJaI1a8K0HI3DqSSXk6Fyw5DssWr7SaxUt5dvPe34CBniJZVGxFgVnPclN2iiMCNH8eHdrJsAKoh6tlwD4Jnc6sv7bt28/6y3IbLDz8vL6y1z8VtaBj1Mp8VZqEtMbIRi8razrlNLOyvO4vcKIGqf/RVpRmkgkJ8QiKTEOudmpQp4xVR4S4/yekgM4WFaNWlMD8/LoAfnp8zeRnNgWG8hhbYDTyj4O84ThhqBc7WUr1uGGK86DohMBw44U1dNLZ/Hnq7CQ8aBy8om9hIQFbzLi+seE1EpPMj0pFt2OsGuxwtyIeZK8BPwzRQbDFNb7gNnIF+TmfgQeV7IOPD81CScyBlyrnQ6YuwCjhnUvrds1uHjcUF4Dci+Fkrz3xtMYcFzvDktyOaywmyV9DobStkJ+LeePnSS8mMlAjb9ppHByPtalwdKIOe9/ge9W/45qI1vgn74uPnv7KURHeedjHTzi7pYMHHd6XpyWADVjDDBUrlOl0yWgU0oQiypKE8fqsmEy8j169IhxNFqpDpc5OXZNVjqiGIIfXYlRI0GpbZpWO124pcIIZ4gY+hemTsBF5wxzux3e5YCtvtrXrYb7iWhg7ca/cN/UOUIr+prq1S1HqD695JxT3FZqHs0K3fzXf8LJfcMf2zvAI3vbN9V3zJ02ASf2a8oK8yRf/LAeT770vsffT1Ap8ESC9ohUsVRCEZeMyy0uLmaCB2Uy8oW6whN5ODazak8KpHAwyblZ1+tLO6PLhbsralHv8t9148v8zX2ee+weXHLBcK9DhGGQvamHAycU9nDgeadQXyBVrr9/Orb92xFEjCAH+vbIxVmnnoihA/uAAp5Hm+w9UIHFn/8kAJsdkEAB2FoPN111ARNb1FlXPQhjreealVAg7fb1+m5qtOHZGravHpqD5/HEnhL9UyzzMRn5fF3eBxz4sSwDUpv305LRmyFPlR6ng3arKHk267yd3c7s4nF/pRGlAfDR+7L2pybdiZEjzhLtGk6jbKsiThaBCFUUOLkc9O82wrvgcjnBO+xwOhrBO8VJeUwNFpCvmIqWPAkFOgnugqpGC3IzcFzvAhzXOx8JcUfWyZPiRKvXb8X637cLjEzkH/cH3GxAv26Y9+L9orE7mmPQRXcJgWVPMj8lHimMlfWiD00nN6BD4/XSqutNcUmJiZs3bxYtLBI18odcNeQwYgapYHXVdDbrUzCuG5mA14z1WC0B4yYQ65hw+1jcPI4tm5XcNeS2CQsgi1BCoSHeT9FbX1AX77QLBWVixn7jln+FrI/2BB9iOo+PjUFKUhxSEuOEv7PSk5GdmYKcjGThv8VIwHwSm0vK75TLvuXv3SgyHEBxSSkOllcJBn3v/nLf8G7dTJ6WnIAPX3/UY9FT6y7zF36FeYu+9riFNLkcc1LiGK+qFE10Xtv7KmtRLIUD1unoVrRv326xFYre6fnZ+QM5mes3sYGafx+uicSMJDaALkKaDLUAJus+27f7wWzF/LqGTgFW69U9D0vfmcHM8xnOlT98tRRqLWQKNghap71RyEziGZMCqGBt8ovveA0MSr2/yF+tjY4C0ejFxGiEv+kPcb2qVAqolEpEqhSg9FxKkVQpFODpfzx90jelVTb9QdMp+FCaZdM/CbQMuOCMgR0IPr756TehGjVYkpQQizdfvJ8pbkFZZ4NH3OWVV/ZGbRQuOYJSJ93pVSoHLAd+8m6D4TmxayRq5AtycueBw61iAzX/vjAtGT0ZXDWhXvzEut/W7QwOJ+bW1vuVSy82LwX3Nnz/PqI07NgcdkstXHZJ8P9iyzhif1do4oTTvHfhYbeY4LITR700+WblRjzz6iLRymRpowa39SN3X43RF53WZpKnX/4An333a1Ampkyauc/fh8LcDKbx6Wviituf9tr21eQ45DDW5DBN2gWNfHDZ1BQZ9ITD7PUz3auRJ6yamsqqGg5gpjxfm5UODUNWTbXTDnMXBy2DdR1Xmq14z2RGXRD2F6uNxi8r3pO0dGdjPRw2SUw0ksY/khqzGHlKOaXUU1+F3BwPPjPfZ/o8X+f1td95wwfiuYdvbNN93PjnfeJ2FVsDfYVQLnzv7oehN7z1oS+NK25/CntKDnpsRlR/i1LjoTjCUifbb4iiDfdUGLFPAjIlS5aNVyOfn5/fnXO6dopduObfT4lU4dWUwyX1nvoRQfdBuy1gvj3W9XVmOwvPY3m9Bd+arQE19t3yc7D8A2YQUGHLdIqn03xYgAi1FnIv7hqnzQJHAEDdDpZXC1hDhPUf6tK/Vz7efaltpTQZ1iKDZ8Pqy54o/jBjyq04vg8zFQUIW/7Uyyd4ne58TSRuj2U+h/qy9E7rs7HRhmkSsmw4F3fpbhH+V69GvlCnu4YHt5B1hx+kJaMXg6umzulE3TESCLTzwNdmC74zW3FQwhvak84zUpPx/bK5rJdEaEe+V8qwCQsgV0UJmTXuhHe5YKsPrJ6IhWnOB1+CEBdDVQp0GVg6t20B5aU3TsG+g4HTRZ8euXhx8q0CFr0Umb/oa8xb+JXXLkdilaunDdHX/7WSsmy4r4sMxRd7U5BXI1+gyyXqldNZL8rqrHREM7hqSh02UBHUsSa77A5QgHaL1YYKH9MuKdd608oPJavOZqrwK9VN8oQh2oGCrhR8dSfk0iLXljuh/GxTgxl19RboslIEDBhWqagy4tV3PsMPazfD7gi9LKe0lAR8/d6zbbYjBh/AundqN+rCYXjozitBEMJShDKViBVLLEVzYWoCk92RMndXtSWreG1ZNUzsWDZ8VKMl5q+yMo/YJR6NvFQGqCS5HCsyU0VTmBpdLlQ6RVM7u0rHnTbvXocTf1rt2G6zCz44+sPy2lMqFPhj9UeS12lrqBHSAY914eQRUEa5yf7ieViFr522V2HvwQrMnPuxUOzTLEQGQ4FDqS5gw/4yvPzWMgE/3S4lVS7IFy1WG4WflrRFr73h/un4y02Bl5Sl0IuQ+BQuOHOQlG4tbX/+bRvGewEjo4YnqhR4/AitcvWklCX1Fiw2scfQXDLu+OLiYo+4Yh6NfKFON4QHxxxefyA+FlcxwOgezQFXn+7kQ53urTCCcOvFhFLqtq79WKxZh9/DaJSHVMJxUMUkd9APvQDpRdherrvvBfy9Q9/hv//40YsgH7MvQpDB5Ib46ZctzNguvszD2icmSo3Vn7zUpjkFjml9vghlgJ02uB8eu/caJMT7VuxFENtnXDFRwAXyJi8mxaL7EQZIJqZT6Vg2/ANFBsNMT+N6NvK5uU/yPNzzb7kZ7cesNMSJ8D42VbjaQIHXsLTVwPM1JmxoZMN9/3H5fKQxBLhbz+C0meHw4Io41q6FMjoRnKyt64By4ulF2F7I0JHBay+nDuyLl5+8S/JpvvU4BCe98uct+OTrtdi+qwRmS9f47TVqFdYte7nNFsWIst3dM2TcCcbh/ltHg4K5/si/u0sw9p5pXocgMIpFRyAgmZheCO32ylJJeFM7iwz6Xh0+Qw9N5MnIcwW63GIAbHlOANZnp4umMFHKJJ3kw9JRA+/VmbHcA5FC+9Z33ngF7ryJGRBU6O6iyk03J9Vj8VpERMZArmzrU/dUS0BEF7c8NBNbt3fEpiHUxOyMjl8FvuiU3Dcrf9kiIDdSuuDBsio4g5CC625tVEj1y2evtPnpnSXf4vUFnzNthb4EenfPxQO3j0F+TjpTH2+NqPhp5C1TsfdAudexztKocE+QeGf93oSfA9xfUYs9EuI3Npczc+/evQfcvnzd/ce8vDydzMV3/Eb1sHCCFCZoYTGpcNhhDWFiELH1B/P3781WvOEFfKn13Blpyfj+U2kZNuRrttZVBHMLbca2O5xQhGhxCqVQUipla/GG70Oug9G3PdXB6FDO93eLnoeSIaNMquKtdju+X/07qPK05EA5yitqvOK2SB2/dXvCwt/wxew2Q3z5w3pM9YL4mBSvRXpqokAZeNGZg0FuxECJYV+ZYOTFZE5KPNIDOK/YfJ35u9RUSp53nb2npGQlu5HPyTtHxvHfs25qXkoiBogg7JGD5oDdGnbUeFDq71YbnqlmQ6EjsKuta5dKJgi31Vcxl+izXntP7aggiIwggXGFmpCrhlw2rcVqqvCKQEmG/qLrJqOyum29wRUjhuOhO66QfC2k6oQgCf7eUYw//ykSMGX2l1YKFHqU8SPmtxabiwz0b1+93qbZpq078ejzbwtcr/QSIGapbvlZIECxYYP6IT7Ot3iE2FponzfcNx1/7yRHgmdRcRwWHgUFUJ52SLwV15Sxu2x4HtP2lOgfZTbyBbq8pwCemXnk5+x0RIqkGphcDtQ6xQOLYjfB0fo7ZdtQtRuLkO/zzzVLJZ+e7JY6n0r1WdbUvo2xrh7X3P0cPn1zqoCrEmqijEkCxx0+fbLAMZMP/bxrJnUIls5++m6cclKfLtsiGXvyYVOqZnlVrfB3878bGiygryqn0ym8iJoe06a/OcqF4yCwktF1CgXZVbwfV935jOhS7o6Nxtmaow+6uXnjZCnHHKxiRujlgH93G/QdWYM8QfHl63K3cMDxopo+xCKyISdDlE2kzGHrFPAuljWHYhsHD1xZWgXW1+Cr0x7GmadJS01z2i1wWNi+FgKho6GXjceFZw7Co/f8L+gnXanrbQ9UxmLkm+c4+6qHOkAWvPHcvRh8AsW+wuKrBsgXf9Vdz6BI79a13GbYD9MSoJGaw+rrwrqo34waE35mTMagJUY6HYn/7NvX4fjfIfAqNT/+NHUkXkr2jjpJDEoHHWyZI12kz5CY9omqOmz1wELffoFZGan49mPPhMbuNkRoiuSy6Sy56NrJKK2oxrRHbsa5pw3orGmZ5iGXjVyhhkyhBDiZpIpgOhkPu3xCh8KmudPGY+DxPZnmDzfqqIF//jPg2vHPi6pmuFqFCXHRou2O9AbbbQ48WsUOR8JxGLJbr9/Qft8djHxhbu7JPI/1rAp6IyURg0T88UanA/WMcK2s8x6N7T5vsODdOvYiiC2rl0gmkO5Mv/yNE2dg6/Yi4RT/xbtPg5iSjhYhWOFJ097sQCRFxT9U4Ulxk7Cwa4BO8Zfd9LgQaxCTD1ITEMNQWS82Tqj/3sjzuEpKKiWP24tK9PNEjXxBbu6t4NGhoSeFbMjOQIQIYHHYVcN2O/1js2NyVcdcbU+9f/r8TaQwYvc3j9GZRVHzFn6N+YuacEcIH+WjNyYfVcbvpgdn4s+/O3I2HNerAG9MuzckYxFsd2Lnt/rtz52445G2ufruVpEkl+GtFGn4N52/m8DMSK7bUQfZv7x5cF/vcYNj08E8F+hylwO4jGWZ1HmjiD+eGFApqyYs4hqgIgh6c7OWihG3K3G8ShFPRT9SxmBtS6eyS244HL8fO+ps3HfzKNbuR0S7M698ALV1HWFDKGPl1afuFki96UsmLJ41QCxUZ4yZyITBT8VPUceQPu+oMLIDG/K8o6jEQIw4bUJ77e8+KoKiO5YJfYneqt9mpnm9f8NZNdIe71eM9VglgUqQUinlEoCfgoG06G2HF1//mFDY0yyzpt4plLwfLVJeacRF1z3qkbVIG6PBW9MnCl8yYXGvgYXLVmLWm5+Iqqe/SoGnjjKcGrFNf2NuxPxaj9hjHbpzvKvP7pKS7a1/aGPku+fm9nTy+Fds4ubfx8dpMU7rPQByNFH8serFn3bbbHZMkeCyWf/d+4iJloal3Zl++SnTF+Cbnza2qISo6r75YBoTr6c/euzMvlQZShWinoRO8rExUZgyYSyGDzmuM5cW8nOVlleDDgJiSJO0kY/TEkSr6kN+wxIXSAx6V0jwy/PgR+0xGJZ5NPL5OfkXc5zrS9Z1sOTH7w8XQLGqU2gntQjiyYfvwKhLzpY0B6VRUjplZwg9xFRE1FpO6FsonG6PJiF6OqKpExPiZh06sA8m3DQKmeniVeJi4x3pvz/83JugILaYjI5WY2wMO+Wl2HhHyu/k7ia/PKsLl+Pw/G69/hGPRr5Ap3sA4KazKEDOARuzvX+Cml1OVDtDDz+bZX9d2WaWsR5rGF02CfGxWPvVO5KW25l+eVrY7ZNeBlVQtpabrr4Ad157iaR1h3LjRqtNKJSiwiQWIbcycQNkpCXh+tHn4uzTToQiIoKl61HThip3b37QI3hiyz4JSu6T9ERRGPOjRjHtNjJSQlEUOKwp0uuHezTy+TrdUg7cGBZlUVnxL9newYjCWDUsmuzYZo/dgfsr2fNj13/3AWKi2U859GlMJCKdJes2bsOEqW1z+ikw+cZz40HY7EeL0IvsjkdeYXI9tN8zVZ1qNJEgsK8T+3YDMSn1LMxGj4LsozJLh16KF183GTUMeE3PJsaij/LYegG2vj9eqDFhPXtRlKXIoCf/bcvhv41PvkCXS6BkTMiTPZUKLEzzjsB3IAwr7JP9ok+028uNKGeEgZg25V6MOJ+ZwEtYk91shKuTCtTopXLNPdOws2hvG30kxMXgywXPHFVG7NNv1uG52dKZu7zdKASAFqlUQKVSgtw9SQlaZKYmQaNRQaOORJQ6EgQX3PSH/h0p/CaXyWGz2YWslaY/NuHv5v9mszlAxrblv9ntsFqb2rbuN2faBGHsQMqsNz/FwmU/ig55LKVMelLGLxYbphvZK9V5uUy3Z8+ekubxWoy81ErXu+K0uMFL0JXQJukkHxbfNPBbow3PMRL6RkWp8euK9yVh2QSKsJp1d3TKJbdNeyH/NKUaHk3y6tvL8N4nPxwVW0pJjMOKhd5x3aVulEDWCL6ZCqC8CZWTLUhNgPYYKHzypgfiiR5Typ4vz3E4Y7deT9StgrQY+fzs/IGczPUb6wVbnpGCbC8+RPLFk08+LL5pwEynXwk58z8sm4d0Brjn5tV0Bbn3fVPfwNqNh2n0mtdyzw2X4forzvNNUSHYi75cHnvxXXy7elMIro59STIZh0/mPQFdVip7J5GWhJtPMMIHWqXVeuoyVK3Cg8cAfAGLcqX45Tlwt+w2FL/V0cjrdP/jwC1imZACIVQE5U2OVbJuFv2xtvmqoRFvuSm0cdd/9CVnY+rDd7AOLbTrTJcNzbfvYAVG3jy1AxkGuSDmPj/BbzYhSZsPcmOH04nxj7+ODX8wZyQHeUXSh7/s/KGYMn6s9I5eesx+ZzkWfCyOYq7kOCxKpZTJgE5/xA42prSaHeCRx9yiEn2LMWhRYYEu71mAd4tH3F4zBCtM6ZPeJJw66f/9RBWwN5bXCGmVYkKnLgrARmmY6tiE4TrbZUNzznn/C7y1eEWH7ZB//pP5TxxV+fN0an1hzhIsX/Gz2OULud+J4WnJnCmg+ypQQtk0t02aBWLbEpOhaiUeDBJmvdjcofj7jWU1qGZnCvujyKBvQQQ8bORzcr8FB6Zv5hiZDKuyPFe6WngXqsL++IDcK9ttdjzKWBz19qtTMXiAhGpSnodAltGJQobvhonT8e+ulrhQy+zd87Pw4WuPHlUwADwPfPz1GsyYu5TJuHXipfA4Vbe8TLw362GoVIqALYeCuWNue4oJgIxO8e+lxkN9DMEXiCl6Tm0DvjMzcwDb45ISozZv3iwERVud5HOpkoOJoHGIWoXZyZ4RBSsddjSGaf7ErhvT73TmeayqFgQ7KibdCnKw7L1ZksilOxOwrHn9VDT0v7uehcPNie7sU0/EC5NvEdvqEfe7YX8Znn55ocDqFKpCaa03XnU+brjifCGLJ5DywhsfYemXa5iGHKhSYnJCcJinmBYQgo3+stnxOONhTzDsLmfh7r17i1qMfFZWlloljyCABKZvs8kJcbjcS142YccThnxYAqOBGqcLN5TXMA3247J5SJMQgO0qgu8PPv0RL7/1aYc9EQTAbeMuxi1XX8i03yOpEbkpNm3dgaVfrcXa9VuZqxiDvce0lARcfv5QnD1sAHIDGGRtXveGzdtxz+OviWbTUHsFx+GdlPhjAkpYynWlFJbREipfXS7u9OK9xWtbjHx+Vn43Tu76j3XSzzJSkOUhs8YFHpQfH5bAauCzBgsWMGDNT7zrWtzwv0slTd6ZWDbNC3O6XHj42Tex6tc/O6yVCMBnPn47hg7sK2kfR1Lj0ooa/LhuM5Z+uRr7JaTHBWKPsdooDOjXHQP6dxMKr4i7lel058PkxD875vanQPAWLJIeIcec5DiWpsdcm9GlVSAGOSbhcHWRXv9Ri5Ev0OnOALifWDpT7upvXjJriByESELCElgN2IUgrBEmkeALBV7Xfv0OVEp2XlWnzQxHY31gF8wwWp3JjGsnPI+9BzrGBaI0kfh47uNITT76scPLq4z4b88+IU7x5z+78de/e/wm5yb1x8dGIzc7TTid67LSkJ2RhG55WQJ5S2fBHz8x8z189WMHsiKPd8eIqEjcpJUGuMdwqx0VTa4srQYlY7AJ91CRoViAqBFe4IU5eeN4jn+fpbMYnEGYIIRFi761MdidGF8pTvY976XHMHTwCcyTdEXOfPPidusPYNy902CzdzwYkIFfNn8qIiPZX1jMmw7hhvQYEwF3Ta1JKPsX/hhNMFsaW5ioePAt/6ZqVIK10Db/idEgPjYG9KLsSlmz4S9MfGquJJiHiXExGKY+tq436zX6X2k1qH6GSXjMLyrR39b6JD8Z4MQp0gFEy2RY7SWzJgxlwHQJfGpEl5dgiP8W4YHNzkzDlx++iogIqmhgE0ejSUip7ApZ+fMWPPTsfLdT52Wn4aM5jyFCAmZ+V+whPGdbDZgazEI2TYUEjlIagbhbicM1LB01cFeFEfsdzAWmPxUZ9GcdPsnrct/mgRtZFBsvl+EHL0Qh+8IsUCxq9LmNycVjXJm4f/Pd157CwBP6MM/Duxyw1YuPyzygxIaEY0J4Ju6kdzcd3n91UtD8xhKXGm7OoIEHn5mPn37ZwtCybZN8RQReSoqV3O9Y6DC7th4rzcwseyVFBr2AQya4awp0uasAtIGn9KS0AoUCS9LdA5NR2iSlT4YluBoghEpCqvQmvXvk46O3XpDEqWo318LlYL6JArpJggJ4cc4Sj2l2A4/rIVTFhiX0NfDd6t/x6Atv+7RQivlNT4pFgeLYRZ30pLgfzI14nZ0lyqWK0qi3b99uazLyubkG8MhhuSqXRmswJcF99DucH8+iQf/b6B1OTKgQ981/OH8a+vdhh/J1OR2wN3Tdad7hcGLi03Px829/u1XS0ZpD7/8dETojFJccxHX3vYgG9sKdDouPlnGYmxwP+jsshzVQ4nDiXobnvrmHA3y+wWAo5gYMGKAwVlZRKRW9REXlsYQ4XOYhR/6g3QZnyGT/im7liG1AvnkCLBILwQwZ2B/zZz0uKZOCjDwZ+64SS6MVN06cIWSbuJMxF5+Oh++6Kuy66aoL5GVeU70ZV931LHO6pLctZETI8XpyXPg6t1IS63Pf3MXlcp5WvHfvOk6n06VHgBPnLTvUc2l6Cshv5k7CeDWd9+SxotJ9smAGenbLY14Y77TD1sBWeMU8qMSGxrp6XHXHM6iodk+cctvYi3DL/y6S9PKSuIRwc4kacLlcuOH+6fh7J1FSBEZ6KSPwTGIs2NMHAjNvKI9CfK/E+8om/Mgig2E5V5iT04fnZO6/j92MtCE7HRFuMCUc4FEaLoJi030AWo0rqxHNmadpzjvzFMx8Whqfqr3BCJezawvaSiuqMfrWp0Ane3dC9IG3jx0RUACtAFyWY3YIqfnwrIrKU8gxPTEOEWHPjaCyq0urYWE08hz4m3YbDO9w3fPyhjldvFD+Kiak6A0eeF3rXE7UdeFnvtjaj7bfbyirQQ0jKh2lU+bpMplVwLucoCrYrpZdxfsx9t5pIF+9O7norMF4fMI4SamiXb2no3H+xZ+vEgDYgiVpchleTY4DAZcd63JNWTUTKm2TnvgHigyGmVxBbu5l4LGcRXneIIbpFE+n+bAEXwNSfXOjRpyNJydJxJq31MFlZ0a9C9qmqfrzpgeIRcg9PO3xfQrx+rP3HFUUgkFTZhAG/nD5Ssyc/0kQRm47ZJyMw5yUMDLltWU1qGM83PEcXtij10/i8nW6GzlwTPlO3gqhDtitEEeJDvq9cExMsMPmwCSJRSafvjcTPQpzmfXTlVWw7RdJxBt3TX7V49oz0pKw8JVJIEyWsHSeBt5Z8i1eX/B5p02o4TjMTzm2s26kfMGTXd9tKL6ZK9DlPQDwAsaBmMTJZPjRQ7VrOOgqpr3A/H7A4cSdEtKommc9ZeBxmDdriqRgpcPaAKeVwEm7Xr5f+zsemeb5LEIl/EvnTAEhKoYluBogsu/7npyDjVs6n/WKXDZzU+KQIGNKBgyuIrpg9HsrjSixM1a98viiqER/KVeYkzuN5zCJZb1Jcjm+zezI90hTHgxXurKo0Oc25KLZbLXjmeo6n8eYM2Myhg05UUJ/IhWpRAtIioSewWj60RerMX3OEo9DE4vR4tcfQ2Gud2rKYKztWBmzrLIGV97+NEwNvkBgcJCrIuG0+tK3rYZnJ8chWwJsx9FyfZ6tNmGTlTkpYn2RQX8KV6DTzQc4JpaGNLkcX7kx8mHkyeDeQvUuHtONJmy1+ldNnJuTgc8Xvgy5BBwY3umArQsLpNpr9tV3l+O9pd45Ql964nacNri/pK+W4F7BI390Ci2QN3IAACAASURBVH6/u/Q7zP3gS583E5vXB6knnIZ9676AuWK/z+M0d5yaoMVxKsUxlUtPnM/E/cwkPHYVlei7cwW63GUALmfplBMRgWUZKR2aljtsEnI3WWYKtyENUIzjt0Ybnq8xBUwhvuDNdyXcgbuNz5z3MT78zDsy9sgLh+GhO64EYdOHxT8NEBb8ZTc9AbvD9yI5dWI6soePbFlI2ZbVqN3zj38LA3CzVoOLotTHjKEnA0+GnlGMRQZ9PBn51QBOZ+l0cqQKr6V0pP0L++NZtCetjdHlEoKrpY7AhrMpC+3bj+cgM73jy9rjCruAC1ZMW29/tEIgBfeWMpyWnIAPXp0EIgkPi3QNEB/vi3OXYtk366R3btVDnZSO7NMPG/jmn4xF21C+dZ3f7sAz1CrcExfNVrLv1066vvOmRjuerWF32Z44aGAEGfn1AE5mWf6FURo8ldgRtyZs5Fm0x9aGzkrv1TXgS9ZPMrZh27QacHxvLHjtKUnujFBz29CGlq1Yh+dmfygaMnhu0k0497QBkvbrg1qPmi704jTsK8Po256UhAXvTgHa7O5IG3SOR92Yy/di389f+m3odRERmJ6kPepz6XfZHXiw0n0luDslW50ODRn5PwAwMUyMitbgETfgZGF44cA832stVrxk7ByGpsn334yrR10gaeGh5rahxa/8ZQseesY9Fn3rzfUszME7MyZCpQoTUni76HX1ZoHEZd/BSkn3hrvGqSeegdi83qLj2OqN0H+3SLSdWANKsZx3lPPD7nU4cE8Fu5F3chDcNQRpwAQ8fo02CvfFtcV6DsMLi9164r8TbPDkqjrmcmXxEcVbUCbK5wtfkVQJS6Na64iqL7SK3jb9uQN3PPqq6KmT9vzMgzfivOEniSvoGGthtdkx8cm52LDlX1E9iqqG46A76wqoYpNEmzY3sJtNKF7BRE7ndUyKwLx8FGfeVDiduKVcHIG2WUmcNSKFK8jJ/Q8curFcjZu1Mbi9nX+z1umAycWYt8kyyTHUhvzuj1fVYa+ja7A7U5IT8P2nc6WxLoWgf55uGQLGuvH+6SCCcDFJT0nAvBfuQ2YauxESG/NI/Z0qiafP/Vjwuzuc/j/HCk0Mcs66AnKldOpBh6Uee755z29VUgb9IwkxGHgUfrVRtStVvbKK3OnIopO8AWDDkr87TovrtdFtxg/DGbCq+3A78rvPrDEJmTP+P1bS52/do0/PAoFcRAqxcyj652lPBGp2xe1PM2GZy2UyDB3YFzMevw3072NRFi1fiTfe+wKN7HnXXtWkze2F1BOGg/NDnw5LA/aseM9vHz1d0XFaDS6PUh9Vl5aIvInQm1UIU56M/EEAaSydHoiPxVUxbUvHw0FXFs0dbrO03oJP6y0SWNelje9L6xP798L7c5gofluG70pOWG97JLKKceOfFwKHLBKpUuKy84biwTuuYGl+xLchtwyloK5YtUkgBg+UJB9/OuLz+wABABFzNJpRvOI98AxfZd7WT3Bm52pUuCO27cE0UHvuqnEuO8gOHuiScT25fF1uFQcw1YJPSYzDpVGaNnsLB13ZLvVfVjtmGeuZkSPZRj3cSq5UwWnznbqvW4FOONGrlArmqYkTlrhhQ01sdgemvvQ+vlu9iXlpGnUkRl5wKu67ZRRznyOpYVlFDabOeh9b/ykCGfpASnT3ExERFQulJhqxqdmSvgo9rYOqYvd8s8BvQ0/jn6BS4PEE7VGTS385A2FQs155p6w/l5+jq+c4jgnZ6dnEeJzX7vMnbOS9Py61LheeqzaBUp/EvcXSH72oNB2S+w+FMjoOTlsj9q5ZDpuJ3WfXesbE+Fi8+/rTyJcAS0yQxARNHIry86a/QYTSNglGLSZag/OHD8SDt4+RVBkcivunNW3etkuAgthTchBOZ+DvwJgeJ0GujobNWAGnxSTkqmuSMhCb2xMRkUxmxaPqAmno8xQRmJaoBSHpHunCShgk7JN3nUTuGgJCYDq+vZScgNPUhwMqDp5HqYMZR+FI162k9VP+yRu1DVhjsQalGjipz2Bodb0QoW77IPFOJ/b98gUsFcxkX232pVQocM2YC0GVsUzC8wL2PKFWhqJUVtcKYFrb/6PQE7vQF03/3vl44r5xSHdTAMg+Uue3LK80Yv6ir/Dr5u2gfxNJejBEoU0QDhYuwqJxMwcFYZP6D0VMZoHP0wfS0CfLZXg+MRaJ8iM7BjOqtApOxkvKgSfsmlx6Opleb7OTEzFErWq5YGHMGvf37kqLFe/XmUGn+ECKXKVB6oAzoEnOhCzC83uZDO6+NZ/BUkXhFt+ESEYevud6nMoCaEYZN0QyEqKGnrJGVv26FU/Neh9mizSXlozjUJCbgasvOxOXnnuKb8rshF41tSa8/dG3+HnjNuwvq/KIv98JS2k7BcchLr8vUo4/zeepA2noY2QcCPOmwAOFqc+L7MSOo0ur4GA08jwvG0ZGnqIvhy23l8XOSE7A8FYn+SqnHZYAG7JO1FXApyI29ZeN9Si2B5Y+hXA/ko87FZHxyazvY4GMe++qT2CtZQ/StFcIZdx0L9Th4XtvwKAT+3rVl4A/Lxh6xrsv4NoXH5C4Y9/88Bt89Pkq8cZuWkRHqdGney5uveYiHN/H99OpT5O76VRbV4+Fy1Zi9fqt0O8rCx3D7matmuQsZA27xOfAbJOhp2Cs/65BNcdhQlw0BkcemYVxow5WMWflOTmcTEaegBCYwD2eTozHBa188gftlAIYug91oB4msXHsPC9UqgY6JfKwcZeAM9NqsfQpXfLTx7A3sGNduNsrGfu+PQtx9y1XYuhgz8XRAm0gkYB38ol+V/E+/LZlJ7btLEZ9g0UILJIfntA2lYoIKJURSE9NwnG98tG/Vz5kHLD0qzVYtPwnnw0j5dpTFe3FZ5+MYYP6Qd4JLoB/duqxav1WIXi6r7QCFVW1QXPFiN3zvvwe3+04JPc/1ZeuQh/KutF/vxAuu/+BYwXH4YYYDS6Mkp7P7/MGAtRRik+eA38iGXmqX+6IOuZmQZMT4nB59OHsmnDQFfi43oJl9ZaAVqsSoFNyv6GITOiI3S/1PqFKwpJVn8DZaJba1W37pMQ4DDiuN8ZdeTGO79ujQxtKe7ObawJy4vK24FW//oklX6zGth3FkvO8IyOVSEmME/LjKdXS5efXhzpSicLcTOTr0kF0hCf2LURWOn11+SZUoEQn851Fe7F+83YUGQ6iZH+ZZFeTb7MHsRfHIX3QuYjJKvR5EjrR63/4CE6r//czeeYvi1bj2pi2GYM+L66TOkrJroHL2Y8r1OXu5wEmloWJ8bG4ulWe/LFs5Lfa7Jhf24D9HkimfbneZNyT+g4BneADKdbaSiHrxmUPbJCckCxPHtgfw08ZgCGDjj/Ms8rzsJuNcDn9P3G118O/u0rwwNPzhMKnUJYojVpAv9TGaKCN1oCydjSRKuHEL/yRyYQK0zqTGZZGq2DA680WVNXUobrGxFS5G8r797Q2mUKFbII8iNL6vHyX3QrDSvpCZcdw8TYZoViOjzsycunJb0JGnlV4uawHneSLATCRf94ZF4MbtU2eHZqMCqGONalxuTDbWI8//CTwaK23yIQ0JPcbAnUS07vWJ5UTScP+n78M2glbJpMJqZfkwx90Ql8MPqkfUuPV4B2BuUcoQ+S1BZ9jwdLvfNp/uFPoaCAyPReJvQYhSogx+SZNMadPQQeYQMiQSCUejmfyWgdiOp/HaOR5XCWh4tXJIY+M/E4A3VlmvVEbjTvjmt7Ax5qRp2j2QlMTBLD/oZ8mbVOKGfkoozPzmAOqLNfJU5taww6U/b7SnyEk9VVHqpCemoiM1ARkpSUhX5eBAl0G0pLjkZighSIignk8MTJv5oHCDbtcA1yEAtreQ6CK1kKbkgWZBKay1ounGNC+tZ/7lUXWerxT1So8EOInesrYu04Cdk2Ey5lJRN7bAN576sQhTZCrhlw2JJQceOAYOclvaLQJbCyVASomofTHxF4DEVfQD5yc3dAF4ums/GcDqndsDsRQfo1BwVzKVomPjUacNrrp79gY4e/EeC2SEuhPLJLiY0E+74uvfwxEQReWo0MDkak6RGbkQyaPgDYlA0q1j+4SnsfB336Aad+ugCjmTLUK94awoS9zOnGbBBRKuV2ZTCf53wEMYNEQBV0p+Epi5V2ocATe58qyjs5qU+V0YV5dg5A1ExDhOMTm9kZS70GQR3ZRsEd4KL6Had/ugGwpPMiRowEqhpFzHKiI0R9JlsvRV6lAD5USMRwnEHXsdzjwj82OzY1WpspuWaQG2l6Dm5bBcdDEJSI63rcsMhqi+r8tqPpng98wCKSjG7RRuCREs24MDifGV0iAGlZExJKR/xXAEJaLfn6UGs8kxgtNCV6YYIaPRqGUSHLLfFhvZi46ENODJiVbgB9QxTIlMokN59fvhCK5d+3naKwulTyOUqnEwsUfYub0Gdi4YYPk/uEOwdcAGarsmCj07pWHbt10yIyNFtxlq3/+Awt+2OCTkaeisLPVkRgRpcHJapXH6km9w4Fnq4zYwoBsGdNzoACJ0CyKSA1iU8l949vXbUNZCUp/+0GowvVHIjjgmYRY9FT6tg5/5hbru9PuwMMSmKGcHNTkrvkR4M8SG5x+HxCpxLyUJgzuKocdlk7Oh2ZZo79t/rE5MK+2HlTYFAhRRGmb/O4Z5HcPHaGcYyqWohRLKTLthecx5sorhS6rV63C8k+XYc3q1aiv7xxGKylrPVbaxioi0FOXjr79uqNfTjpOGNwP0fGHs1cO6Pdj6owF2Fy0T7JKkuRyjNNGYWR0FKiIiEUofjW+ogobG70H3ZUJ6dDoerYZkmCKY1OyBLAzX4Tu5wO/fuN3QJb2+mFaAhsUgC8L9bHP+kYbXqhhfmadRQa9kivIzV0CHkw4q9kREVie0fRJddBhg9PPzz4f9xmUbhTQWGgy4wdzYLJBOE6GuML+IIyZzva7syrIWleNvauXgVLSWOWb775F9x5t8+Mpr3vtmjXY9Nsm/LdzJ4p278aBgwfgsHfel55WJsPgSBWyIuSI4DhUO13Y53Bgu80OUxdVZZNJ9M8x4v6qZMdo0JMKu/KzMOj4nijo390j8uNP3/2Kqa99iAaJhxaNjMO4mGjcHBvjk6Gj5+nSA+Wo96J7mVINbR/39NKauCREJ/jmvqGAbOnvP8G09z/W29ptu/M0kbgj1j+QNb8W4KbzZ/UWLDAx1whUFBn0KQQ1/AYH3MGymFS5HF9nNhXoHC058vQQUmD1tdp6NLgC80hSEVPaSWdBGdPk2gpFcTrsaKwzou7AHtTv+oPZl3nBhRdi9huvi26JUh4PHjgIvb4Y+/buQ0VFBSoqylFrrIXJZILJVIe6OhPqamtRVV3l1wvhptgY3KyNBlUxthe6ojtsdvxsacRWqw077XbUBCiA7k0JuoRYvDL1DqzfuA3fr9+KnYaDMEtkXqLdJKlVSE+KR2HPfAzIScOpZw9G9KEMN2/zu5xOvPHqh3j3e/LGsgvp8OIoDe6P1zKf3D2NPofwdGq9nzpj+50KyrZxJxHKSMSl5UAmIQur9Tg1/21B5T8bfU4bJirBhWkJfuuBXfviLefWNuBbM7M76t8ig743V6DTPQVwU8SHh4De9l1m2lGTPklUWm/XmQWkyEAIFXrQyZ0AmQJBnhCINbUfw2FthLm2Go31h4M39rpqNOz5iwl3hj6nV61Zg6zsrIAtj74ESktLoS8uhr5YD71ejwMH9uO7Fd+Klu23R0ZlWVSR3YEfzBbB8P9nszMFClnGbd2GqikfGjcCI684D/IIOcjo/rH2DxTp96PM1IBKixXGKiPMDRaoNZFQx0QhShMJbUQE0mOj0KubDr0H9oXCBwq72soaTHpyDn7bvVfSsnspFULMTRcg8C5iMTp7X6nXanBNdg8ovdWHEMBZarbP7htz+T4c3Pidz376kSFWEftkdR22MNbo8DzW7inRn84V5uZO4HnMYrkbYmUyrMw6Ooz8n1Y7XjKaUBeg03t0ei7SBp3rFR2SRcdBaUNwwI0NaKipgL3R4nYKe005GvTbmRwMCkUEln78MQq7d0ekWh0QkogOJ3CeR7e8fK/qGBsTjQmtfM++6I4yqJaaGvBzYyN2BcHgD+9TiMkP3YCEFCZeHl+20KbP7h3FuGfKayivZ/6kF06q12mbXDOBlocra7DS7P6eo7kUsYmIyu8vOq0mNrHJfcMYF2g9ILkl96/7XMC+kSqEP/9RWudcO5a13VlhxAFG1xsH7tPdhuLRXEFO3rXgeCb23CgZhzVZ6Ud0jjy5ZN4zNeD7APneI9TRSB94NtTJmSzXqFPbkG/Saq5HfXU5XAzpro6GWpgN/zbhg4sIgX9Nn/Ei+vTpA21cHGK0WqhUkQEz+HabDb26d8TGaV6WnAPWZqVD5cND72lrVM28uK4Bay0W7A5gPEEtk+GRm0fi3AuH+XQyF7sWzb//+M06THl9MWwSDi59lUo8nxyPNB8LksTWttrciAcqPUNQyFQaaHsfSqUUu+cUCsSl50LuBWbb0xD2+lqUrP4UhH0jRchl82l612fENa/5+rIaGFljTDzmFZXob+fyc3Iu5jjZlywbpwfql+wj18hT+tHz1aaAUfBFZ+YjffD5ATNsLNeApQ0ZdEt9Lcw1ldLJPHgelgO7Ya3Yz+S+ueaaazBq9EhERUUJBM5xcfGIjomBQqn0Sy9VlVUYfNJJHrd7c2w0bo/1Hf9ETI8GhwMv1dRhC+HKBCjBoDAxFpMnXoc+/boLLpxAicNux8xpb2Hp+r+Yh6QD283aGIzT+pbF0jwRodCSeqg4khf+BwHwjQMnoH3S/z97XxmoHN+dcDI5Yo+ThjUfm5YDlQ/ZN43VZdi79jNQCjGrkNttWQgZ+WvLqiV4H/hnigyGKVyhTjeEB8cUnaHbcmNOxhF3kqcbbJHJgi8bpL3FPd0IEZEaZJx8ASITmfjPWe8nv9s57TY01FS28bf7OqjL1oj6oq1wMXzi0qn+kUcmYcgpQxBxKEhG/y0uIRGaqCgoFArJBv/vbX/jshEjPC5/dXY6ogN4ivc0EaUDLjCZ8EW9mfkzWUznlMM+afw16NunENFx/rlIaiqqccfEGdhVwUb5SMHc/iolpiclIEEiPDIVUbnACxwS5G+3MaZQP15dB+I49iTaPkMgU0qD/FVrExCdmCr5vqor+Q+lm34Qu0Qtv5O+loeQkb+mrJo5QYTnMWFPif4VrkdeXg+Hi9/Bums6ydPbrewIof37z+4QOFaZP3G8KYLjEJWqQ+bQi1jV1QnteNitVpgqDsJhC8xLrPWirWUlaCzVM2UoJCUlYcqUx1DYrbDF2NNYAoSBVgttbCwUCiUTd+r0F17EvDlz3J/+KCMqJwOBOwuzXaa/rTY8X12L/+yBCdbSc3RWdx3G3ToayfFaxCfFQyGBSH3PrhJcN3E6zIyupRiZDHfHxWBUNHtaIJ2/G10u1LgcPkMyLzZZsMRLjCAqtw8UPlS7yuUKxGXqII+QRv6xd/WnsFSxFQKGmpEncDJPX0Ud7mIe1xeV6N/jCgsLk3m7o5ztNgcWpCUJ1FlUDBXKQpkzs40N2MRQeceyD7lKjfSTzxdIikNBiInJbjGjtnw/kwH2Z828y4H6/7bAaWEreIrRxuD+++/HCSccD7Va3WFqOuWT0Y+OaQIpIwRLcvU0C6VfDjzhRBiN7su3h6kjMSu564Jh5LsfX16NnTYizQmcUJyhV5wWhVkp6NYjF7k984U4o+DpcDW5Qpr+dmH/nn14cen3TJlBZKgGRqqE0zu5aVglUBzOf9vseKzKM3GNKjkL6qxurMvq0C42NRuqKPYvosaacoFMh0VCzV0zprQKdsZMb47nLtldUvwlXXFKo7QBHFMNLwGUjYiKhFGCX4tFmYFqU+/isazBguX1lsAUotDpPSUbmad6dh0Eau0s47hcTjSajKivKmNpHtA29tpKmEt2gGd8wdMJfuzYa3DRxRchNjZWMOaehNoqVSpERkaiuroGF55/gce2r6Uk4uRIJsbKgO6//WBU8HNveTV2BNjYB3LRcTIZnkqMxymtuJlZxie3zIEA8Q+YXDzGlXkOvkaQ66XgOJZleWwTGR2LmOR0UBEiixR99TacVvF881AKvFLcg6j/GG08iPpPr9dvFF7rUuCGz9Wo8XCCFqYQM/KUNUMsTZ83BMi4A0I6ZPqgcxCV3vWQBISfTYa9sT4wRAksD4KnNtbyvWgsLQYvobgnLi4ON998E04ecjKio6O9+lJ37dqFu++6x+MS12WlQy3hREoDtX4w2M+ybFqq53ncU1aFf2w2ppM126j+taIKYEovvSTKNyC8QPM3e8sKiYiKRXT3E/3bMD2vcjniM/OY3DflW9fCuHub6JwKDvg4LTSya8j1/JAE3BqCGd65d++BZiO/AsD5ojsGkBEhx4LURJgDQKjLMp9YGwvPY0GdGd+xV4GJDSn8rtImIOfsK5lPBkyD+tCIKlNrS0vgsAWmYMuHJXjsYt77H2xVByVzuiYmJmLMFWNwxhnDhawcCsy2lo0bN+LxKU94nHdDdgYIRMqT0CnU7HKh3ukEC6W68Dl7KHagAAeVTIZITiYgNjb/xqI3qqy9t6JKgFToalmUloweEvz7rdcbDK6IKVV12GZz7+IlkDICKwuUaFMyQSd7b0Jw2wS7LSZaGYf3U7vONdh6fV80WPBOHWuuP+8oMhgoWMELj0qhLvcNnhHagD7/PkxLZI6siynR198p6+EtUwO+bRD/5JI0B8chqfdgJPRkQl+WNDRzY6LPazTDWFoiWvHJPGYQGzbs/hN2E/nPWT8k2y4mNy8XF1xwAQYMOBHJycn4bPlnePfdBW5XTDcsZXi5+yin2UuDQC5Ppf7RsghoKHbAoMfXjHX4oK4+oP56hmnbNBlNGTyHuB+k9qUUyAMBTqyYV9uAFR4OYpRZQxk2gRRlVAziUrI8Fk9Vbf8NVf9uEp0ylCpeX6wx4VdW2HMeu4pK9AIZ1KGTfN4DAD9ddMeAELhZkpboE1wpy/hibehB/rXRiuk1bEFAsfFa/07BVd3ZVyIikj37QMr44m15AXKgK/zt4mvz3oIIvOt3bAoIwbK3meiG/S0nw62x7SzQvCiZHHHyCK8GnzIgri+tCGhRldRrRNXpVKUuVQh4kHQZSPmqoVEg3nEnhF1DGDaBFgrmJ2Tlu3XfVP69AdU7xclz5qfEISVIhWJS93tjeY2Ur8Rvigx6IQ2wychn514FGRazTEoEAUu7qMyXTu+3VkjaKMuWhDYxOT2EytWuEMqUMZUfQGOD5wyErliXL3NSIVbDf38Ezdh7MvJ1LifquiBOFCuPQIzMczLnNpsND1TUoEpC/KK93slMXxytEap7yQVFrkkWh9DTifG4IKpjdpPYdQ2Gkd9qteOJavf3N6G0xvYfJrYsn3+PSUqHWtsWLLBs80+o1f/rdUxyCX4SIv54Wuj/SqvZC/M4vFqk148/bORzcoaCk/3MosWuyhutdfG4qbw6YCQeLXvlZMgadgk0XQBL0ORv3wuHnyQHLNets9tQBk590V9wmgP74qL7b1NOxzTWUoety74u5eCQrvCcq01fn7VOFx6vNuJXC5t7sYmhqAlPhtxFzW4iQn+l8cwuHreU13h96Al6+fUU6UHDYLhrCCPopnL3BVu+VL1KvZ8Vag3i03Qt7hvDyqWwGiu8DkOYPou76EDrbmFXllYLRWhMwmF8kV7/aouRz8vL08lcvJ6pM4BZybHI8xH+k3WO1u0qnC7cXl4TcB8nQQHnnDEKhB7ZmWIz16Ou4gAoY+ZoFzL2DYbtcNR5TqGTogM61ZK7pr1Quh8FXLtK0iOUQqBWTIh1zMoDexx2/NFoE3z3lIrZWs7URAppjwSO1V5aQ3xTjv4d5TUo9xDojeI4rMlOF1tSh9+DEXilr4NRpe7vAUp7jD3+dMnrlNqBXibxGbmIUCjx3/I5orAd3RQRmJ7kPYArdQ3+tB9dWsV8yJWBH73LYPi0xcgPHz48Ym+xnpxw4ncpgHExGoyKlv4Z6MsGKXuG0q+Y32CMk8R3Ox5JfYe0KcJh7OpzswZjJczGqqAXL/m8wCB2JGNv2fcfbDXMdXduV+PJcO0/dMIN4ha8Dk0++mgvbhtPncccLEdxu4rV9dnpbrHxaYz2PA70XNDzQc+JOzlToxaKtqh+hF4K9JKkP/R1MChSBaL0pJqD1g9+MIw8rY1y5SlnvoMQnPDxwzvn0nGcAKRXtv4b0fkmxcfg5Ehp1bSig/rYgA4HYzy8JN0NyYE/ZbfBsL7FyNM/CnS5xQByWdbQmW+49+rMWB4gzBlhbxyHrFNHgDhXO0PI315XfgA2Sz0zMUdnrKur5iBj33iwGNbK/T4tgbK7fsxqixkUyMIdnxYFCJk3CXL35BfexrxofxnK2vnrf3fzpdI8hjuyntm19VjpB6oq+Z7T5RG4Ky4GZ2vUQeOLuKfCiL3uYHI708gDcNQbUb9ri9dLTS9Bij0ynXp9vWkk9Pul0Ybp7LR/4OUy3Z49e0raG/llAC5nmVdziP+Qpa0/beitf11ZNVOQiWUeyn3PHHYpCGAs2EJgYXUV+0EkHVSmH5a2GiBjLxRVlRkkqYbM6Pp2RpCAssoZq3AlTSahMZ3i6TTPKnRHLDY14JWa2jZuSE/uKBq33uV0W2lOp/mrS9meE0qcOFUdidPUKuQrFKA8cArotv4TrJO8p1x5gdf1uOC7a5qvDR0wLCLUgIkyGd5ODR1mtxk1JvzMmD7JA+Y9Bj3hPAh+wJYXVYFONxngnmG5STsrw4YYUIgJJRAS3+2EQ3yrwYW1sppNaKgqh0MCb2og9nekjiEY+6qDaDy4R9RHSnt0ZwQDhbHijw5TI5QeXSytxyW+WaLF+67B0sEX39xubXY66CDVXry5pLyl19FI0CUwIAAAIABJREFU12ujcUVMFBLkclFgt2Dpc6axHuvcsLAFO7umvR4b9P+ASHK8yS2xUbhIIw0Z05/7R6yvxMyadUV6fQt+c8udlK/TjSQmEbHJmt8MnQG/Oa+uASv8LHaioE7GKRciiiLrQRTytzfW1YAyZsIiXQOE8W2rKUPjvl1ev3zcZdcQpvnBAOGsSF85QIeeFA9IiOQLJ6rBb81m7LU7Uel0in6ZzklJFADFWksDIUE6Pd9bHl0hAN5KTcLxEmgEK8mlxggjLEVfb9Y14Gs3z3Ow8uQ9ra3u71/g8nK/kPvqo9REr1XVUvYdiLZSgq4AN7PIUPxA87yHjXx+fj/O6WJmHZieGItuSvbPU182el+lEcV233H+VNpEARY4QsOOUCdlneSGMVUcAGXLEHBYWPzXABl7u7FCCNJSgVV78ZQn35XE8mkRSkQcOnlTFsnH9WbBsB90sBn19nu8M06LG1uReZAWDoh8GY6vMMLggRbO05eBu6sl9jLx5wq/XdeAL90YeZlCCW3fof4MzdzXZbei7m/v9BnEZf12Sui4amhzIw9WiR4OWow6z43bXVK8sIORz8rKUqvkEVSSxhRruDxajetiguvbvrGsBtWsVFftLnN89xOQ1HsQ6FMw0CL42ysPCtADTTiwYQm0BqwVe2HZt/uIMPLkqiGQsjlGk2DcySXjj9Cpm07fJAJUg8MGenl4kzsqjMJLpb0QMcj3md7JbWhki8sp4P0E4wTfvCaPRl6lhrb3yf6ojLmvQFpftNVre8ocpAzCUBExFM+OB6HDmTX0WxuDXqDL/QdAb5bNpcrlmJcSx9LU5zbXl9fAKBHsiSBr04dcACLWZnxfMa/P2mCC2VgJu0SeSOYJwg1bNEBFVCY3ZeeeTvJdmUJJ+fEpEQpQUVRzoZKJd6HM4cR/Njs2NFqxyWoVCphYhPhWv8pMFU5u5YxFXteUVqPBzYugfTYSrYACuEQEQm4uWlJn1Rd4MvJyTQxienimemTRGWsba5kBlgN7PDanmM8HaQmgVN1QEapwnlPrHhLC3RpdMi6tuLi4BYu8rZHPyV0ADtexbI5SjD4OcjXYw1W12GljLxii4qbMoSOgkEAgILZXcslY6qphIX97F/p9xdZ5tP3usllQ5wYl0BNAGbkz/Ds/+6dBgi6Ll0eASLvdCQUzCSr2Z0sjltebUeEF5oAyXX7MTEWN08FkgDdb7XjaQ4ICBXDJXUNi43mB7IeMe1eIJyMfEROP6MLjO2VJDXv+gr22yuNcoeiqmVJdh21e6BPbbaaqyKBPbo0W2MbI5+l0d8nAvcai7c5gTHnFWI9VbqLx7tYXoY5G3vljQVVtgRCX0wlzTQUaG2pB/w5L52qAfPO1f63rMKlnI9+1Fa/NC1VxMsHYN/vo3Z60APxltWFhXT1We4A5eCExFj0YY17egq6ts5GIspOKarpKZhnrscbN86xMTIcmp2cnLItH7V8/eyXyPkujwj2x/pGbB3IjdLWIKIT9AMN/XWQwXNx6DW2NfF7eOTIX/z3rIt9MiUeyRDJg1rGp3WqLFS8b2dEmC0bcDLnSP4gCwpEhMmyb2RTOb5dysQLelkft1nUdqoM9GfnOQqBk2SatUSOTI0Yuh3esSqDE4cC40ooO5MwXaCJxW6w4Girxpy6tN3s9m/+anS5kAHVlcJr09mhVHba7wZQn6j+iAAy2OC0NMO34zeM0dN3IBR0qqJO0UDpejpbABgVwU4oMxW1S4dsbeUkYNpdGqXGDNngBij12B+6XwISS3O8UUMDVH6ECpkZT17Mv+bOHo6Wv2fAvbNUdCZcJT77991pXApR50zcZVyUnE3Lom0lI6HRG7hs6Vdt5l5A50Z6cmch53kj2HvMiJrSPTGZRTKfVWWmIlskEOr/O8r+708kt5Ua3biptr0GQdQK8t63yAMx7d3q8XPFyGd4NsawaIqChGghW4cFftMdgaIPZ0D66wBXocg8CSGUZlLDlFwWRNUXqBqlyjk7zRNvnqxDcb13ZPl+7h/sFUAOeMiE2ZKd3cId0tSvC122TwScj396JQn75q2LU6K6IQDeFAspDTyoR1BNxBLkxWeNVG3IyQDlmlU67EHDtCnHywBWlVR1eSJ2BQNm8X7NhO2zVnrmRB6mUeDQhOOnWvup8cb0FS0ysbFBABPj8nQYDQdS0SIcQcoGE4Ct1/jQ90S1Lj6+bat2PbkeCNXALauRhgsxTLkKUkFnjmxDNXvW+It86h3sFVAMuWyPq/hEwltrI0vRkoSS/tQSrgCegG3IzGAVDr2AAnqLd+lJmRwexNVlNgVdKkaz2UlAVzL3usDkwqarjF7IsUgNtr8HBnLplbLEiqGmJsejFGAfplAUfsn8Es84iHFC9uyno2uZN3sHIF+ryr+HhakmkFxucQHzokzRY8k5dA76QUPVKrE55F1zrM7okZdNU6HeE89+DdUEljMu7nKjdurZDD8JZvytO2+a/G4no/AgsSKO0yv+VBQaG2Z1qyU1DNID9VEqBn5m+eMhV1NmypN6CxW5OpAptIqIK+gd9OS6rGXXbN3qcJ1rGYWEQvRK+bJBIkqjSlVV4cIv2GIrHtm/fwTp3z8s7zuni/2Qd+P64aAHsKFiyy+7AgxL88rSOnDPHIDI+xeclGQ8aYLOw56X6PFG4o6gG6MGkB7S1pEXI8VVGW4+iJ/Au0Qm6uAFhyV9Xxu5z9We5VNtyvEohZO0QkmxWBGX2d45MrqrDP26CrhpdLygTvBdrBWKFRDhvLtnhcaheSgWmJbY9OARiXn/GIPhoAp5jFR782D0GwyJRIy9UvsrkdeA4plLRYMMOkw/yWokPgTopA9mnMwFqutUf5cWbKjsG/FiVHW4XOA1Q4JUCsO2lffDV4nKhqotcEf7sttLpws0SAmv+zNW+L51eybgVKOTIjohAmlwGehHQfw+klDqduKvCCPLLtxEiC+l/asDSnr2t2WzYAVs1hRvdC6VNUvpkKAnFXoi8m1VkHE7Ypdd3OKC7vZoFutxVAJhR/JcF0S9PG6STPJ3opUje+eOgiPLtzUwVrTX728QupEwdbhtADRCQFPlS20tzxkjzf6dMFXJFHElCa/7QZPGbLyEpKQmRkZGoqqqCxWLxWwVUEFSoiBD+pMpl0MroD9fyt1T37PSaevzSaO2wrs6sdKXCOiqwcye0nw/TEoTgdCiJp68fD2t0qaI0sdu3b++Qc+7WyBfqdPfz4Gaybph4EIkPMVjiC+RwYp/BSOzpW6k0FT9VGjynWgVrn+Fx3WiAd8FIfvl2fuSJ8VpcHXO4aIUHj/1HUEUyZY5NN5rwr4SK7tbaiY+Pxznnno1LLrkEyckUa2uSrVu3YtGiD7Htr21wBSmTJkbGCSd+OvkTNg75/en0H30Il74pbRQCRn2dixeqcd1FAdSZBVCl5AT9thcDJctTyDErKbgQLVI3KdUfTzQLRQb9Ke7mcWuZ87LzhslkfMeIl4eVBtsvTzfKtRKDU5xc3pRO6SNAWdXe3WEYA6l3ZpDam/X/dKANpNPlyqy0Nj7lrsSvkbL1v212TKsxdSiAYhkjPT0dF4+4CCNHjoTMA4RCs7GfMX0mysv9o1tkWZMvbTi5ArH9hrYQa/syBmsfSpuk9ElPMiZajWtCCJCM1indTc09VGQons5s5AsKClLgcHpOKG03UqZcjteDDFZ2X4URxR6gVD1dvKxhl0KT4lslXUNNuVD5Gpau14DTUg/Tjk0dFtIeQrer8WvENEXVi8vrLVjoJe9ZoVDgjDPOwO7du1BeXiEYcrVGjcyMDIwaNQonDWT/OnU4HJg58yWsWb0aTolAf2J78fd3ZUI6NLrOgDIAzCU7Yas64HbJBPvwVkq88EUSSrLC3Ih5EkDJAH5okcHgFkPZo4+lQJf7BwDm8tFgp1L64rJRJ6Uj+/SRPl07ghGuOaD3qW+4U2A1wDudqP2r44flO2lJ6K88TLRMxCFdBb4ltmPKlCCIjo1eKNzIoN911524eEQb6BGxoUV/37RpE16aOQvV1eyZGqKD+tlAEZeMqLy+fo7C1t30729wNrrPlkuPkGOOSGUx2yyBa0WurVvKa0BBeUbh7bwrsaSkxG2almcjn5d3D1z8q4yTCG/DpCC+DYlhZ6xElw2tPe+8sVBEx7Juo6UdMTxVleyS3C/cITgaqNv2M1ztWLcGRKowLyWxZcJQhTYwulx4vKoOJV6+RAki+/LLL8dtt98aFAU2n+rXrlkL+ndXC1W6avueEhS+h9Z7I3rJ2m0/e9zucLUKE+JCB5CMFmrmeRDdH7twPxcZiod5au/RyOfm5h4v5+Gd0rzVqJ1BIuINbc/TBpP6DEaCjwHYiuJ/wyBl7HdaUFtay/fBsr/jS7e1yyYUoQ32Opx4tKpWtGp76NChePyJKUHVIQ1eUV6B6dOn499/d8Bmk56NpJLL4VKqoFBFIkKpgt3aCKoSd9rtHV7CYpvpjNO8pxTc5rW9kBSLHorQyqvZ53Di7gqjmPoO/y7jrisqLn7fFyMfKec5E8AzaYAAmJakJQQN4oA28LfVjsckEnsTM1ThJTf7lIsbBitjv8+C3dIT9PDclEScdIgPlQg2CCYgVOT3RpsQYBUDqs7Ly8PceXM6ddlOpxNr167DtytWoLq6Bo2NjR6DtBqlCplp6Rg0+nrIdYUe17lny2/Y/tPXqCs7AAcjsY46owCq1OBl2DQU/y3QSboTIlRZkBpaNH+0zjdqG/C9uZH5fnDJuJ7FxcUe0wG95j3m6/KWcuDHsM72QWoCKL0qWCK1Aqx5Hb4GYIm71VhaEqzthMeVogGeh/HP1R16kE/1i4xUIcsmVPBryJO61GTGR/VsOetabQze/+B9qNVqKRppaRsVHY24+ATI5HI0mEyorTXCKdElU1RUhDvvuKvN/KTTK28aD2X/gZLXtemLJdi17nvhlC8mUQXHQaFNEGsm/XeeF1w1dEBwJwNVSkwOMUAyOhCMkYQfD1tcUmL05s2bPUIbebXIBVm550OOFazafTJRi+OUviNAsszzZHUdKAgrRWKyuyF90LlSughtiQmKUinDEhoaqN/9JxymjrGlbzPThHhQKODX0JfEU9V1+Fti/nv3Ht3x6quvgHzzrEJts3PzQBk57aWhoR4VZWXMxn7Hjh0Yf++ENsMQNPI1L3/Auhy37Va/9wb2blnv3e3JcdD2HBhwuGFHXTXqvfC5ToyLxrAgQrL4ojjJyLvAO7sN+pu8zeX9JJ+fn8M5XQbWxWZHyDE7yJFqX8vACy65GXKFtLJlnnehotgz3gWrXsLtAqMBp9kE087fOwx2b5wW12qjBYAyMvRdJUTgfXdFLQiPxhcZNXoUbr31FqauZOB1+QWQy70zoVksZpQfPCgabN227W88MPGBNnMrZDJcPcujq5dpndSo+M9N+OX91+Hycm2EQGyfk8FFHM6WYp7AQ0PCqiHMGndCBVvkXmZ/pfq7Grb+35gbMV9K6iTvOrWopKRjSXir6UT3mJ+jq+I4jvlbKtguG6oEG1PaEX9bTIUZJ5+P6MwCsWYdfid4gzBxt2S1BacDVb/+uabD2JThTOxHBBPQVfg1BL5FGTRi/nevJy6OwxtzXkd+fr6o/jKzcxDpwb1D/nZ6CbQulrI2NqL0wH6Pxn7LH1swadIjbeZVySNw5UsLRNfC0sBiqsPypyd69dXLFCoh4yZQQjDVBFftTvooFXg2xADJKJpEiKQWRmhh2peTQ7per/cKtCVu5HNzp3I8nmBV/NOJWvQLssvmzboGfC0BfpjWrk7JRPawy1i30dLOXFuN+qowWJlkxQWpA0EPEwRxe/nk/+xdB3QU1ff+ZrPpvYfU3TR6rxaKXZEiYG8IigooYi8odsWufwtiFyuKAnZB/dkVbNTQUnYTWnrf7GbL/M+dtG2z82azGzZh7zk5gcwr992Zvfvmvnu/r18S0pQKlNulWXpJDZthX6xrxiYRrla580dFReHjtR+57BYcHIz0LEfOhPr6epw6ZQrKy9vqGC+57DI8smKFTQjIaDTiUFkZTHZ2+u3X3/DAAw/azBsSGITzn3xD7hJE2+vq6/DJAzeC0hrFhBApCZmyuyJF9Tc3Kgyzwt07A+mubmL9ZUcpOJQVaTSSp9aSTj43M3MQzyl2sS4sW6nE04ny89JZx6d2RJV2oaw80rbRCWc+MEwe84ufRETOnfF+WzHI2JNDQ7AiMVaguOspIXTFpZX1DtR9zuYfps7DgLNm46OXHpNULy8vFy+8+IJou+y8fIfYfUV5OSaMHeuwUx8+YgQ+/8qGDU4Yt83Zl3a2/+abb/DM08/azBkaHILzHn9NUl85DRqqKrDh4VvAi4W0OA4xwycBXPcqUFsOFsJQUSaq2urkOAF0zZfkW50BK+vZOa3Bc3OLSsVTJzvWJrnK0aNHB9ZVVulYoYdpYG8bUIwyTeqGJY+cjOhseVV2FEes0u6TGtp/vacsIJJlQ9N/l56Cph6CG763pgHbDUaXBNqkE6UWz7jmZoQPGC7gtJR8vRa/fLNe0lrLl9+DE048waFddEwsEpIcuRLOOPVU7C5wjs/y4sqVmD5zptM5Ww0GHDpQhjUfrsGrr9o69LCwcJz76CpJXeU2KPlvM35563mn3ZThUYjIHy13SIf2dHZDZzjOJCdQiacSvLsRlbsA8mmEzyWHBQ/GgMyiQ0Xi32TtSkg6eWqXnal6hONgG7BzsYoH4qIwLNi7WTYUrqGwjRwJjopD1mkXyekioB9WlDjimcsbxN/akxYQUimd5MM/kRCL/oEKW+4zT04MoKDViAdqGpl278Nz8jH02tuhCLI68LdYsPmZe7G31DWUtVjYJjwiEimpqQ6rGjlsGKqrnGMtXX3ttbh7+XIXluDxxGOPY9XKl23ahEVE4dyHX/KwBduG++Ojt7D/t+9sx+YUiBl2AqBgKs0R1Ys3mVC/4xfR63MiQnGZjwGSVZgtuFoer0B5kVZDvI6ShSFMTl6lUg0I4MHs6Yh55rF4735TUlT2XCcEyFJPpOr0SxAUKQ9W1M8UJWXVnr2uP1gIvZNX8cz27C7Jp94NdYk0+7HaRtQwZM7Q7n3a1TchciDt3h3DDubGeqy/dwmaza6PaQmo7I47b3fQNie/v8Pfjhs3DgcPOCegv+vuu3HtokUuV7387rvx/ru2pELhMXGYcz8zsoksq+74/kv899kHNn2CElIRluG4NlkDA0KYhsI1YvJSYoxAhehLQsVPVATFKgoO8/drNG+ytGdy8oMGDQrSNzfrOHDMlnk7ORbRLqBQWZSTakO0aXLT1ZKGT0RMrjxOSX1jHRoqnaPYSenov+55C1A8t36bY5YNzbQmJR7BTE81m14/txjwZoMOtQzOnUYcmdMfgxbchIDQcJcT1P/3Jza8JR53p86UHrlmzYeIjLI9R3IWk1+6ZAk+XbvW6ZzffvcdBg4a5FKfG66/Hl9+/oVNm+T4RJyx/Bk2Q8lo1VhdifUUl7f6klMEBiFq8PEegR5u2v8fTE3OYQGI8vAFL6d5yzCF0JQ2JfPLa5mfMeqjtJjT9paVMTkl5o9DTpb6SYC/mXUBt8ZG4IT2cnPWPnLbbTMYQbFROULcr8QBK0f8RVFyrNUzbcnJOzu8+7+keGQruW6RVROW9xsNOvxrMAq43ixChUO0e4+m2Dvj5mbPp6ux5aeNLocn/Pi33rbdsKWmZyA0LMymH4GOTTvzTBTYxeXvvf9+XLlAOvf+issvx68/24Y48vulYcId0gfFLPaxbvP9a8/i4A7begePcb1Slev2X5xmYJEO08JDcFWU6y9guevpbvuDpjZ6RBlSXaTV0MEM08PJ7OSzs7PzOLOF+QSSKMQImZJ5AhkrtG4653C17NxkudSAFosZVRo/U5Sbt8gr3cQwSY4LCcaKhBjUyiyKosDJN816fKnT44jJzPbpaV9ZXlw8xi69D8poeTgovKEFX969GDUugMIo3/2OO+/AlCmTO+1IO3xVjiOGDOXHb/3vP3y3aRNS09IwefJkZGZlMdl/1oyZ2LF9u03b0eocDF56P1N/1kYH9+zE9yvpi6MrqBYQGoHIAfKhE5zNaayrQHOJeDLg4/HRyA/qXsyfda2s7d5u0MmjgORxTVGp5hXW8Zl9cG5ubjBvNBEYB3Mfqn6lKlhvyu1V9dgrk/81acRkxOTIy7LxI1J68y7KH5s3G1G/nQr9bCPw9HBuSE2GAmbJ3TxBEFA45oeWVmiMJgHiVa6cPP18pJ001W3I3LptW/DZG67j3oRps37DOhvV1Dm5AlaNp+TkyZNRqrXFaZo8ZASyFthWwXZ3vnUP34rGCtsqVHLw5Og9Ic3FO2Csd34AnRigwCs9sPGUsw7C47q8vFYo5GMVi4JLKSkpYSZ1YnbYpEBuluppHriRVZkZ4SGY7+VXo8NmMxZWyHrVQWhiKjImzWJdhtCuvrwMhmZ25nRZg/sbu2WB+u0EPuVYWDOufTff4GQ3X2w0gfKRKUuG8tyN7J8tGx2Jv3T69csQltNNdiOex9ZXnsD2AttdtL1BCO6AYA86JDo2FgmJjqmUbhkSwOjhI0DFVNZy5vGTkXSBdKiHdc7dv3yHv9baVtB6Gm5Y7JkgHU8PC8aiaM98mbCuWardVoMR98kJOfN8dVGpljlUQ/PLc/Jpuem80iSZl9mxMCXXljMfJgN0Scoozq5TYRQVSDELxyF76lwoQ9hjc4bmBtSXO89eYJ7X39CjFmitPAjdAecRRMqeIKJpynQxUG692SJkxhBfcHclLSwMU+58DAFR8sIzYvOaaqvx8f1LXe7mCITsiy8/7xyCwjjq3DxZgGZi8/M8j/45uQ7E37POnoPI0+VthsTmMOia8Mn9N8Gk13WtIUDZhlcT4Jl0a4IUpjCemNwXF4URXk7tlvtsEddAgSwwO352kVZr+1onMaksJ08H/jlZqoMAklkXszwuEqOCPQc65Gzep+qa8EuLNKSpdd/kUVMQrR7MugxYTCZUlTIfSTCP62/YHQvwqN8mfsjWnZHF+o7KG4DBC+8EEcV7Uo78ugkbP37b5ZCXXX4pLr300s42rvBr5OhmMBgwuL/jG8lFi25HYP+hcoYSbfvbh6+j6I//2VwPSVEjpJ8jPIO7E4qhlNJ4BIH+VnIcPHvX3NW0rR+9SV4rMwoRHB4WWVBQIKMsVuZOnhRTZ6hnKBT8BtblEesKsa94U2h3dkV5jazDMgIrI9AyVqFMjkrNMYpIabFAV7YXFoMOgZFxCO6nZjWb19vpD5dAf8T7XLy0G5p4xkyopsrLzGI2gMmInx66BdraatEutHv/8qsvOpEnaXefqZYGM5PSoaGhAaOGDbdpRuu97Kk3AWX3d9mV2mJ88+x9NtlQiuBQRA0c75GUSUFxiawaX6T5W9+sx1syCjp5DhuLNZozpO6n/XW5O3kMSkyMMISFywpOr0yKQT8P73zsF0IlwXJexSkvN3f6VbIeMoIdJvjhY0t4NBVtB2Fzd0jCuDNg6kGMGCl7C8QQXgQmow/J5DPOQebUc6VU6db1puK9+PQ5W5Aw+wHPPe9cLFhwVeefMwlP3orM3B0FKisrcdzYcTZdKcx1UTex5DsG/OrZB1BVYvsWHJ49FIHRCe6o67RPa9UhYSMiJrfHRuK4EO9GFOQshtB051fI81lK8Nl7tVrXpdJOlJDt5GmMnCzVlwCmsi7qvIhQXOLlMuJ3G3VYy8jE06F3xpTZCI2nymA2aag4CH2T7eEUW8/e28piaEFDwZ82CyACFoPZAkot9QVprS2HTuMct6W7+gk7+NNnQHX2+d0dSro/z+OfZ+/DLk2Ry7aff/EZgtodO2XepGZIAhG6HI8qZSefaMsDHaJU4vynug8zXPjXr/j9XVu4BGVkLCJyR0jbQ0YLV1g1dEi+OjkW9NtXhIiPiACJWXjelFGqDf0RkE2Y4NaqVSqVKoAH8zcKAfS/kRSLCC+ivlE6HGEx0zckq8QPHIP4QeNZm6O1pRkEcXAsiU67B601tilvEWnZSBl7GqpL9/sM0Xlz0XYYG8RDHe7cM/pwnHjaNKinXehOd7f6GCoPY81Dt7rse/ElF2Pu3Ms722RlZ0PZjbBKcVExTj/lFJs5w0NCMeexV91aQ0cnoiD89IEb0VJvxebFcUJOfICMpAcpJQh6mt7mIFK4Rjt42sn7ktxRXY89sg5cuVuLtCVPurMGt5w8VdXmZKko+M9MtbQ4OhynhYW4oyNzn4WVdThsYt9d0i6edvOsYjGbUaU9hoqiKCtl+88OHx4idyBydGNLM2oPU261jG9WVmPLbcfzaNr/L0zNMnZHEnOMHDISQxcwF3nL1Vi0/d7VL2DzP7ZvT/aNP/t8AwhXniQyKgpJKexvpPZj7d69G9PPsn0xj4yMxqyHXuzWmrasex97frSFOQ5OzEBoujgZuDsT6su10B8qFu26NCYCFJP3FSkymnBzlbyIABeoDCksLJSXXdK+YHedPLJVqhs4HrYA1C6sSBWwqxJjoPTiK9Of+lasqGU/LuAUCuRMuxIUn2eRY40OkDe1on6HI7MYF6BE3jnXCCZrrqtCc00Fi/m834bnhbhsa80RpyiVnQpwCgTFJUMRFAr9YefOoV9cPE679znv6+xkBlNDHdbcc53LSu5bbrkZp51+WmdvFVEBKh0rOQmZct++fUhLS0NGZqbTlMttW7dizjm2qZLR8UmYufxpt9ffUF2Jzx69HRarsxtC44wcOB5E9edJadi9GRar1EzrsWkmyqqh7Bpfkf+ra8IPsrIBucIibUm+u7spt1dOoGWGZp2sb5a74yIxxsvplJeW16BJRi506oQzEJHGvrM4lipfzfpmNO7e4vjZ4Djkz+5CNfS1QjECpyJyEfptMbY9ogplEBSh4QiMikdQTBK4wCCIVUeGhoTg3DsfBxfDzHrpcf9x6Kv9HrSMAAAgAElEQVSP8d234klslFnz6bpPOmPzcfEJiI2P79SDsGweeuABvPXGG5357ydMnIinnnkGqXZQxVs2b8bFF9iGpLLTMnDibY+6va6NKx/HkT22BV7hqsEIjPVcARcpx5sJVvhX0S/1kcGBuDcuyu11eLojsT8RpLCc9A2LghteUlLiulrOhaJuO3kaM1el3sjzfNd2QsIiA4MC8aiXeRWfrG3Er3p2dqBo1UAkjz6Z+V76mkNjVtyNhlQeTo7QmeTPWWzz55oDRSAWLZ8UKpSze4M063XtX2C2oSZ605x2+UJEjfIc16g7NrHomrDmroUuC6QeffQRjBo9qnN4a6iD+++9F6+/6hhTHzV6ND5Zv96GAPyXn3/GvMvn2qg5YcBg5C9kppCw6Xtg9w78sOpxG8cbGBWH8BzbNE137GLfR4oBakl0BE4O851QzZrGFnzQ1FUQJmUDDmgu1GroQMHtmGj3nHxcbhQfaSJMAeZxnkyIRm6g9wCCas0WXFVRywxaFhQRA9UZl0jZuvO6oake9RVUD9b3RSzWSWGuvFkLbQxAdQTVZftB5xa9QcQOanPVeTh+KTOlsVeXevjLj7Bp42eic0RHR+P9D96Dsj1Mk5icgqjotpqUoQMHOsAUdAy05pNPcNxxx3WOu2njRiy8ui381iFTJ52KhDlXuLW+dQ/disZKq8N6ToGogWOhCLZFznRrcLtOrsi6Ccn/jeRYxDCignpCH1djUFX+leW1aJZTna/g5haVSFP8uZqX2TmLDZKTpaIsG+aytZNCg3FDjHfxI66rrMMBGQewcrhfj6XD15ZDxTCUO2YTEU8u2cxeTAY9ag9pfL6WoLWmHDqtY8plUEAAzl/2BBTxng0puOs8LC3N+PDOa10CrT3/wv8hP5/CtYRwrADF5mtqazFyqHil6gMPPYQr5s/vVGvtxx/jjltvs1Hz/IsXIGR8F/Il6xr++2Yddnz9iU3zkBQVQrxQQEfx/oadv4tuckcHB+IeHwrVbNLp8aIMYhDiPynSarqdrdJtJ99frR5msvBb5ezmvV0c9X2LAc/XsVf+Jg47EbF5bK+Sx9Lha8vBIhgqbJEJ6dMbGp+CjCldYFnWn+iWxrr2XZzbb5es/sStdpT337hni1Ms+qHDxmDklUvdGtdbnQ6vewebfvxWdPjc3ByB9JuqYUlSUtMQHhGBIQMGgCpZncmatWtx3PFd4ajXX30Njz78sE3Ty+59Blxcoqxltbbo8Ml9S2G0OgRVBIW0H7Z2j5jbmSI67e62Q3YRuTk2AhO9zGnBaiACwruushblZhnReB4vF5VqbF+ZWSe0atdtJ09j5WSpqBySGa3p1LBgXOdlNDg5B7DhKSqknXA2m/mOIc5XsXhnZFoO+rmAhCAgNwJ08znhLWjc969TguewoCDMeWgluPa0RF/R3aJvwQd3LIDZxXfm26vfQkpKiqByYGAQMlQq3LNsGVa/5VjMNHTYMHzx9dc2WTaPr3gMr7zcVbBEBCiXuFHt+v2rz+Dgzn9sTBeRMwzKqK4DYU/alTK/KAPMmdBXypvJcYj2kaya71oMeEHGxhNAa5FWE8pKDOLKrp5x8irVXPCQVR63MjEG/byINf9QTQP+NjjC0DozRkBwCHLOns8McUBAZQRY1tdFzMnH5g5H4vATRZffXFuB5lrnmN5H02YtB/bDUOkcSbT/0FEYf9VNR1M90bkPr3kNm37/UfT6mWediRtv7HoDIeaokNBQ3LR0KT5bvx5Go1Fw6sNHjMCrr7+O5PYvhI4Bb1yyBJ9/1oVwGUJhq6ddg6XZK1NXfgifr7jD5g3J0zDC1nOamxvQuM/2C8X6+tiQICzzkQIoKtBcLHcXD/73Iq32BE88kB5x8qRIdpaqiQOYsXtPDg3GEi/G5kuMJtxUVc98JJ150hyExLXthqSkqfoIdPVdWC5S7XvrdX15KfSHHEvsk0dOQXS2OIKnLzp5U2MtCKVQTM6bvwShw23xW3zlvllaDXj31itdqvPRx2tAB7Ek5OAJoZKEHDzlwef374+oKOephBecex7++buLji8iOASzH39N1vI3PHoH6o9YfYEq6LB1PChc4w1p3PMXzC3iIdnbYiNxvI9g1bgRizebOaRrNBrxWJQMo3rQyatf5MC7poS3U+zlpBikeBG4jGA8Cc6TRWLzRiBxGNsXp1HfgtpDzKgOLNP7ZBsxTJiMybMQmpAqqrPPOXnegobdW0DxeGcSGxKK6d0s4ff2Ddz73P3YXLxfdJolNyzB2Wd3Va2mZ2YhOITNwU487ngcPtyVDRMdHYuZDzzPvKR9m3/Bn++vsmkfmp6H4MR05jFkNRQQJ392eq5C41Co5u3kWET6QFYNeZ9FFTJj8eALi7TaPFk2cdHYY06e5sjJUjUDYM6T8namzZsNOmxodv7BtrdJSFwyMk9iQxkkkgUqiurrQsVExHxvL9nT5kMZTOFC5+JrTt5QXooWJ28kHdrnDR2F43w0VNOho8VkxLs3zxO1OQGWffLp2s7iqLDwcPRLk3ayzghDEvtl4Kw72AqhCKTuo7sXo7W5a1dNu/eoQROYw59yP0dS8NLjQ4Jwp4+Ear7V6bFSXkaNhQM/plCrdfzgyTVUe3sPO/msVwBOFl/YqqRYJAd4/uSd1kf8iZceqWHKmScSiLyZ17A9mMfI4au5pVnIRLEX+0Io++u+5uQbCjYLWPhiMmPmhYg5eZqbH6Ge6/b9XdfgYDPto5zLY4+vwIgRXeiOaZlZCJHYzTc2NmLk0GE2A44ZMBiDGAuhfnz7JZT+S2mMXRKRPxrKcO9VmdZv/0WodBWTZXGRGOvlynqWu+7eLh77irSa/izjs7bxqJOnSXOyshoBjjkRfnJoMG70YmxeDtF3xuTZCE1gA3qqKPYOtC3rjeuJduQYyUHaiB2kgTM9fMnJi0Iz2Ck+btAw5F26CAHhzI9uT9wCmzn4hjq8c891ovNmZmbilVdXdWbOsOzmKUxD4RprmXbqVMRNv1hyffqmBnx8z3U2YZOguBSEZQ2U7OtuAzqfaNhl+6ViPRZtF4ly1JuIt6y6f63TY5W8XTzPgR/tyV086ep5J5+pWgUOV7Magto9mxADVaBnQYs65ifS5pX1bDnz8QPHIn4Q2+FbzaESmPRsoSA5tvCltk4/UL3MyVMeNeVTswg5iJOOm4zU2ZeDC/KdUnhr3dfcMg8Go3jW2EsrX0ROTk5nF6nd/O6CAkyfaps+fPEN90CZLb2ZXHvvEujqrBIQOA7RQ44Hp2QD/GO5J/Ztmvb+DZNOHITQV2CFaRdP1a11IvDHImvfXaTVDHLHLq76eNzJt+3mVZQkzQzgPCQoEA95CdPGzPO44EgNE9J+WHIm0k+czmRjXX01mqrLmdr21kbEtiSAP1kJxymQN9t1fYYv7eSJGpBiuHKE8GumTp2NmFNmAF5MDJCjU0fb1n9+w4erV4p2Pemkk3DHnbd3Xpfazf/6yy+44rKu6mXWHPl/v16Pnd+stdEjXD0YgTHerRau2/oT4IKdzVfIuonWj+j9ZIhXdvFe2ckLTt6N3fwdsZGY4KWUp9uq6rHPKJ3XHhgeBfWZlzHdF4vZhCpt3yb2FsgYtv1s6+Sd4NbYG8yXnLyxrhLNJTuZ7ql9oyCFArPmXY/goWPYzmrcmkV+pw9ungejC7rDd959B0lJXdWqrgi/P/7oI9x5W9eXQnhgIOY8+aZLpeiw9r2b54E+Ax2iCG4/bPV8cKBzDimKP2r4XnIcwo9yAZSO53E548bSytC7irSaIfKfBukeXtnJC44+S0Wo+MynL1QYRQVS3pAPG1vwISPyW+7Mq6FgZNnp83F5Ig3ZaluEQ1jgebOudXmbfMnJW1pb0LDLNQGH1DNHVHjn3v4oFEls5zVS43X3esV7L+GbLeJx6flXzsMFF1zAtJt/5MGH8Mbrr3e2jY2OxXSJ9Mm1990IXW2lzTKiBo33CgCZ9SRSu/gTQoJwqw9k1TxW24g/ZCDh0hpN4EdpPZhRY203rzn53CzVSzwgC3fh8sgwzI4QT81z98NRa7FgXrkVBZmLgahcn8r2WaSC0ijlIMqxDOpjbQgAqgOTnVSzJgwRU9WXnDzpKIYbL9fUcaFhmPbg80DgUY7X8zw+uPkKGEVqQAiVkrDmO5ijaJ1iu3kK1VDIpkNSMrNx+s0PiJqmtGAbflz1hM314KQMhMrgZJBrd2pPKKf1235y2fXB+CgMDQp0Z3iP9Sk1mXFDZR1zEabwmQK2FWo1niW9tVqR15w8gICczKwj4DhmSvZwjsM7yXHwxtvW9ZV1KGNAppSDL1+p2SNakOGxp+YoD9S0fytMTV1fkEGRMVCd7hqa2decPKXbERk5nTF0V+hwNisuDife8Ti4YLZio+7O6az/9qeWYWupON/wsmV3YdLkSZ1dxWLzx48fj4ryLmaviaPGQT13iajK7958hS2kBx22DpvocbYnewWaCrfB1Oi6yvyDlDiEepF5juU+3l5dj72yuFvBK8AP3q9lzA5gUcKujTedvGyKQNLt1NBgXOeFlMpVDc34muEgRE5RVEPFAVAaWV+WlrK9MFQd6nIWSRlInzjD5ZJ9zcm37QTNaCJwMhel8HLuo4Lj0C82DictvReK6J5nkOKNrfjg1itFYYiTkpLwzrurbZZkv5tvaWnB0IG2yRznXbIAoeOcQwx/9uR9qCsrtBkzIm8klBHeCbN2TuQkbGh/r84MC8G10cyoKnJuNXNbCtE8XtsoaxfP89hYXKo5g3kSNxp61cnTm0hOlmoPgDbAawYhOpGVSbFI9HCB1L5WE26rlibPDQgKQc501zghHcto1TWi7kgZw6p6bxNDRRkIqKxDolQDkSLBpOWLTl7Qn7eg5XAJqALWU0I7+8S4BJy84CYEprbhxfSUbHrgJhyuFufXfeSRhzF6zOhOdex38/v27sPUM7r8C63lUgImc5JR1FBZjvUP2ZKaB4RFIrL/GK8vl+Xw/OmEaGR7kYyIZZELKmpRKQdKGNCbOfTTaDREvOQ18baThzpTfZqC4zfKWUFeoBJPJLSBLXlKCKn1kiM1oJNvKVGfcSkCIxjmPwYqX+kVmV6VO4SllsBnnXz7IswGnRCnFyN/lno+nF2nD1JcXAJOuegqhOR7JUnCYVrjIS0+fGyZ6M5x8ODBePqZp2z6We/mv9u0Cdcu6CppiQwKxqwnug5hOzoSUc77t10Fglawlqghx0Ph9fMJXsjwopi8mIRwnJBVE+B1byb+ZLxc34xvdLJSJsGDe7FYWyJe3ebOg+ikT4+YJSdLTUy7bOhf7UpeFRWOaeGejXneWV2P3QzxMjkkIn2d2LuNC7Wr6jVhyATE9e/aHTp7Dn3dyQs68xYYG2oEhiieEcSO5TNHH6jYuARMmX4BIkZ1Ueyx9HWnzbq7F6OxUfwN9bn/exYDBgzoHDosLBz90tswbZ5/7jk898yzndcS4hMxdfkzDmr8/O4r0Pxlm0obmpqD4GTvv7lYTK1o2PGbS9PMiwzHzAjP+gqxCU08L6Rja0xmaIwmaI1mAT7loMnMBJ9iNe4RMwe1RqOR983gxkPSM04+JyeXN5r2cBzHXNZKua5vJsUiyIMHKa83NONzhrh8eEoW0k5gwzKpLNnj83R3bjwXnV0srXoQj2aHJAw9HnH5I10O2SucfPsKKFZvrClHy4F9oPxvT0pcbDxOPG0aYk5g5rqXPX3VFx/iq01fiPabPHkS7lp2l831jt383Esvw2+/dhW79c8fjPGLbcm7dQ11WGsHpUAFcdHDJwKcdzCnrJVtKtoGU4PrA1dv4V/RuwPF2emn1GhCvYVHg8UiK+YuemN4bklRaQk71KfsJ6OrQ484eZouN0v1Hg9IA2JYLWZUcCCWe5Cj8R+DEQ/WSB+UsmSQdKhJBVHWRSHduBc+2ZXSJ9t4NNuEyEKINMSV9CYn37EOysCh2C8Ri5Dj96RQ7vm446cg+YzZni+q4i1Ye9tV0LWKMCQpFHj1tVeQ3r57p3XRbj4lLQ3DBg0GHb52yIyzz0XM6ed0/t9sNOKj5dfBqLMFRYscMBYBod7H+HFWjGd/X/opFXgpMdZjJVgFrUZs1BlQaDSh3GwG0fZ5QXjweDs4Iuz6goICNsyVbijRY04+MzMzNpBTUH05Q7C7bUW0T7g3LgrDgz2T+9rK87iIAZVSyAWfeTXTB7KvZ9hQFkf9zq7X5cQRExGbY4taaP/89UYn3+nsLWaYGqqhK9vnkZRLa9tEhoQgZ8AwDJlxoUfJwre+8DC27xfH5znnnJlYuMiuZIULwBmndb1h0GftkhWrwIV2Zaj8tPplaP+xhbVQRsUhIoeND7kbfknoylLh6olK+f1GE9Y1tQihXKqp6SnhgGYL8EqxVuNVSrIec/JkuGyV6naOxwo5RowPUOD1JGb6WMmhiS2qmAHigBWRUt9Yh4bKrhRDSQV6WQN7/JrE4RMRm9t3nXzn7WmP2dPOnkJWnpRAhQKpGWqMmnQaIseI0yiyzmmpq8GH990gmk4ZGBiIN996A4mJXVAHf//9D5bdtaxzitiwcEx/tIv4o0JTiG+euc9Bhejhk7yeEy9MyltQv/1Xybeq1cmxiHKDHISKljY067HD0IoKeRkxrLdFTrs/zBymeivLpkedvFAglaX6C4DroK6dec4IC8FCD+XAvlDfhO90BskbEJs3HHQAKyXE9Uqcr31VKIxB+N0dwnIo3Zt38g73kedhbKxFy8H9Hs3G6bRndAz6j5qA7KnnAd1Avvz2kdtQXi6+2ZgxYzoWX7e4c3mvvPIqPln7Sef/U1W5OPXGNqdu0DWDECbNrbafk7CM/ghywQjmyc8AC0T00OBAPCgjnFtttmBdcwv+MxiFg1Ifk2qAn1Gk1YrjVbipcE87eeRkZo7mOcVmDmA+hFVywIr4aOR6IA/2xxYDnmVgTQ+JT0HmlDlMZu3L8Ab2cVGiSCSqRFfSp5y81UIpnbTlYDHMLeJQt0wPjJNGoUolVAOHY/iUMxCUKx9ttumvn/Hpu6+ITk+7+ddefw0pKclCm3lXzMehQ11fCidOmITsi64WDp83vfwEjuzZbjMWhTCpsrWnpGnfPzA1uz4/ozRrSreWkq0GI9Y3t2CHwSg3A0ZqaE9fb7QouKElJSXipcxuzNjjTp50zM7KeoED17WtYFA8RqHAm8ndP2Chw5RrKqRrDyhPnvLlWaQvwxvYO/m+ll3Dcn/t2xApeMvBIq84e4qNp/dLw6Dxk5B0ki3Ou5Suny1biLom8S+gs6aehaVLb0BFRQUuu7QLXpjGvejGexGoysP+zb/gDzu+VroeNXAcFCE9U1HKm1pRL5E2SY7rw5Q4BItk3xl4Ht/oDPhOp2eCM5GybQ9eLw+PjsrZvn27OAWYTGWOipPvn9A/0hRh2AkeshJtPcXdeGl5DZosro/NFYFByJ3BxmRYpd0LKhjpi+Lo5I9DXP6oY3Inb79oY3019IeKQKEFb0hMcDAyR5+AQaPGIyhvsOQUhR+8gt//tM1nt+5EwGWvvf4q9u3bh0ce7uJwjQkNw4wVr4CqWjc8fKtDSjDBFhB8QU9JS9k+GKoOupzu9LAQLHISwj1kMuOzZj1+0RvQLPEZ76n1yJ2HA/YUajUeo9c6Kk6+fTc/mwPXFRRksATtcoi/cXQ3+RuXVTdgV6s0WFXOtPkIcEFY3aFyzcFimAyePZxjMEePNLGPyfeZYigPWs9YW4GWw8WwGLzHFJYRE4v08ZORM34yFPFdB6jWy+D1Ony8bBH0JnHuhNNOOxXKwEB8/dXXnV2z+w/GuHk3YMOKO9FSV21rGU6BGDqbUjBHV7tlWfu6DLHBXkmKRZIV9AllyKxtasFf+lb0XH4MoFAokN+/P9LS0hATG4MybSmKiopQXW1nR5lW4XncUVyqeUxmN6fNj5qTJ21yslTrAHQl5jKsiF7PCKkyqBuas4KVpU44ExEMsMPEEEVMUX1RHJz84AmIG9AHKl69cLNaqw9DX1HqlQNaa3Xz0rOgGnsiUsZNBBdmm6/++/MPobCQ4KKcC+3mw8LC0NDQFe+ePvNC7CzTouTfrqK3jt4h/VQISVF7wVrOhuTRhnrqOpxKPuD9lDjhUG9HqxGfNLVgm8HomSIlxpXGxsbikssuxaWXX46EBEeg3R3bt2PDuvVYv3496mrZYM7tptYHh4dFFxQUOC+AYNSTmnXDVcqYRaRpdnZ2Jme2EG0PM1UgDZUfpMTj8czp9g6zU3YNZdlISUzOUCSN6IJrFWvf2tKEusOeA72S0qsnrzs4+UHjEDdwrEsV+urBK6vdjfVVMFQeAMXuvSn0ZpuXqUbamOOROmwcFLHxMBQW4OPnH2HezYYEBGDy9Avx7fr3HFQlrtboobLQSLq1XFNTPZr2/ys5xryoMKQrA4SdOwtMieSAMhoQRv/V116DaxctssHrFxuivr4ezz39DD54/30YXXDzOuvPgf+iUKtl4yN1sYaj6uRJr+ysrPkcOEdUJAnDXxcdgVPD3CNvINyJpZXSh6+ssMM8bwHBG/RFsc+TJ6JzAilzJce6k++wDWXhGMrLhEpaeka8KfRBzu2XirQJJ2HHt+tRbVelKjZ3VHAIWloNMDpAOnCIyBvhfRjhdsWINL5xzxbQpkJKiEXucA+nQHIchwsuvBB3LLsLERHyq3137dqFJYuvg1ajkVqe9XWzkbcklpaWdmu3cNSdPK3InbANKf5yUgyS3SBapiNSqnylClhXIofzta8CldnHSPsCCqWcT5kn2lK2iL7iAIy15R4vrPKEfs7GUIZHI0LigN1Tc5ua66HTFPikbaKjo3H29Om47vrrkJTcln7qrjQ2NmLpkiX46X+2lJqux+O/LNJq2YC0RAbyCSevVquTFTy/AzycnyiJKE+xuXeTYxHoBojZLVX1Aj6FKyEY1dwZVzHd00rNXsnqPKaBvNCotbYcgVHxAnWfXDHrGtG49+/ObvEDxiB+8HiXw/h38uLmoV29EMpprvdZ6khOoUDU4OPBMXIdy32mAB6EbmpuqkNrbYVkDF7++N3rQbv2IUOG4PwLL8RFl8iC25KcmEI2SxYvxqaNmyTbtjcwF2k1hOviNoqOTzh5Wkx2VtZUDtyXrCvvaDcoSImH4qMFnBs58lxdE/7XIl35ykrs7bNAZRYL6rb9DC4gACGp2QiKTZbl7FurDgo4Lh3CUgnsd/LSTyK9IenLtaD4PeED+ZIEJ6YjND1PWiWebwtD0Ruxzb8tbYiehAPT/ncCuiP8fmLmMjc3gCCEfUnIsWdkZuKEE0/E3CvmIjePYf1uLsBkMoG4df/8w/Gg2+mQHK4t0mi6MCdkzuszTp70dof8m/rNjwrDjHB5BOB0aPNuo07SXAQ5TNDDUlJdVgizj31YSWf6QDXu+6dTfdqdhasGQRnJRlmn0+5Ga82Rzv4RqdlIPe4sl+bwO3mpp8XqOs+jteawQLFIb01HW7jAIEQP6TpspS8jYdetq4fZ0AKLvgWW1haPg7cdrXX369cP4yeMxxXzr8SQoT1D9kJrramuxtQzz0RVZZXk0nnw5mKtNghgPk+3GdOnnPygQYMiDE26AnDIkFy5XYMnE+TBHhBG9GO10h8qKuGnUn4paag4CH2TNL2g1Dievi6WdxyUkAYifqAdvishLHlrgK7g6ARknXqB38nLuVHWu1zCI2/f/Qq73c5/W4SiKv3BIqbDRznTy2kbrh6CgLAotFYfEsJKLAehcsb3hbaU8jhq9GjMX3AVxozxPn2h2JoJy58w/VmED1D0Ly4udgsky6ecPC02OyNjDKcIICoiWREYWsjbMhDpykxmXM+SYRObhMyTz5O8Dy0NNWis6trxSnbowQYEFewsJKAICkF49lBRbHD79ElSmVMEIG/WtX3eyQuOmByyEHKg3+bO/5NdeKNBcIDEKsWbjW3/tnT8n37T3+gaHfO7HU7twacEoOdBGRmD1mrffI67Y4yoqCgMGz4cC65egBMm9hwGjyud6Ut++llTsWcPU2be7iKthsqeZT9MPufkBUfvBiQx9ctQBuCZhBgQoJmU0JHr+YerJd9/WDNsjAY9ag8WS017VK7rD5dAf0Q8dSs4OQshKVkOELIUP23cQ6ChXUKsQHmz7bDJ7VblS+GaTufc4bQ7nbdZ+OKzGPUQ4sWtrYLjpn8LDtzDLFFH5cYf45OGhIQIsfX5V87H9BkzwSkYHEMP22z79u2YPWMm06xcoDK6sLBQmvXIbjTfW3Wbgopslep/HA/pSiS7BU0JDcaSmAim14BFlXUgrAtXwpxh4+Ok3m2VhOLptoqgYISr23f17dlKutI9oCpOOy+P/FkLXRKqeN3JU/ijY2fdvsumnbRwsGfQCb8tBvp3i89msDB9qv2N3LIApTqef8H5WHTddQgKolC274rFYsHE445HeXk5g5L8rUVa7ZMMDW0/snI79FR7d5ikOnS7MioM08JDJct5H6ltxBa9xCk/xwnhCdrBSokvo1FS2KFxz2ZYJDB2FEGhCMvMhyI4zIbb1Xrt/cafgcj0XFFzuO3kBYfdHiZp/zdv1MPc0tzmtMl565thMUnjDkndK//1vmUBgmvIUqlw/4MPYMJx3idQ96T1vvjscyF/XlJ43lRUqiXGclloiL66kxfWm5uZOZjnFNuIbETSAHYN7mEAMlvdqMOnTdKgUumTzkFYYpqkCr6ORknhiYaCP7udz68MDUf21CtkO3mbOLfFLBw0UvaPWdcAk66xTx7yST40/gbdsgClPubl52P1u+8gwYr5qluD9nBnAjObMGYsU4jQBD5Vq9XavV67VtinnTyprs5UX6bg+NXu2P3ZxBiolOLfD9/q9FhZLw0TGzdgDBIkCoBIv+rS/TD7+C5TKj7PamcqEqNQVqcIIZS2A0phJ19dLjhuwYE318Osa2rLJPGL3wIesomrGQsAACAASURBVEB0TIzg3AcP6bnUR2eqd5zf0BeOu3LNggX4ftN3DN25F4q0JdczNOxs4r5WcmbpZtucLPUXAC+PQYG2/xwEflgiHHEm/xqMeKBG+hwjPCUTaSdI4wTVHCiGycN8oN00nUN3U0MNmoro5ah7QqQqVP3aUn0YLdVH0EpgXP7Dyu4Z1d+byQLkTK+7bjEWL1kiwCZ7U8iBt7a2ggqYDAYD/vv3X/y1eUsbnHBVlXBt7vx5mDV7Nihk5K5s2bwZF19wIVN3M4dQjUbDjG3eK5y8SqUKCeC5SoCXjQwUF6DAqsQYp9AHrGmUQRExUJ1xieQNaKg4AH2T9JeG5EBebEAVls3FO7w4g39ovwW8Z4GAgACB+CQ1NRVp6RkICQvz6GTk1Al6YN+evVj99ttYv24d6HDUWsLDw/HWO6sxcpRr8hw5ilVVVQkhGyYxm/KKDhwoZGp7tKGGWZWkdgK+jYV3K4E3P1CJxxKiHQ5i9TyPC4/USKqhDI1A9tS5ku2aa6uEUIUvCzl4cvR+8Vugt1mAHPyGz9aD+GpJYuPiEJcgC+5KdMm0S3911Sr837PPOTj1jk5x8XH44quvug1UJqbEKZOnQKtloHflsKFIo2Hm4egVO/kOo+SnqYeblfxWdx7OMcGBuNsJs/vc8lrU231T248fEBSMnOnSQGWG5gbUlx9wRz2v96FDz6Z9//pE6bzXF+vhCSIjIwWHQkQRsbExiI2NE1iA6LdSGSC8yhuNJphMRmEX2PFvk5H+bmy/3vG7FU1NzSgrLRW4VvtyPn5KSopwKJqaliowJ6WmpQm/yZ6Uw05hFyLX2PznZnz++WdoanTN8fDkU09iqBX0QHBICNIzpSFHXD0OP//8MxZdfY0QihG7F8T+9PNvvyGlX4qHnyzb4T5duxa33XIr0xxycuZ7lZMXdvSZ6ksVHP8OkyXsGp3cnkNv/efbq+qxVwKNkkr/885xXeVJY5qNBlSXFbmjmlf6mHQNMNaUC9gzQl75MRgzJ0dCzkadnQ2VWo3sbDVU6myos9UCo4+CU0Ch4EDIi9TW2Y9Xbk77oBQK6Pihg2sLzwv/1zXrUFpailKtRvi9e/dubP7jTxBcbW+RRYsX46Zbb2FSd8ufm3Hxha5j0iNGjMBjj6+wGS87L1+4Z3Ll/ffewyMPPgS9Xjy0TePec9+9uOTSS0FvEd6WQ4cOYdLx0hAqpIdFwY0oKSlhOlyTbx1vr1R6fC47S/0qB/5K6aaOLWaEh2B+VBfr/DN1TfiJBY3ynGugYIDqrSgucEctj/XRH9HCUFF6TDh1qmYcNnwYho8YgWHDhiEtPV14lacPpPWPO07AYzfEwwO1vTUYUaopQX1dHbZv245ff/0VW7b8JRwCyhWq/wiJT0ZofCpCE/ohJCaRiEuFSG6b72x3Ee2OtOSrt5iB+M6cOhUvvPQik0pmsxnHjR2HmhrX4dOvvv7SxuGqcnJlOeDdBbtx2SUXo67WNWnQ2HHj8Nqbb4Di7z0lZIMhAwayMUjx+KioVOMaRKpd8d7o5El1RU6Wik4PB7lzAy6MDMOFEW2olR806bCmUTpXPmPyLIQmpEpORwxR3mYBcqYE7dSFHHgfRMKUNJqTBhQaoQ/akKFDMXToUOTm5wnVi9Y/fcl5y7VRmabExqlTqIFCDvRDede33Xq76K4/LDEdcQNGITgmEQplkPAWwyqVO35H7b7/mJr3HzAAX37TRRgu1en3337D5Zdc6rLZ+vXrEBrWhTibqVIjkKGqlRwoFRxt/OZb0L/FhDBuPv70U+Tk5kip65XrT6x4DKtefpllbEu4viVqe3m5ZA54b3XyGD16dGB9VXUtD8j+qqVFz4sKB+3qWXPlCYmSECml5GgVRJGDt1AZfy+SDkc+bvx4jBk7BvEJCQgLDUVoWJjPl6MfbTNri4uFMwAxWXjtIhQXO8dSypgyG6Hx/dxagknfjOIv32LqS3you/YygW8J49EbytiRo9DUJB6bX7bsLkya3IV2kpqeITwvroSItGfNmImysjLRZpT+eO/992HOeecd1WeP6AFPmXISk3053jK4sLRUMnTQa508WSE3NzeKN5ooVUR2siztXa6ODke0QsEEORyZkYd+406XNH5V6f4eL7unXVz9tp98MuZO4RNy4BMnTcKYsWOFqkR6BaYfOnzzi3sW0BQVutyR3nnHXfj3X+ek2KxvpWKa7V/3MnPV9OZ//kZ8fDzzIv/3ww9YMF88EksHr3QA2yExcXGId5FhU1hYiIvOOx+1teK4TdOmT8e9D9wvHKwfbWlubsbwwWzFXTy4p4u1JTdL6dyrnXy7o8/hjcY9ACe7EoEc/XEhQfhNCr8GQFBkDFSnS+fK9xh5CMeBTv0J+tfcXI+6XX9K3WuvXqfQydDhwzBx4kQcd/zxwmEnVSRGR0VB0QOHVl5dnA8OLuXkn3ziSWwSqaDsrpMv/Ow1Aa2TRTZ8+QUGDyaEXDapranFWBf55/ScffnVF51x+ODgEKRnOc+w2bt3L86fPQfkOJ3JSSefjGXL74FKpWJTrodanTx5CkpZUikBfXB4WHRBQYHLw5he7+TJ7iqVakIAz//ijqMnA7AANCtDwpF9tjheS8f974mqVzoAjk1VISCwDWHP3GqAoa4KppZGAcSLDs7I+SuUgSC9FYFBAjkIp1AKDlfgeu3MSLA9YKPYPjFc0Ye4peoQavdtBb2iO5OVq1YhMysTcZReGEfphLK/Z3voY9P3ppFy8mvWfIQ3Xn/D6cK76+QPb96IxgP7mYy66rVXccqppzK17Wh00fnn468tthDX1gOsW/8pwqxCNM4ybBobGnDmaac7oDvSxui8C87HtQsXCnR/viivv/oqHn34ESbVzBwGajQalzGxPuHkyRp5WVlnW8BtcAfMjMWarLnylCdP+fI9IaFRcYhM8G7uLqVdGuqrof1+jcOSCvbtParxy56wsa/OUVJUCIuLA8Q///wT9y6/z6n6rIB7YmvXVR7AgZ/poyYt9z/0oJCCKEcIOuC82XNEu7zz7mokJSV1Xlfl5CDAKvONwpezZ54j5OBTuJBy88+ZMxtTppwkpM72ZMaMnHV3tD1QVoYpE1lR1rlbi7QlLuGH+4yTJwPlZKrmgsOb3qjkpd1v3jnXSN6zppoK6Op6rqJUGRSMmJRMYdfuLSHS5cINrzoMv2N3AUJD5XHrekvHY23cksJCWKj2QUQo53reFfO94uQpe4zi8ix1F1ddvQB33HWXrNtDB68jhgwV7XPNtddg9uxZndczVGqbzYbZZEZzcxNCQkN75Sakrq4OY0aMZLQZd6BIW+KSLrVPOXnB0WepbwH4xz3u6DkO+bMXSRr+aNAAUpwyPDYRYTEJkvq504BCOMKH2k627tiOiMhId4b09+mmBUoK94uW39PQVFB19tRpTtt0dydP4xeuXwWLmfjVXMupp52Gl199RaqZw3U6fKVDWGcyeMhgPP30U52X+qWlI6wH89llL0Zmh6amRpw65WQQng2LKC3mtL1lZYfE2vY5J08Lzc1UreA53M5iIDlt6OCVDmBdydGENggMCUN0cjpT0ZacdVPb/Z++5FD2/cNPPyJT5NBL7vj+9vIsIOXkabTzzj0fDQ2OocP0iTMRlpQub0K71kWfvw4zA+JqXl4evt60UfZc//z9Ny441zm3Mp39fPHl552VrlIZNlKTU3iH0iv//usvlBQVCymcTc1NMOgNQi1YRESEAGFB2TfJKcnI798fOTk5XjuDopTPF59/Hm++QUEJaeE4nFSo0fx4TDl5WmxOVtarACcNOCNtw84WKWNOQVTWAJc9jHodag+J86nKmM6tplTYEhGfglCJLyO5g2s2vofWRtsqwWf+7zlMnzFD7lD+9h6wAIuTp3ANhW3sJX3iDIQluXzDl9RQs+kDtDZIg/tRrvzOPbtlQw9QyiPlzIsJAZV1pOCGhIQiTeYhKlUOf7r2E3y8Zo0AG+zsy9CVEegAl84FCI8nv38+xo+fIGSVJSR2/226qrIChfv24dJLLpO8D9SAA1YWajWiYYY+uZPvsExOpuptcLicyVIMjWKyhyBp5GSXLYk0hMhDjrZQrJ6yb+hHGRQC+r+SSD7cwPmgtRza/C2a7NBN586bh3vuXX60l3pMzs/i5JdcvwR79+7zipOv3P4bavezYQX+/NuvgjOUI+SEB/cfIFoL8NHHaxAdHS0MSeHK7Nw8pmfbYrbg5ZUr8f677+LIEbdAbV0uI0uVhfETJuC0008XakPcyTg7cuggqquqMZOR4BtAfYZalfDjjz86jZ/1aSdPdyMnK+sVgFsg5wETa0vYHhmTZ7seypcJvTkOAcpABCjJ+QcKTp+yhugLQAqXp3r336gu2Gyz9hEjR2DtunWeMK1/DJkWYHHyd925DP/884+jkz9xBsKS3d/J6xvrUKfdi4a9fzNp/c777wm7XLlCMATEf+pMHDNspDFsDHo9rr5qAX779Ve5qti0p+wcQqRMSemHfv36IaVfP2FXT7v4hIRE4XdiYqLbSQllGg0MBj3mzD5XNMfffgF8gCK/uLjY6e6yzzv5dkf/fwAnizLL2VPAiitfUbKbKfOgW0+ahztTXr0yKEj4Auh6C6AvAMrF59B0qASH/vjKZlbCkaGy9WMZQ8bDt4F5OBYn/8gjj+KnH39y4uSnIyxZfo44Offmuqo2gDKLGXXbfmbS96FHHsaFF1/M1Na60batWzHnnK4sGutr9z9wPyZMGN/5J/sMG2eTEfvSV19+hVaDQcD9oR/C+qHfFJePiIxAREQkIiLChTh8eDj9P1xILiAnnpiUJPyma96Uon17heFfevElbNjwGdNUHM+dV1hastZZ42PCybc5evWTAC9ZAuzKogHBociZ5jwtzbpfpWaPwHfaVySAwjymVlT/65jtsHv/vk4Sh76y3t6wDhYnL+Yk0k6cjnBGJ08ZNOTcWxpqHfiL67YSlIb0cz7/yitx1z13yzYrwSqPHDrMaT9KoaRUyg5hwbCRrcBR6EBZUXRvSTQaDa65WhrinNry4N8t1mqdBvGPGSdPhsjOVD3CcbjT3XvHWhB1tEDK3F0XSz/eZET9DsfX3O0Fu2yqD1nG8rfpvgVYnPx7772P1W+vdphMysnzZjNaDTroG+tdFvbVb/8FPEMa5cTJk/Dm22/LXrSxtRUD8/s77UcokS9ZwRjHJyYiJjZO9hy+1oHOIrTFbZwU9JYxY/pMVhULirQap/gRx5STJ2vlqlT38jzudSePngqOcmdeLWn0qtJ9sJikc4glB/KhBvRhpg+1vfyzbWvnAZgPqdvnVSku3C/5trhhwwa89OJKB1skjTkFkanZtPujhHohl54KnEyGFhh0zcJvFqEvffrylxKKW//yx+9SzZxeHz96jACdbC8UIiRsecpyIQmPiEBKqrzDXbcU8nInfUsLDpaVCrMQJPLUs85mmpEDZyrUllBlooPjOeacPFksO1N1B8fhYcKlZ7JgeyPWqtfq0kKYTfIJHOTo0tNtqSCq3kkM9s+/tgjIkn7pWQuwOPnvv/8ejz/2hINi4arBCIztggVwV/OGXb/D0soGVLZt10634ATuvvMufPjBB05V/HTdJ51jEkkMEYj0dqmpqkStFXHK4kWLUVjIxjZnUXApJSUl5Q5fiL3dKO7qn6NSXQEetM1hxrulHPS8WQslpyQKQKIC7FPCWyDEYO3ko0/WYtTo0X1qqb1hMcX790nywxJ36vLl9NJqK2GZAxDkJp689UiNu7fALAJeZz/nhi8+x+AhbBC61n1//eUXXHGZ8yzo995/DwkJXTDG6ty8zp19b7iHznQkxi8KU3XIxm834qmnnmZaDm9WDCs+UExkSjZyTO7kOyyQq1afzlv4jwC0JdwySP4cqjlwbbaaA0UwMe5wGKb0mSZ1//3PQZe7ly/HFfPn+YyOx4oiLE5+185duOkmx1yDsIx8BCV0P7TRXLITxrpKJpM/89xzmD5TfuGcKxyb1994HenpXevIVKsR2I7MyqSUjzWyPnTtUE1OXF6h4CbvLylxSHk6pp08GVKtVg9XWPhvADDBOaqnzkVgqOsUqr7q5Bt2/u6AIz5j5kw8/dyzPvZx6fvqsDh5jUaLa652BNULTctFcDcrXsnC+iMa6A+XMBl7ydIbsGTpUqa21o0ot33wgIFO+z322ApQrUaHpGVkCqBkvVVoB087eWshx09xeUrxlBKLhZtUUlbicHB2zDt5MlxuWlo6lEG7efCSCbDpk2aCODJdSU9gykvdcG9cby7aDmOD7SEYES5896PjDt8b8/vH7LIAi5MngKtLLnaE+Q3pp0ZISveJMoz1VWh2jA44vU3EvvTs8/8n+xZStskAqmZ1IosWL8JMq7eDpJQUREYxv5TL1sXbHepqa1BdaftmRM79rDOnMjl5DvzxhVrtH/Z6+p18u0WyVaqNHI/TpG4kwRoQvMGx6OT1h4uhP6J1WPreosJOph4p+/mve8YCLE5er9dj5oxzHCYMTs5CaGp2txWxtOrRsMvBpzgdd+CgQfj8qy9lz0lOrn9OrlM0zbOnnY0lS7pqHKOiY5CYnCxrDrJRRXk5WvR6UGYLYdiUHzkCwsOJjIoUCqICA5UCZHFkVBSI6DsyIhKcwvOus7SkWOC5tRdKo6SwjZTwFsW44rJiB7YVz2sqpYmPXs/OUr3HAZJlebF5w5E47ETXTv5gMUwGvY+u1H21xHZu7mZOuK+JvyeLkycr0S6QXvmtJTgpHaFpznfHci1bt/VHpupu4h2gmgp3qqOnnTUVe3bvdlDNnu81OCQE6ZnOqQCtO1dVVmLP7j1479138N2m75h2ydb9FQEKDBgwUIBqOOXUU9AvNVVgR+sOGQmlSxLblzNZtuxu/P2XNIQEB35UoVb7n/0YfiffbpGcTNWz4HCD1EMenpKFtBOmHZNOnshDGnb85rB2uWTNUjb2X5e2AKuTn3XObOh0OpsBgxJSEZbhvMhIembbFpRWS+m1LPLz778hNTWVpalNm/vuWY5333nHoR/tqj9eS3kTbSIAleXli47fomvBc888g9dedSTAka2Ukw7Z2dm4Yv58UPEXwR8QAiertOh0OHSgzGnzTz/5FKtWSWPy+7NrJKydk6VeBvAPSd2UwPBoqM90TWdWc7CEuaBEaj5fui6WK//Tr78gLb17+OS+tM7eoAurk7/owotRY5V3TWuj9ElKo/SEsBZE0VxvvfMOTpzo+i3YmU6fbdiAm25wfmhLpN7WSI9iaZQU27/mqgUo3L9fKDKy/jHR/02mzr/Zv/m4Yyf6whHCSTfeiIyMDEnoj4NlZdC32H4Zd8y7c+cu3OwkS8peLz5A0b+4uNgBdtS/k2+3VE6m6mpwWCV1QxWBwcid4RqmvvZgCYyMVYNS8/nSdcLjqd/mmCv/+ltvYvKUKb6kap/XhdXJXzF3Hg4fPmxjj6C4ZIRlDfKIjSgmT7F5Fll+/324fO5clqY2bQ4eOIDJJ050vsu1KoiiBp5Io6S4OFXZ1lRXC7/pp7amVkCIcUcoVDVrzhzRnb2rUA3Nt2XzFtxzjzSkt5lDrEajsSV9kEz4dmdFvbRPjkp1IXg4L62zWhMLtEFfdfLE6SnEYO1k4eLFuPnWW3rpne+darM6+YXXLkRxsW1aXmBMIsLV8guTnFmqoWAzLAbnO1D79uTgydHLFUKJHCSCYfPBh+8L8fAOScvM6iQTkTvP0Wqv0zXh8IGDotN//933ePxxx8pluw51RVpNrLNB/Dv5dqtkZ2WfzcHyhdSNJtz1XAlC79pDJTDq2fA/pObztevOCqLGjhuHDz5a42uq9ml9WGANyABLb7gRu+0OLQOj4xGe7RzdUa7R5FS9Tp48Ga+//ZbcKWBsNWJgvvNY+1tvvylgundIv7Q0hIVLZkLL1sGbHco0JQLcsZisW7ceL6905Fi2a/9DkVZzit/Ju7hTarV6ksLCO8Yi7PoQ7nreLNfwn3WHNGjVs+1uvPnweGPshoI/YbELRVFMdE87PKo35vSP6WgBVid/2623Y9u2bTYDKCPjEJE73CNmbSraDpNd7YTYwO7WVLjKlV/1ysugcTskISkJ0TFON7QeWa+nB2ltNYBIQlzJO6vfwbvvvicxNfdkkbbkVr+Td2Gm3KyskTy4f6VuIouT76sHr2QbnXY3WmscadN27C5wmwlHyub+6+47+XvuvgdbttimTisjohGRJ86fKsfeLWX7YKgSDzVYj0WIkbQZ6ECOZJ2HYtaUK+9MVqx4FCNHjey8FBUTg8QkebnyrHp4o111ZQWIuNuVPPrICvz4oyhPd1tXDhcVaTQf+p28C0vmpOfkIsAsSc7KcQrkzXYNUtZXK17JfK3Vh6Er3eNgSX8apTdcgPiYLHjy1PvBBx7Er7/apr0GhEYgcsBYjyhsKNei5VAx81jffrcJObny0CIp2yU/O8fpHPZVr5TVogwMFIrz6A2TftooL5VQtv+N/i33i4Z5gTIaSh24dgzlrNbBfhqet0wsLi11ymvoj8m3W0utVicrLLw0sy/HIX+2KDG6MFpNWRFMfQ2Fst1OhDpIcVh7+d/PPyMj033eUBmfDX9TQGAPYkn1e2zFY/jhB1vYCUVQCKIGH+cRO7bWlEOnLWAe68WXV+KMM89kbk8Nqeo1T+28Qnf69Gm47vrrZI1n3dimOIvjbKEHiRM5IKDrh74wFAEIUAZAGaCEouMa/T0gQLYO9bW1qKqscNmPFbsmwGxK33fA+emt38m3mzg1NTUsNDCoWfpOcWhDohSX6rLCNh7MvigikMMff/oJRo7yTAigL5rN02tidfLPPPMsvvma8Pe6hFMGInqo/Hx1Z2swN9ejcZ9klLOz640334TF17PTLTc3N6G6sgonTznJqQmHDx+Ox594zNPmdXs86y+Nrn9z4Do8bfsXCX0pdHDLupqMziPOnuq6+BIcyoo0Gir1dZrj6XfyVs9+TpaKSvckbZI/Z7HLh6CqdD8sDIw5bj9JR7OjSBrlnXcvw5VXua4fOJpq97W5WZ38Sy+9hA3r7cigOQ4xIzxT12AxGkDopKwya/ZsPPH0Uy6bm4xGVJYfAeHKtLFW8TjzjLOc9omNjcWHayQzn1nV87l2BGdAsAauhXuoSFtyj1gbSYfmc6v2okI5WSrayYdJTZEzfT4CgsQhTau0+0AEyH1SRJz8GWediRdXOlLN9Ukb+MCiWJ38m2++hQ8/cDyPix4+CZRE4AlxllYrNu648ePx/hpHfciR11ZXo6GhXqg+tZczThcP8RANoDvhEk+s3dtjXH7ZXJSXO5A92Uwrhj7Z0cjv5K3MlZOlrgT4BKkbpzrtYgRFiadpVWr2MuN5SM3li9edfagJq+P3LZt9Ud0+qROrkycHT47eXigmT7F5T0j91p8EjlgWUavV2PS/HzqbEvJjVUW5ZOjClZO3pgFk0aG3tGEmDFEGJBcVFYkG9/1O3sbJqyhhVRLGLmPSOQhNFGfWqSzZw/zQ95YHzlrP+u0/gzc7glLt2rtHFihTb1y7r+jM6uQpVEMhG3uJ7D8GAWGRHlkOEbwT0TuLEFLjtl07UF9bh7q6WlBohkUoXCNGnPHe++8iIUFyb8YyjU+1+eD9D/DWW29L6MQVFmlLqFJMFHPB7+RtnTylCTinobFq12/8GYhMF08DqyjZzQS/6lNPlAxlmou2wdhQ49Djz7//6pMfNhmm6bGmrE5+48aNeOpJR47Q8NzhCIzsggPojuL1O34DL4O4fv2GdbJrKggXn2L0zsSeBrA7a/GVvnTgSmum366E57CwWKNxWQ7rd/I2Tl79F8CPkbrRSSMmISZnqNNmBOJVqXHMI5caszdd15eXQn/IkUF+4w/fg+BW/eJ9C7A6+V9++QUPPfiwg0JhqkEIivVM0ZAckDJS5MWXXkRurvO8dzHLnXfu+QKhhzN58aUXkCsz9977d6h7M2zevBnL73EkYbcf1VXqZEdbv5O3slpupuonnsMkqdsTP3As4geNc9rMqNeh9pDrMmWp8X39urmlEY17HEkM3lz9NiZOkjSfry+vV+jH6uT//vtvLLvLMTsjND0PwRI0lqyGkANSRmMuX34PTjjxBNbhhXaXXnIZKu2o8ToGeOTRhzF69GhZ4/ly45aWFtCXmjOWKGu9eXDfF2tLiM3OJTym38lbWS0nS/0dwDsF+bE2bnT2ECSPnOz0OdE11KCpSrqmypcfMmndeNT951hmfe2iRbjlNqfwGdJD+lvIskBJUSEsTs5F7AfZtXMXbnKCRR6SokZIv+7zvNJ8jXv+grmliVn/q69egDnnzmFuTw3nz7sSBw86h09YtHghZs6cKWs8lsYUKiGH2/FDGTwhwSEICQ1BcEgwApWBLMPIbkOIk4Q8KSUKDhP2azSS2Q5+J2/j5FVfA5Asx4tMy0G/Cc6bNVQegr7RAdJZ6n71uuvOaN9GjByJtes+7XVr6Y0KE1UclcVLyYEDB3DlfMf6BdrF027eE9JUuBWmRtf4K9bzzJg5A4sXuy4otNdr4bWLUFzsHD7h9NNPw7z584QqVKEatR22QHDOuhY065oFdqzmZh3q6+tQKxz61qGhvl74u07XAl2LTmjb9n+dwKkqVVFM0AgEc5yQEI/4+ASkpvbDiBEjBCwdd1M6tVotrl5wDctt0bfjx0uC+fudvJU5s1Wqzzge06UsHJqQiozJs5w268vgZNYLdubk6cNFGTbuPuBSdvdf77IAq5Nvbm7G7FmOu+aguBSEZUnmGDCZXA5IGQ04ceKJuPseqQIf26lvuGGpwMvaGyQyMhJDhw4VQlKTJk1CUBDbjp/ISa65+lo0NjYyLJO7tUhb8iRDQ+nqTpZB+kqb3Cz1Wh685HtkUGQsVKc75/yuLt0Pc1+tdrW60XXEEGVHEE2Xt/z7jw2JQ195NnxtHaxOnvSmzR9s6wAAIABJREFUsnj7LA1PEocYKsrQctA5CbUzuw0ZMhhPSVS9dvQjh/fbr78JqYS1EmiNvnCPsrIyMWr0aNAa+/fvj8TERCa16M1i0cLFAgsVi3AGZVLhkcJKprYsjY6VNjlZKqqPvlBqvQFBIciZfqXTZpRZQxk2fV3o4JUOYO3Fn2HTM3dejpO/8IKLHBykMjIWEbkjPKKssb4KzcU7mMdKTUvFm2++IdqewiXffrsRP/zwA/btdaAsZZ7H2w3T0tKQnZONnOxsqNQqDBw4EDExMbKnpayhG5YsxaFDh9j6cni8SKO5na0xA04L60B9oV2OSvUWeEiSUIphyhPRNVW7HgtCOzfawdkLMUQRU5RfvGuB0pISGBlB8K66agHKSm3vVUB4FCLzPZORYtHr0LBb8vyv0yBhYWFYt9727IZ2sn9t+QtbtmzB77//IZkf7l3r2o5OQGOUGkw78/z8PKiz1QJRSUhI9yuGd+zYgScef1ISusBKI54PUMQWFxfXs9rAH5O3slROVtYTAMdAVsohJnco4vqPgjIkvHMEQ1M96ivYCBRYb5CvtjM2VKO5aLuDerffeQcWXMN0cOSrS+sVeh3QamEwSJ65CWu5celNKCiwhQMOCAlH5EAPfRmLIJO6MuT555+P+vp61NTUoKqqEiUlvpN2TM571KiRyO/fH4MHDcKAgQMQFBTk0eeCDnZXr34Haz9eK2tcDvyCQq32NTmd/E7exsmrbwZ4psOMjm4xucMRlz8CytAI1B0uRauMVDI5N8rX2tJbS/22nx3UOunkk/HqG6/7mrp9Tp9DZWVoaWGjmFx+z3Js3mzLAeBJTHkyLj0L9Ez0VqGkgQkTJuCkk0/CccdN8FryAJ2N/PnnnyBKP41GK9dcRRlq1YAff/yRDUOifXS/k7cyc25m5qU8p3hHruWpfUzuMCAsCghgO0l3Zw5f6+MswyYyKgr/btsKGzIGX1O8D+hz5NBBNDex5aY/8fgT+M4u75oLCET0MM9gygtOfsev4HtpwsHIkSNx0803gkD2vCEUc6fUyH//+Ve4DxUVrolCRHTgTeDTtFrtYbk6+p28tZPPUM/gFfwGuUa0bh+ckIbgpAwogsWhiLszvi/1rd/2k9ND5n+3b0NUVJQvqdrndKk4chiNImX+9otdufJlrF+33vbPHsSUp4HlQht46IaYAa4WPF8LBeq49spPXjhrFP4n+DcOfCoPpLqac9DgQTjzzDOQkZEJOlCNjpb3/FJOPeXlV1VV4fDhIyjVarFnz17s2bMb1dWOOE9y189ZuJmFZSV2xABso/idvLWTV6mm8DxsudLY7OjQiopNgpMzoQgMdnME3+8mhkb53f9+gEqt9v0F9GINKysq0FDHVoAkhmboSUx5ooQkakgvCJXsl3EcKEn+Tx4o4ABtgDm4dG/ZXtrVuizpJ33ysrIGWsARfRXzSWloaCgiIiJAOe+dvyPb/k/ZP/V19UJBFZ0r0G+qRxBDyeyuTTgezxaWam50dxy/k7eynFqt7q+w8B6tuKDy8eDENBDlWl+Thl1/wtLa4rCsj9auxagxnsnc6Gs289R6aqoqUVvDtkP8+quv8eyzzzlM7UlM+ca9/8Cscw4gJnPNZnAogAW7Ae7LwLDgL/fs2cOWPO5iopws9T0A/4BMXY52cx7gXyjSapd0RxG/k7ey3qBBg4IMzToKdHrWI3McQtNyQVWGXICyO/fLp/rqtLvRWuOI07P8vvtw+RWSmag+tZbepkxdTQ2qq5hqYfDH73/gvvvud1iiJzHlKdOKMq66IcU8+G9azeZHDogQUndjbEzBFOWBLM0OHhjQnXF6qi8HzgSOf6JQo7mru3P6nbydBXNV6s94npeENnDH8FxAAELT80HVhp6iXnNHD0/1IQdPjt5eTj7lFLzyuqwsL0+pdMyM01Bfh0oJWrgOY+zevRtLb3B82w/PGY7AKM9gyrcc3A9DxQG59qeqwZ0Af1+RVrtObme57dXp6mGKAJ5SwqLl9u3h9sUWBTe1pKTEI0U3fidvd/dyVKozwYOAyrwmFLoJyxzQ9gHjFF6bx9sD80Y96nf+4TBNaFgYtu/cAU7Re9fmbdt1d3wq9684zFYheeTIEcy9/AqHKcOyBiEozg1MeZ6HxdQqZNOYdY0w1lfD1FjjTgrlp0VajSSMSHdtZd0/NyvrOB7cdyxczp6cl2Es+sLbDwX3SFFJyWqG9sxN/E7ezlTp6emhwQHK/QDE+f2Yzeu6IR3KEnmDMjwa4HrnrXCWRkmr/uOvLcy4HR4y5zE1THNzE46IQO/aG6K1tRXTp81w/DJmwJSn3Hei9iOHbmqqA0EYyEGclLgpPe7kSZ/szMxTOE6xCuDpg0e7es+GZ9mfxDpwKOWAD03ASo1G4xX42t7pWdiN6FZLtVo9XGHh/+qpm0/pluGqwQgIixASvnqTiBXBrP/8MwwZ6pw9qzetz1d11bfocLDMEVZCTN9Z58wWskKsJSQ5CyGp2QJVpeDM2x26uakepqZaGBtrvZr7zoNbW6wtOe8o25jLy8oawENxMoApPM8PB4dI8HwEOI7K2T3xgSQiWx14NHBACc/xn8Fs3lB04AA7qls3jOSJBXRjet/t2v5aR7TyzGlX3V0NlZqHZw/tVTn2YiTO//fCC5g67ezumsTfX8QChFtD+DWsMu+K+Q4AWPS8QREghFwYMhFZp5LRjr+lSKt9SkaHHm06GqMDa9PLB1iUymwlz+cAihwevBrgiQE9FOCoGCaEkvJ5gIxYA/CU8lTD81yxhce/SqP+38IjR9hOyL20Or+Td2HYrKysfkqO2wweGV6yv9NhA0IjEJ49DIog38+xb9j5OyxGg8M6LrrkYjz4sCO3aE/asS/PRcU3RAHIKkuX3ojdBY6H5Kz9vdDOrOAt+ftLS50zgXhhwmN1SL+TZ7jzuVnZl/DgXwZ4iqf0mFAYJyJvBBSBPfYyIXttBDFLcVp7IZS+7370SF2ZbJ2OlQ5F+9iTL+6793788YfjIfnRshUH/uNCrfb8ozX/sTSv38nLuNvqTPVpCs7yKcCFAeix1BFFYBAi8sf45M7eUFmGFpHQ4tadO4RqQb94xwLF+/cxV1k++8yz+Prrb7yjiNxReewoKtUMP0oxIrna9vr2fifv3i1U5KhUK8GDyDN7zNlDoUTUwLEgBEFfEZOuEU17/3aqzlfffov8/vm+omqf06O4cD8zQc2bb76FDz/48OjbgMfqolKNv1KuB++E38l3z9iK7LS0XE4ZuBFAVveGktGb4wR+zqBYN3KcZUzD2rTuP+dhmdfefANTTjqJdRh/O5kWoJi8FNl0x5Dr12/AypdWypzBc805cJ8EhYdeUVBQwAad6bmpj/mR/E7eQ49AampqWFhQ0G28hV8GjusZ7AJOgcCYBIQTIfNRLKoSS6NcsvQGLFm61EMW9g9jb4GSokJYzGwY7v/74X9YseKxnjbiN7zZtCQ2OVnzzz//UBqhX46CBfxO3sNGJ/yb5ubmwQHgvuSAfh4e3vlwHAeFMghh6iFQhsuDSPWEfmJY4uMnTMB7HxJtrl+8YQE5PK9EGkLkIT0pwbrmyILKSv/OvSeN7mQuv5P33g0IUKvVgzkLv54Degx3lwDQguNTEdxP1WP4OA27foel1TGNMjAwELv27oHCD2/gladMW1zEzIW6c+dO3HwTA7Nll6bm1NR+2+ZdOT9m2NCh6UGBgQI7/dwr5pU31DewhCZ3F2k1g7yycP+gsizgd/KyzOVW44Cc/2/vTOCjqq4//rszCRAkBUwQJMtMMmExVvQvgij+KyqERTar4gbUgm2hstiwFGhFtFXUUsAFxbpQkFX8CyhIkP4p2FqkBCgUFMksbyYJZF/JMpnM3P/nRvnXSTLvvjd7Zu79fPIJ+s4995zvfTnz5r57z0kxXAeNk731ut4rDd50anm6j0Vsj2vQ5dq0gGa/vJx3quXIe3vt8N8+R3JKUI8ZeEOrQ/axWsxodihbBTGbLZg9a3a7frKMh507x+YnJadUzJzx06Q0g6HHD34QH8Na6w4vvfjy3w8dOsQtKUVAtxit1qkdEmyEGS2CfPAmVJORmnod1Wg2gGJI8IZlB7O/Xc6J7Z6Azn30fi9k0njJgsai9gsxb9i0Ef/9ox8F1d1oGazAKoEVhFbSiouLMX1a200t99xzd9mixYsSiMJ6jRfyjOa5T85J549JVpmslkV8OSERaAIiyAeacFv9mozUjOsoaV4H4M7gD09a9tuzpGidEvsiplsPn01w1Fagzni6XT3ZCxfgl3Pm+DyGUNCWwKXCQtTXKVvyvnz5Mu7/8QNtlIwaNbJ84aKFCSr40tFZY1g1Js7W4fBOWaDC3w4vKoJ86KaQZKSmZlKiWQVgTKjMYHnt2b57bdd4xPa8BjHdeqpPEexyouo0S9Pdtg0dOhRbP9gRKvcielyWT57llVfS2FbLsWPGtRHNGpVVvmBRtpogj3vHjXc0NzfLZm6kFEvMNino23mUsIg2GRHkQz/jLNhfR4nmdwB+HHJzvlvaIbGdoY27quWJn30AtCSzkkmH7KmoN1vWPfPVOXTq1CnkrkWaAZUV5agoa5tSwpOfkyZORmNjo9vlrKyssgULsxPVsLlv0n3O+oYGrVwfQvCiUZKWqtErZANDQAT5wHD1Smt/vX6g04UlIAjDE4HfvshlBU9aShhqtC3/Zjnx2fJP40Wzx6IRe3P2Y+DADlF1zat5C1Wn2ppqlBS1Lb/oyZ5HH3kM5eXuJfpGZWWVLVQZ5Kc+Nq2gtLQ0WdZvgvUmSWr/TW+ogEXpuCLIh+HEZ6SkGKhGMx8gc8PQPNUmrXn1FUyY2LZohWpFooMbgYb6elwsUJ5TfuaMmWhdPjUrK6t0wcLsXmrQrvrD6qMHD352m2wfih0mm/SwGr1CNjAERJAPDFe/aDX0NaTQGOdsQvBr/osuvwwZECVTp0/DiueeC4juaFbqaGqCTVKeU37WrNmwmN3ls7JGlS5YuEBVkM/LyzPPeXKu/A4bigMmmxSyd03RfF+09l0E+Q5wN2T0yehFOzumA+S3AHzfDhNknw0GAw78LyurKZo/CajNKT9/3nycP++ennh0VlZptsoneUopxowey/IpyK3Li8NQ/pxsH3SJIO8DvBB0jUnX6SYRkGwAt4dgfK+GZFuwc0+dRPceHe7zySt/g9lJTU75RQsX4cyZf7uZN3r06JLsBb+6Rq3NEydMstvtdrmqNi4nwVWSJLm/6VU7kJD3mYAI8j4jDI2C9JT0W6Chswjo45wnqtAY2GrUrTu2Y+itt4aFLZFkhJqc8suW/QYnck+4ue/FPvmW/lMffexyaVm5bLEAl4YMtFgsyiubRNLEhJEvIsiH0WR4Y8rApKSE5tjY6ZSSRwE62E+Fh70xRbbP0888g5/8lH0eieZPAmrSDa9Y8SyO/sO9OtSIu0Y0Ll26RHWBgpdefPn4oUOHOCe36TiT1brfn/4KXeoJiCCvnlnY9khPT++PZtcjhNAHARK8PDkKiIwZOxavv/mGAkkhooaAmkyULzy/EkeOHHFTP3z4cOfyZ56W3fPenj0FBQWFM2c8kSRrKyXzTDbLa2r8EbL+JyCCvP+ZhoXGtLS0GzUuTAOhE0GREeon/ISEBHyZexwKU6SEBcOOYISaTJSrVv0RBz876ObWzTff3LDyxRfivPF17JhxdpfL5XFdngAbjFZphje6RR//ERBB3n8sw1ZTRlJGMo1tHglgBCgZDNDrQrGOf/jvf0NysvwZmrCFGKaG2SxmOBRmonz11dewb+8+N08yMzNr1qxd7VURggfuf9BeW1vrMchTQDJbpaCl2Q7TKQq5WSLIh3wKgm9Aenp6dzidIwkho0AxCKCpAOkT6MC/bv2bGD1GbJ3254znWyU0KcxEuX79W9j10S634Q3p6ZVvrH+jpzc2zZo1u9hitsjWoGxyOZPy8/MveqNf9PEPARHk/cOxw2vJyMjoDIfjelCaSQm5loBc6wK5hhDajYJoCGVZB2nL/UIprSMaUglKSkCdJSCatUoOa82YORPLnmZb/UXzF4HiSxdxubZWkbr33t2AHTvck8UlJSeXvffeO6py11wZbPv27bkb3vvzLXKDU9DxZqvV/euDImuFkL8IiCDvL5JRrMeg05UChBsoBgwciH05YrOFP2+VivJyVJYrS1K2efMWvL/pfbfheyUmlm7eulnVidcrCurr6+vum/xjtp7vMe0wIXjWKEkr/Omz0KWOgAjy6ngJ6XYIGFL1OSAYrQTO8VMn0bOnV6sDStRHnczl2hoUX7qkyO8PdnyAd999z022e/fupR/s3OFVkGeKxo8bX+9obu7qyQBC8LlRkkJQN0ERkqgQEkE+KqY5sE4adLrbAfKFklHWv/0njBw1SomokFFAwN7YiAKbVYEksGvXbqx/c72b7FVdu5Z9tPsj7rcwTwM8NOXhhqqqKs+7cwgcJCYm3mg0KithpcgTIaSGgAjyamgJWY8EDDp9DYB4HqInfv5zLFkm0ozzOCm9riZ/zb59n+LVV151U92pU6eKT/Z+fLXS8VrLzZo1u95itnh8kmfyBPR2o9XqfgrL2wFFP9UERJBXjUx0aI+AQac/ByCTR2fQjYPw0Z49PDFxXQUBpakNDh78C1b9gRUi+0/TarW1n+7fx/1w9mTOSytf+tehv/71JjlzCcGvjJLEXs6LFgICIsiHAHokDpmu1z9FKNbwfGOHoU6fO4uuXWUf/nhqxPXvEVCa2uDIkc/xwvMvuLEjhNhzDuyXSzQmy/rYl8fOLV/+DO909S6TVQp91bMovWtEkI/Sife325mZmZ2a6hrqKGgMT/e7f96AO0eM4ImJ6woJKD31yvLWsPw1rdu+T/c6YmJiZGu2ejKFUuocM3osiyNyhb3LTVaJvdxlBcBFCzIBEeSDDDyShzPo9KwihZ7n4y9mz8KiX7M6KKL5gwArHMIKiPDaiRMnsGzpb9qIbd26uTQhMdHrHTYTxk+83NTUJJuRUgOamWe1fs2zUVz3PwER5P3PNGo1ZqTqNlFCpvEADL7lFuz4cCdPTFxXSKDQZm1ToLu9rmfPnsWC7IVtLr3++muWfv37eZ1+4LFHp9aVlZVdJWcuoWSa0WbZrNAlIeZHAiLI+xFmtKsypKT8EBqte1WKdqBotVqc++Y8YmK4KzvRjlSR/6XFxaipruLK5uXlYc6TbcsGr3ju2a9vG3Yry2fkVZs/76n68+fPy75koaCrzVbrAq8GEJ18IiCCvE/4ROfWBAw6fQkA7lf/jZvfx/A77hAA/UCguqoKZSXFXE35tnw88cTP2sjNmzf37L3j7/0hV4EHgTWr157Oycm5kdP/sMkq3eXtGKKf9wREkPeenejZDoEMnf4oBYbx4Mz65WwsXLyYJyauKyDQ2NCAwnwbV7KkpATTpk5vIzd9+tRzj02dytsh41H/nj17Tr6x7s2bOQbUmqySV9kuuY4JAVkCIsiLG8SvBAypadNB6Eae0luHDcOW7dt4YuK6AgJKD0RVV1djyoMPtdE4edLEvNlP/rKfgqHaFTlz+sw3ixYtHsDrT7WaAWaz+QJPTlz3LwER5P3LU2gDNAadvh6A7N7rTp064d9ffwW2Pi+a7wSUHIiy2+2YOGFSm8HuGXnPxcWLF/X11oqa6uqKBx98iHtqVmSk9Jawb/1EkPeNn+jdDgGDXn8GFDfw4Lz93ru46+67eWLiugICkskEp7OZKzk6q20+/zvuGF739PKnZXfH8BSPyRrbzDsjQUB/ZrRa3+HpEtf9S0AEef/yFNoAGHRpqwDK3Unx8COP4Pcr3U9gCoDeEbBZLHA4+HvlJ02c3Ga75ZAhtzh///zvffpKNW7MuDqny8X5oKDLTVbr77zzUPTyloAI8t6SE/08EkhLS9NpXFTiIerXrx/2H/yMJyauKyDAMlGyjJS89tCUh1FV5b7dMjMzs37N2tU+5ZlQEuQp6Dqz1TqHZ6O47l8CIsj7l6fQ9h0Bg07PgrxODgjLY/PFl1/imt7XCG4+EigtLkJNdTVXy+OP/xSXLrrnn9en6avfemt9d25nGQGFQX6n2Wqd4ss4oq96AiLIq2cmeiggYEjV7wZB27d8rfouX/EMpj/+uAKNQkSOQG1NNUqKiriQ5s6ZhwsX3De49O7Tu2LTpo3cF6dyypUEeYDsM1kt47lGCgG/EhBB3q84hbIrBDJS0iZSDeXmFGYvXtkLWNF8I9DU1IR8iaUOkm8sdw3LYfP91qN7j/IdO7cn8Pr6HOQp9phs0mRfxhF91RMQQV49M9FDAYERQEy+Tl8OQPYAzNVXX41/nnQPOgrUC5F2CCjZRrnyhZU4fPiIW++4rnHlu3fv8jrI5+Yev/Db3yzXUUp5KYu3m6zSI2LygktABPng8o6q0Qw63d8Aws1d8OGuXbjpv2TrTkQVN2+dlcwmOJvlt1G+9trr2PvJXrchYmJjq/bt+6SHmnGPHTv2zd5P9iWdPn262W63K+pLKF4y2qQlasYRsr4TEEHed4ZCgwcCGan6JZRgJQ/Q4zNm4LfLn+aJiescAmy5hi3byLU/b9iIbdvcTxprNJr6/TmfcnfX/OOLf3xz8LPPUnJzT9qbHE2qq7FT0Jlmq9W9kriY1YATEEE+4Iijd4C0tLTeGhe9yCkogRsG3YBdH38cvaD85PnFfBsaGhpktX2480O8/Xar80iEOA8c2K9tstsbqqpraqurq+urKiuajCaz1mK2pFy4cKGyuKQkzuV0+pJ7xolGbV9TsYklsBMtiAREkA8i7GgcSkntV5bi4OSZ0+jSpUs0IvKbz2UlJaiuqpTVt//T/Vi79pU2MoQQB6XUq+pQCh3IMVmlsQplhZgfCYgg70eYQlVbAgad7k8AaZvftpXomlfWYsIk7o5LgViGwOXaGhRfct8D31r88yOf4/lWdV6DAZVQMsVos4hKMcGA3WoMEeRDAD2ahszQ6++kFId5PmeNHo033lrPExPXZQg0NzeD1XuVaydPnsLSJUuDypGCbDFbLVODOqgY7P8JiCAvboZAEyAGnZ5VtJAtJJKUlIQjX/w90LZEvH6L0QiXy+nRT0mS8IufzwoaBwKcR2zMrUajsSZog4qB3AiIIC9uiIATSNel7SSgD/AGYnlsWD4b0bwnkC9JaGqye1RQU1ODBx8IVmYB8hcSq33UaDSWeu+R6OkrARHkfSUo+nMJpOt09xOQD3mCU6dNw4rfPccTE9dlCFwqLEB9XZ1HCUppS0553lZLHyE3UIq1Zpu0HAA//7GPg4nu8gREkBd3SMAJDB48OLaqrLyMd/o1o18Gcg4eDLg9kTxAZXkZKsrZQWPPbcaMmSgsKAwEBjsFtlANWWaxWPhFZwNhgdDZhoAI8uKmCAoBJQnLWJWoL3OPo2dP1edsguJDRxiksaEehfn5sqYuXbIMJ0+e9Jc7LgD/pKA7NbGx74i1d39h9Z8eEeT9x1JokiGgtPbrU9nZmDNvrmDpJQG2HGMx5oH99tTWrFmLnP05Xo4AF0DMAD1LCT6GRvOR2Wzm5zj2djTRz2cCIsj7jFAoUEJgUO/eV9V1iWNLNrInnjKvvx4f73PPraJEv5D5DwGr2YzmZodHJFu3bMXGjZuUIGNP6QUALAQ4CYID3RMSDp04ccKzciVahUxQCYggH1Tc0T2YQaffD6BtkdHvYekSF4dTZ04jNjaQhy8jex4K821olElvcODAAaz+4xolEETWSCWUwlxGBPkwn6BIMi89RT+LaPAmz6cXX34JD0wJ1jY/njUd67rL6cSli4WyQZ7lk2d55bmNYJNJkn7ClRMCYU1ABPmwnp7IMm5g0sAER0xDEUBi5Dy78aab8D+7d0WW8wH2hq3B112uRWlxMVwutsriuRUVFeEn05VU4yLvmKwWbkqKALsm1PtIQAR5HwGK7uoIGHT6QwDukuvVvXt35P7rFFgNWNH4BFgBb/b0zsslf0WT4r3yBG+ZJCl4x2P5rgoJLwiIvyIvoIku3hNIT9XPJwRreRre37oFt91+O08sqq832e0twb3Zof496Pz5T+H81+fl+RHsNknSfVENOQKcF0E+AiaxI7lgMBhS0Oy0ApC994bfcQc2bn6/I7kWNFvZadVLBflgCcm8bevWvYGP93By+FMcN9mkod6OIfqFBwER5MNjHqLKCoNOfxTAMDmnExMTWw5GifYtAbbE0tjYgEsFBbJ74JXyOpBzAKtXc3bYEOSbJClVqU4hF54ERJAPz3mJaKsMqWlzQeirPCcPHTmMVJ2OJxbR16nL1VIIpLyMHTHwXztz+gwWLVrMU1hiskq9eULiengTEEE+vOcnIq0bmJSU4IiJZZkJufffkCFDMGf+PAwZOhQxMTHQaDQRyaS1U2wrZElxEeouXw6Iv6WlpZj62DSe7iqTVRI5JniUwvw6948szO0X5nVQAgad/iMAql7qsd0294wcieyFC9Cvf/+I3H1TU1WJ0pLAlkFlSz9sPX/SxMlwOj3nngfQYLJK3ALfHfQWjBqzRZCPmqkOL0cNev1kUHi9GZ490Wu0Wtx///2Y+9R89OnTJ7wcVGEN2yVTfOliQNP/sr3zR44cwbat21FQUNCyl14uv8135rtMVkmrwhUhGoYERJAPw0mJBpNGjBgRY7NYqgjIVf7wl6VBYMs5bA1//IQJmDBxIpJTkv2hOiA62LbH8rLSluUYBcFWtQ1M59GjR7F92w6walAOh4N7SKrdQZzN/UwFBUbVBogOYUNABPmwmYroMyRdl/ZHApodKM9Z0O/cpQviu3XDnSNGYNz48Rh22zCwlMahaCyfDAvs7MmddypVjX0ORzP+deoUjh07htzcE2DVnxobG3lLMYqG0BA8midJ2xQJC6GwJCCCfFhOS3QYlZacNlSjpceC6S1b5omLi0Pnzp1bfnR6HQYNuhEk6GPQAAADKElEQVQ33Dio5XdScpJfzamtqUFVRXnLGrivgb2urg7Hj+ciNzcXbHdMQ0MD7HZ7yzJPIL4NAGjqkZjQTWSd9OstEXRlIsgHHbkY8HsENAad/msA/cOFCnvKZ0//XdiHAPsWEB8PfVoaEhMTkJiQiIReiWB7+BMS2O8EJCQmtshcaQ11daiuroa9saHlSZoXfGtra1FYWPjdz8WW9fKLhYWorb3cssTCPhyu/A5wyb62U0DpWZPNekO4zI2wwzsCIsh7x0308hMBpXvm/TRcQNSwXT9saYh9QLAfFtiv/LABv//f7f07IEb5rtReZ29MKSoqEkW4fWcZUg0iyIcUvxg8LS1Np3FRSZAILwKUINssSYqSzoeX5cKa1gREkBf3RMgJpOvSDhLQkSE3RBjwLQGKt0w2kX0yUm4HEeQjZSY7sB8Gne4+gLDDUaKFnAD9g8lq5eY7CLmZwgDFBESQV4xKCAaKwIABA+KbGxu3AeTeQI0h9HIJVGkomZJnsxzkSgqBDkVABPkONV2Rbez1yclXN2i1wwgh0yilUwhIdCSqCe20OkGxDrHa500mU2DzKYTWz6gdXQT5qJ368Ha8V69e3eLj4m6CRjOcUPIAQG8Jb4s7lnUUqNdQ/InA9VqezWbuWNYLa9UQEEFeDS0hGzICrD6sXWu/WQMMJISyXPTDKJAeMoM65sA1AD4FwY7OdV3/8lXpV4FJcdkx2USs1SLIR+zURr5jer2+ByGkv9aJAS7iuolQMgQEgwFEe+bEBgA2ABZCcJq6yFeA81yPXr3OiNOrkf930dpDEeSjb84j3WOSkZKSTjUaHQGupdBcC0KTQcEqHKWCIAUUvZTksg8zUBRABYAygJaDkAJQkk8JLQRQRCgt0gBFdkqLbDZbVctGSNEEgQ54o4tJEwR8JpCRkdFZ63D0baa0L4G2LwW9GoR2o5R0I4R0A6XxhCDeRRBPKLoBNJ6CxBPQbgBh3xLYw9H3H5Da/zelBITYQVAPinqA/ZB6SlBPQFv+HwWtJ0ADoaQOhNa4CKkkTlSSGFLhaiaVGjgqGimtLCgoqBSB2+epj0oF/we081EwWQ/GfQAAAABJRU5ErkJggg==;" vertex="1" parent="1">
                    <mxGeometry x="-105" y="340" width="50.75" height="70" as="geometry"/>
                </mxCell>
                <mxCell id="140" value="" style="endArrow=classic;html=1;fontColor=#000000;labelBorderColor=#000000;strokeColor=#000000;labelBackgroundColor=none;" edge="1" parent="1">
                    <mxGeometry relative="1" as="geometry">
                        <mxPoint x="25" y="499" as="sourcePoint"/>
                        <mxPoint x="130" y="499" as="targetPoint"/>
                    </mxGeometry>
                </mxCell>
                <mxCell id="141" value="Set up" style="edgeLabel;resizable=0;html=1;align=center;verticalAlign=bottom;fontSize=13;labelBackgroundColor=none;fontStyle=1;fontColor=#000000;" connectable="0" vertex="1" parent="140">
                    <mxGeometry relative="1" as="geometry"/>
                </mxCell>
                <mxCell id="144" value="&lt;br&gt;" style="edgeLabel;html=1;align=center;verticalAlign=middle;resizable=0;points=[];fontColor=#000000;labelBackgroundColor=none;" vertex="1" connectable="0" parent="140">
                    <mxGeometry x="0.1818" relative="1" as="geometry">
                        <mxPoint as="offset"/>
                    </mxGeometry>
                </mxCell>
                <mxCell id="145" value="" style="endArrow=classic;html=1;fontColor=#000000;strokeColor=#000000;labelBackgroundColor=none;" edge="1" parent="1">
                    <mxGeometry relative="1" as="geometry">
                        <mxPoint x="25" y="524" as="sourcePoint"/>
                        <mxPoint x="130" y="524" as="targetPoint"/>
                        <Array as="points"/>
                    </mxGeometry>
                </mxCell>
                <mxCell id="146" value="Test" style="edgeLabel;resizable=0;html=1;align=center;verticalAlign=bottom;fontSize=13;spacingTop=0;labelBackgroundColor=none;fontStyle=1;fontColor=#000000;" connectable="0" vertex="1" parent="145">
                    <mxGeometry relative="1" as="geometry"/>
                </mxCell>
                <mxCell id="150" value="" style="endArrow=classic;html=1;fontColor=#000000;labelBorderColor=#000000;strokeColor=#000000;labelBackgroundColor=none;" edge="1" parent="1">
                    <mxGeometry relative="1" as="geometry">
                        <mxPoint x="25" y="470.75" as="sourcePoint"/>
                        <mxPoint x="130" y="471" as="targetPoint"/>
                    </mxGeometry>
                </mxCell>
                <mxCell id="152" value="&lt;br&gt;" style="edgeLabel;html=1;align=center;verticalAlign=middle;resizable=0;points=[];fontColor=#000000;labelBackgroundColor=none;" vertex="1" connectable="0" parent="150">
                    <mxGeometry x="0.1818" relative="1" as="geometry">
                        <mxPoint as="offset"/>
                    </mxGeometry>
                </mxCell>
                <mxCell id="151" value="Apply" style="edgeLabel;resizable=0;html=1;align=center;verticalAlign=bottom;fontSize=13;labelBackgroundColor=none;fontColor=#000000;fontStyle=1" connectable="0" vertex="1" parent="150">
                    <mxGeometry relative="1" as="geometry"/>
                </mxCell>
                <mxCell id="156" value="" style="endArrow=classic;html=1;fontColor=#000000;labelBorderColor=#000000;strokeColor=#000000;entryX=0.5;entryY=0;entryDx=0;entryDy=0;labelBackgroundColor=none;" edge="1" parent="1" target="124">
                    <mxGeometry relative="1" as="geometry">
                        <mxPoint x="-50" y="385" as="sourcePoint"/>
                        <mxPoint x="55" y="384.75" as="targetPoint"/>
                    </mxGeometry>
                </mxCell>
                <mxCell id="157" value="&lt;br&gt;" style="edgeLabel;html=1;align=center;verticalAlign=middle;resizable=0;points=[];fontColor=#000000;labelBackgroundColor=none;" vertex="1" connectable="0" parent="156">
                    <mxGeometry x="0.1818" relative="1" as="geometry">
                        <mxPoint as="offset"/>
                    </mxGeometry>
                </mxCell>
                <mxCell id="158" value="Run" style="edgeLabel;resizable=0;html=1;align=center;verticalAlign=bottom;fontSize=13;labelBackgroundColor=none;fontColor=#000000;fontStyle=1" connectable="0" vertex="1" parent="156">
                    <mxGeometry relative="1" as="geometry">
                        <mxPoint x="15" y="-27" as="offset"/>
                    </mxGeometry>
                </mxCell>
                <mxCell id="159" value="" style="endArrow=classic;html=1;fontSize=13;fontColor=#000000;endSize=6;strokeColor=#000000;exitX=0.5;exitY=1;exitDx=0;exitDy=0;exitPerimeter=0;" edge="1" parent="1" source="6" target="111">
                    <mxGeometry relative="1" as="geometry">
                        <mxPoint x="-242.25" y="369" as="sourcePoint"/>
                        <mxPoint x="-242.25" y="423.5" as="targetPoint"/>
                    </mxGeometry>
                </mxCell>
                <mxCell id="160" value="Push" style="edgeLabel;resizable=0;html=1;align=center;verticalAlign=middle;" connectable="0" vertex="1" parent="159">
                    <mxGeometry relative="1" as="geometry"/>
                </mxCell>
                <mxCell id="161" value="" style="endArrow=classic;html=1;fontSize=13;fontColor=#000000;endSize=6;strokeColor=#000000;" edge="1" parent="1">
                    <mxGeometry relative="1" as="geometry">
                        <mxPoint x="-107.13" y="378.9" as="sourcePoint"/>
                        <mxPoint x="-223" y="371.10792687925243" as="targetPoint"/>
                        <Array as="points">
                            <mxPoint x="-187.13" y="378.9"/>
                        </Array>
                    </mxGeometry>
                </mxCell>
                <mxCell id="162" value="Clone from master" style="edgeLabel;resizable=0;html=1;align=center;verticalAlign=middle;labelBackgroundColor=none;" connectable="0" vertex="1" parent="161">
                    <mxGeometry relative="1" as="geometry">
                        <mxPoint x="9" y="-25" as="offset"/>
                    </mxGeometry>
                </mxCell>
                <mxCell id="dTFYr-RZnlFyaBtzo14d-169" value="" style="shape=mxgraph.signs.people.construction;html=1;pointerEvents=1;fillColor=#000000;strokeColor=none;verticalLabelPosition=bottom;verticalAlign=top;align=center;labelBackgroundColor=none;fontSize=13;fontColor=#000000;opacity=60;" vertex="1" parent="1">
                    <mxGeometry x="-90" y="560" width="50" height="49" as="geometry"/>
                </mxCell>
            </root>
        </mxGraphModel>
    </diagram>
    <diagram id="Q_XFi3ioelC64SlCz0cG" name="ページ2">
        <mxGraphModel dx="753" dy="680" grid="1" gridSize="10" guides="1" tooltips="1" connect="1" arrows="1" fold="1" page="1" pageScale="1" pageWidth="827" pageHeight="1169" math="0" shadow="0">
            <root>
                <mxCell id="Qkn5HNH6iTHoOB1xhU12-0"/>
                <mxCell id="Qkn5HNH6iTHoOB1xhU12-1" parent="Qkn5HNH6iTHoOB1xhU12-0"/>
            </root>
        </mxGraphModel>
    </diagram>
</mxfile>